{
.appVersion = "3309";
.formatVersion = 3;
DisplayStrings = (
"ÁÁǼĆÉÍĹŃÓǾŔŚÚẂÝŹáǽćéíĺńóǿŕśúẃýź´Á

ĂǍÂÄÀĀĄÅÃÆǼBCĆČÇĈĊDĎĐÐEÉĔĚÊËĖÈĒĘẼFGĞĜĢĠHĦĤIÍĬǏÎÏİÌĪĮĨJĴKĶLĹĽĻĿŁMNŃŇŅÑŊOÓŎǑÔÖÒŐŌØǾÕŒPÞQRŔŘŖSŚŠŞŜȘTŦŤŢUÚŬǓÛÜÙŰŪŲŮŨVWẂŴẄẀXYÝŶŸỲỸZŹŽŻaáăǎâäàāąåãæǽbcćčçĉċdďđðeéĕěêëėèēęẽfgğĝģġhħĥiıíîïìīįĩjĵkķlĺľļŀłmnńňņñŋoóŏǒôöòőōøǿõœpþqrŕřŗsśšşŝșßtŧťţuúŭǔûüùűūųůũvwẃŵẅẁxyýŷÿỳzźžż",
"̧̨̈̇̀́̋̂̌̆̊̃̄"
);
customParameters = (
{
name = panose;
value = (
2,
0,
3,
3,
0,
0,
0,
0,
0,
0
);
},
{
name = unicodeRanges;
value = (
0,
1,
2,
3,
5,
6,
9,
29,
31,
33,
35,
62
);
},
{
name = fsType;
value = (
);
},
{
name = "Use Typo Metrics";
value = 1;
}
);
date = "2010-12-02 15:51:48 +0000";
familyName = Nobile;
features = (
{
code = "script latn;
language dflt;
lookup SUB_0 {
	sub f f i by uniFB03;
	sub f j by f_j;
	sub f i by uniFB01;
	sub f f by uniFB00;
	sub t t by t_t;
} SUB_0;
";
tag = liga;
}
);
fontMaster = (
{
customParameters = (
{
name = typoAscender;
value = 1653;
},
{
name = typoDescender;
value = -502;
},
{
name = typoLineGap;
value = 133;
},
{
name = winAscent;
value = 2301;
},
{
name = winDescent;
value = 530;
},
{
name = hheaAscender;
value = 2301;
},
{
name = hheaDescender;
value = -530;
},
{
name = strikeoutPosition;
value = 512;
},
{
name = strikeoutSize;
value = 102;
},
{
name = "prep Table Assembly";
value = "PUSHW[ ]	/* 1 value pushed */
511
SCANCTRL[ ]	/* ScanConversionControl */
PUSHB[ ]	/* 1 value pushed */
1
SCANTYPE[ ]	/* ScanType */
SVTCA[0]	/* SetFreedomAndProjectionVectorToAxis */
MPPEM[ ]	/* MeasurePixelPerEm */
PUSHB[ ]	/* 1 value pushed */
8
LT[ ]	/* LessThan */
IF[ ]	/* If */
PUSHB[ ]	/* 2 values pushed */
1 1
INSTCTRL[ ]	/* SetInstrExecControl */
EIF[ ]	/* EndIf */
PUSHB[ ]	/* 2 values pushed */
70 6
CALL[ ]	/* CallFunction */
IF[ ]	/* If */
POP[ ]	/* PopTopStack */
PUSHB[ ]	/* 1 value pushed */
16
EIF[ ]	/* EndIf */
MPPEM[ ]	/* MeasurePixelPerEm */
PUSHB[ ]	/* 1 value pushed */
20
GT[ ]	/* GreaterThan */
IF[ ]	/* If */
POP[ ]	/* PopTopStack */

glyphs = (
{
glyphname = A;
lastChange = "2024-06-14 12:44:05 +0000";
layers = (
{
anchors = (
{
name = bottom;
pos = (526,0);
},
{
name = ogonek;
pos = (1046,10);
},
{
name = top;
pos = (914,1572);
}
);
background = {
shapes = (
{
closed = 1;
nodes = (
(1038,481,l),
(435,481,l),
(709,1076,l),
(899,1489,l),
(953,1083,l),
(953,1083,l)
);
},
{
closed = 1;
nodes = (
(214,0,l),
(389,382,l),
(1051,382,l),
(1104,0,l),
(1277,0,l),
(1050,1577,l),
(773,1577,l),
(43,0,l),
(43,0,l)
);
}
);
};
layerId = m01;
shapes = (
{
closed = 1;
nodes = (
(214,0,l),
(389,382,l),
(1051,382,l),
(1104,0,l),
(1277,0,l),
(1050,1577,l),
(773,1577,l),
(43,0,l)
);
},
{
closed = 1;
nodes = (
(709,1076,l),
(899,1489,l),
(953,1083,l),
(1038,481,l),
(435,481,l)
);
}
);
userData = {
assembly = "SVTCA[0]	/* SetFreedomAndProjectionVectorToAxis */
PUSHB[ ]	/* 3 values pushed */
12 1 0
CALL[ ]	/* CallFunction */
PUSHB[ ]	/* 3 values pushed */
7 8 11
SHP[1]	/* ShiftPointByLastPoint */
SHP[1]	/* ShiftPointByLastPoint */
SHP[1]	/* ShiftPointByLastPoint */
PUSHB[ ]	/* 3 values pushed */
6 4 0
CALL[ ]	/* CallFunction */
PUSHB[ ]	/* 1 value pushed */
5
SHP[1]	/* ShiftPointByLastPoint */
PUSHB[ ]	/* 5 values pushed */
10 2 12 6 13
CALL[ ]	/* CallFunction */
PUSHB[ ]	/* 1 value pushed */
3
SHP[1]	/* ShiftPointByLastPoint */
PUSHB[ ]	/* 2 values pushed */
10 7
MIRP[01001]	/* MoveIndirectRelPt */
PUSHB[ ]	/* 1 value pushed */
9
SHP[0]	/* ShiftPointByLastPoint */
SVTCA[1]	/* SetFreedomAndProjectionVectorToAxis */
PUSHB[ ]	/* 1 value pushed */
13
MDAP[1]	/* MoveDirectAbsPt */
PUSHB[ ]	/* 1 value pushed */
14
MDRP[10110]	/* MoveDirectRelPt */
PUSHB[ ]	/* 1 value pushed */
54
SMD[ ]	/* SetMinimumDistance */
PUSHW[ ]	/* 3 values pushed */
14868 -6883 21
CALL[ ]	/* CallFunction */
SPVFS[ ]	/* SetPVectorFromStack */
PUSHB[ ]	/* 1 value pushed */
12
MDAP[0]	/* MoveDirectAbsPt */
SFVTPV[ ]	/* SetFVectorToPVector */
PUSHB[ ]	/* 1 value pushed */
0
SRP0[ ]	/* SetRefPoint0 */
SFVTCA[1]	/* SetFVectorToAxis */
PUSHB[ ]	/* 1 value pushed */
12
SRP0[ ]	/* SetRefPoint0 */
PUSHB[ ]	/* 2 values pushed */
11 14
MIRP[11001]	/* MoveIndirectRelPt */
PUSHB[ ]	/* 1 value pushed */
0
SRP0[ ]	/* SetRefPoint0 */
PUSHB[ ]	/* 2 values pushed */
5 14
MIRP[11001]	/* MoveIndirectRelPt */
PUSHW[ ]	/* 3 values pushed */
-16217 -2334 21
CALL[ ]	/* CallFunction */
SPVFS[ ]	/* SetPVectorFromStack */
PUSHB[ ]	/* 1 value pushed */
8
MDAP[0]	/* MoveDirectAbsPt */
PUSHB[ ]	/* 1 value pushed */
6
MDAP[0]	/* MoveDirectAbsPt */
PUSHB[ ]	/* 1 value pushed */
8
SRP0[ ]	/* SetRefPoint0 */
PUSHB[ ]	/* 2 values pushed */
7 15
MIRP[11001]	/* MoveIndirectRelPt */
PUSHB[ ]	/* 2 values pushed */
11 0
SFVTL[0]	/* SetFVectorToLine */
PUSHB[ ]	/* 1 value pushed */
6
SRP0[ ]	/* SetRefPoint0 */
PUSHB[ ]	/* 2 values pushed */
0 15
MIRP[11001]	/* MoveIndirectRelPt */
PUSHW[ ]	/* 3 values pushed */
14884 -6847 21
CALL[ ]	/* CallFunction */
SFVFS[ ]	/* SetFVectorFromStack */
PUSHB[ ]	/* 1 value pushed */
11
SRP0[ ]	/* SetRefPoint0 */
PUSHB[ ]	/* 4 values pushed */
1 11 0 19
CALL[ ]	/* CallFunction */
SFVTCA[1]	/* SetFVectorToAxis */
PUSHB[ ]	/* 4 values pushed */
2 11 0 19
CALL[ ]	/* CallFunction */
PUSHB[ ]	/* 1 value pushed */
0
SRP0[ ]	/* SetRefPoint0 */
PUSHB[ ]	/* 4 values pushed */
3 0 8 19
CALL[ ]	/* CallFunction */
PUSHW[ ]	/* 3 values pushed */
-16231 -2235 21
CALL[ ]	/* CallFunction */
SFVFS[ ]	/* SetFVectorFromStack */
PUSHB[ ]	/* 4 values pushed */
4 0 8 19
CALL[ ]	/* CallFunction */
SFVTCA[1]	/* SetFVectorToAxis */
PUSHB[ ]	/* 4 values pushed */
9 0 8 19
CALL[ ]	/* CallFunction */
PUSHB[ ]	/* 1 value pushed */
11
SRP0[ ]	/* SetRefPoint0 */
PUSHB[ ]	/* 4 values pushed */
10 11 0 19
CALL[ ]	/* CallFunction */
PUSHB[ ]	/* 3 values pushed */
1 11 0
DUP[ ]	/* DuplicateTopStack */
ROLL[ ]	/* RollTopThreeStack */
DUP[ ]	/* DuplicateTopStack */
ROLL[ ]	/* RollTopThreeStack */
SWAP[ ]	/* SwapTopStack */
SPVTL[0]	/* SetPVectorToLine */
SFVTPV[ ]	/* SetFVectorToPVector */
SRP1[ ]	/* SetRefPoint1 */
SRP2[ ]	/* SetRefPoint2 */
IP[ ]	/* InterpolatePts */
PUSHB[ ]	/* 3 values pushed */
4 0 8
DUP[ ]	/* DuplicateTopStack */
ROLL[ ]	/* RollTopThreeStack */
DUP[ ]	/* DuplicateTopStack */
ROLL[ ]	/* RollTopThreeStack */
SWAP[ ]	/* SwapTopStack */
SPVTL[0]	/* SetPVectorToLine */
SFVTPV[ ]	/* SetFVectorToPVector */
SRP1[ ]	/* SetRefPoint1 */
SRP2[ ]	/* SetRefPoint2 */
IP[ ]	/* InterpolatePts */
SVTCA[0]	/* SetFreedomAndProjectionVectorToAxis */
PUSHB[ ]	/* 3 values pushed */
0 1 4
MDAP[0]	/* MoveDirectAbsPt */
MDAP[0]	/* MoveDirectAbsPt */
MDAP[0]	/* MoveDirectAbsPt */
SVTCA[1]	/* SetFreedomAndProjectionVectorToAxis */
NPUSHB[ ]	/* 13 values pushed */
0 1 2 3 4 5 6 7 8 9 10 11 12
MDAP[0]	/* MoveDirectAbsPt */
MDAP[0]	/* MoveDirectAbsPt */
MDAP[0]	/* MoveDirectAbsPt */
MDAP[0]	/* MoveDirectAbsPt */
MDAP[0]	/* MoveDirectAbsPt */
MDAP[0]	/* MoveDirectAbsPt */
MDAP[0]	/* MoveDirectAbsPt */
MDAP[0]	/* MoveDirectAbsPt */
MDAP[0]	/* MoveDirectAbsPt */
MDAP[0]	/* MoveDirectAbsPt */
MDAP[0]	/* MoveDirectAbsPt */
MDAP[0]	/* MoveDirectAbsPt */
MDAP[0]	/* MoveDirectAbsPt */
PUSHB[ ]	/* 1 value pushed */
64
SMD[ ]	/* SetMinimumDistance */
SVTCA[1]	/* SetFreedomAndProjectionVectorToAxis */
SVTCA[0]	/* SetFreedomAndProjectionVectorToAxis */
IUP[0]	/* InterpolateUntPts */
IUP[1]	/* InterpolateUntPts */";
};
width = 1295;
},
{
anchors = (
{
name = bottom;
pos = (564,0);
},
{
name = ogonek;
pos = (1113,10);
},
{
name = top;
pos = (905,1603);
}
);
background = {
shapes = (
{
closed = 1;
nodes = (
(911,554,l),
(552,554,l),
(727,957,l),
(825,1195,l),
(859,909,l),
(859,909,l)
);
},
{
closed = 1;
nodes = (
(316,0,l),
(493,397,l),
(942,397,l),
(1001,0,l),
(1317,0,l),
(1035,1606,l),
(720,1606,l),
(-15,0,l),
(-15,0,l)
);
}
);
};
layerId = "32C958FF-0ECC-43B0-8A26-125B8B46EA2F";
shapes = (
{
closed = 1;
nodes = (
(316,0,l),
(493,397,l),
(942,397,l),
(1001,0,l),
(1317,0,l),
(1035,1606,l),
(720,1606,l),
(-15,0,l)
);
},
{
closed = 1;
nodes = (
(727,957,l),
(825,1195,l),
(859,909,l),
(911,554,l),
(552,554,l)
);
}
);
userData = {
assembly = "SVTCA[0]	/* SetFreedomAndProjectionVectorToAxis */
PUSHB[ ]	/* 3 values pushed */
12 1 0
CALL[ ]	/* CallFunction */
PUSHB[ ]	/* 3 values pushed */
7 8 11
SHP[1]	/* ShiftPointByLastPoint */
SHP[1]	/* ShiftPointByLastPoint */
SHP[1]	/* ShiftPointByLastPoint */
PUSHB[ ]	/* 3 values pushed */
6 4 0
CALL[ ]	/* CallFunction */
PUSHB[ ]	/* 1 value pushed */
5
SHP[1]	/* ShiftPointByLastPoint */
PUSHB[ ]	/* 5 values pushed */
10 2 12 6 13
CALL[ ]	/* CallFunction */
PUSHB[ ]	/* 1 value pushed */
3
SHP[1]	/* ShiftPointByLastPoint */
PUSHB[ ]	/* 2 values pushed */
10 7
MIRP[01001]	/* MoveIndirectRelPt */
PUSHB[ ]	/* 1 value pushed */
9
SHP[0]	/* ShiftPointByLastPoint */
SVTCA[1]	/* SetFreedomAndProjectionVectorToAxis */
PUSHB[ ]	/* 1 value pushed */
13
MDAP[1]	/* MoveDirectAbsPt */
PUSHB[ ]	/* 1 value pushed */
14
MDRP[10110]	/* MoveDirectRelPt */
PUSHB[ ]	/* 1 value pushed */
54
SMD[ ]	/* SetMinimumDistance */
PUSHW[ ]	/* 3 values pushed */
14898 -6818 21
CALL[ ]	/* CallFunction */
SPVFS[ ]	/* SetPVectorFromStack */
PUSHB[ ]	/* 1 value pushed */
12
MDAP[0]	/* MoveDirectAbsPt */
PUSHB[ ]	/* 1 value pushed */
2
MDAP[0]	/* MoveDirectAbsPt */
PUSHB[ ]	/* 1 value pushed */
12
SRP0[ ]	/* SetRefPoint0 */
PUSHB[ ]	/* 2 values pushed */
11 24
MIRP[11001]	/* MoveIndirectRelPt */
PUSHB[ ]	/* 1 value pushed */
2
SRP0[ ]	/* SetRefPoint0 */
PUSHB[ ]	/* 2 values pushed */
5 24
MIRP[11001]	/* MoveIndirectRelPt */
PUSHW[ ]	/* 3 values pushed */
-16137 -2834 21
CALL[ ]	/* CallFunction */
SPVFS[ ]	/* SetPVectorFromStack */
PUSHB[ ]	/* 1 value pushed */
8
MDAP[0]	/* MoveDirectAbsPt */
PUSHB[ ]	/* 1 value pushed */
6
MDAP[0]	/* MoveDirectAbsPt */
PUSHB[ ]	/* 1 value pushed */
8
SRP0[ ]	/* SetRefPoint0 */
PUSHB[ ]	/* 2 values pushed */
7 37
MIRP[11001]	/* MoveIndirectRelPt */
SFVTPV[ ]	/* SetFVectorToPVector */
PUSHB[ ]	/* 1 value pushed */
6
SRP0[ ]	/* SetRefPoint0 */
PUSHB[ ]	/* 2 values pushed */
0 37
MIRP[11001]	/* MoveIndirectRelPt */
SFVTCA[1]	/* SetFVectorToAxis */
PUSHB[ ]	/* 4 values pushed */
3 0 8 19
CALL[ ]	/* CallFunction */
PUSHW[ ]	/* 3 values pushed */
-16209 -2387 21
CALL[ ]	/* CallFunction */
SFVFS[ ]	/* SetFVectorFromStack */
PUSHB[ ]	/* 4 values pushed */
4 0 8 19
CALL[ ]	/* CallFunction */
SFVTCA[1]	/* SetFVectorToAxis */
PUSHB[ ]	/* 4 values pushed */
9 0 8 19
CALL[ ]	/* CallFunction */
PUSHB[ ]	/* 1 value pushed */
11
SRP0[ ]	/* SetRefPoint0 */
PUSHB[ ]	/* 4 values pushed */
10 11 2 19
CALL[ ]	/* CallFunction */
PUSHB[ ]	/* 3 values pushed */
4 0 8
DUP[ ]	/* DuplicateTopStack */
ROLL[ ]	/* RollTopThreeStack */
DUP[ ]	/* DuplicateTopStack */
ROLL[ ]	/* RollTopThreeStack */
SWAP[ ]	/* SwapTopStack */
SPVTL[0]	/* SetPVectorToLine */
SFVTPV[ ]	/* SetFVectorToPVector */
SRP1[ ]	/* SetRefPoint1 */
SRP2[ ]	/* SetRefPoint2 */
IP[ ]	/* InterpolatePts */
SVTCA[0]	/* SetFreedomAndProjectionVectorToAxis */
PUSHB[ ]	/* 2 values pushed */
0 4
MDAP[0]	/* MoveDirectAbsPt */
MDAP[0]	/* MoveDirectAbsPt */
SVTCA[1]	/* SetFreedomAndProjectionVectorToAxis */
NPUSHB[ ]	/* 12 values pushed */
0 2 3 4 5 6 7 8 9 10 11 12
MDAP[0]	/* MoveDirectAbsPt */
MDAP[0]	/* MoveDirectAbsPt */
MDAP[0]	/* MoveDirectAbsPt */
MDAP[0]	/* MoveDirectAbsPt */
MDAP[0]	/* MoveDirectAbsPt */
MDAP[0]	/* MoveDirectAbsPt */
MDAP[0]	/* MoveDirectAbsPt */
MDAP[0]	/* MoveDirectAbsPt */
MDAP[0]	/* MoveDirectAbsPt */
MDAP[0]	/* MoveDirectAbsPt */
MDAP[0]	/* MoveDirectAbsPt */
MDAP[0]	/* MoveDirectAbsPt */
PUSHB[ ]	/* 1 value pushed */
64
SMD[ ]	/* SetMinimumDistance */
SVTCA[1]	/* SetFreedomAndProjectionVectorToAxis */
SVTCA[0]	/* SetFreedomAndProjectionVectorToAxis */
IUP[0]	/* InterpolateUntPts */
IUP[1]	/* InterpolateUntPts */";
};
width = 1368;
},
{
anchors = (
{
name = bottom;
pos = (538,0);
},
{
name = ogonek;
pos = (1066,10);
},
{
name = top;
pos = (874,1582);
}
);
background = {
shapes = (
{
closed = 1;
nodes = (
(1000,503,l),
(469,503,l),
(714,1041,l),
(877,1403,l),
(925,1032,l),
(925,1032,l)
);
},
{
closed = 1;
nodes = (
(244,0,l),
(419,387,l),
(1019,387,l),
(1074,0,l),
(1289,0,l),
(1045,1586,l),
(757,1586,l),
(26,0,l),
(26,0,l)
);
}
);
};
layerId = "747E1C2D-2712-4BCE-A1EA-426133F593D6";
shapes = (
{
closed = 1;
nodes = (
(244,0,l),
(419,387,l),
(1019,387,l),
(1074,0,l),
(1289,0,l),
(1045,1586,l),
(757,1586,l),
(26,0,l)
);
},
{
closed = 1;
nodes = (
(714,1041,l),
(877,1403,l),
(925,1032,l),
(1000,503,l),
(469,503,l)
);
}
);
userData = {
assembly = "SVTCA[0]	/* SetFreedomAndProjectionVectorToAxis */
PUSHB[ ]	/* 3 values pushed */
12 1 0
CALL[ ]	/* CallFunction */
PUSHB[ ]	/* 3 values pushed */
7 8 11
SHP[1]	/* ShiftPointByLastPoint */
SHP[1]	/* ShiftPointByLastPoint */
SHP[1]	/* ShiftPointByLastPoint */
PUSHB[ ]	/* 3 values pushed */
6 4 0
CALL[ ]	/* CallFunction */
PUSHB[ ]	/* 1 value pushed */
5
SHP[1]	/* ShiftPointByLastPoint */
PUSHB[ ]	/* 5 values pushed */
10 2 12 6 13
CALL[ ]	/* CallFunction */
PUSHB[ ]	/* 1 value pushed */
3
SHP[1]	/* ShiftPointByLastPoint */
PUSHB[ ]	/* 5 values pushed */
10 7 0 31 4
CALL[ ]	/* CallFunction */
PUSHB[ ]	/* 1 value pushed */
9
SHP[0]	/* ShiftPointByLastPoint */
SVTCA[1]	/* SetFreedomAndProjectionVectorToAxis */
PUSHB[ ]	/* 1 value pushed */
13
MDAP[1]	/* MoveDirectAbsPt */
PUSHB[ ]	/* 1 value pushed */
14
MDRP[10110]	/* MoveDirectRelPt */
PUSHB[ ]	/* 1 value pushed */
54
SMD[ ]	/* SetMinimumDistance */
PUSHW[ ]	/* 3 values pushed */
14880 -6858 21
CALL[ ]	/* CallFunction */
SPVFS[ ]	/* SetPVectorFromStack */
PUSHB[ ]	/* 1 value pushed */
12
MDAP[0]	/* MoveDirectAbsPt */
SFVTPV[ ]	/* SetFVectorToPVector */
PUSHB[ ]	/* 1 value pushed */
0
SRP0[ ]	/* SetRefPoint0 */
SFVTCA[1]	/* SetFVectorToAxis */
PUSHB[ ]	/* 1 value pushed */
12
SRP0[ ]	/* SetRefPoint0 */
PUSHB[ ]	/* 2 values pushed */
11 30
MIRP[11001]	/* MoveIndirectRelPt */
PUSHB[ ]	/* 1 value pushed */
0
SRP0[ ]	/* SetRefPoint0 */
PUSHB[ ]	/* 2 values pushed */
5 30
MIRP[11001]	/* MoveIndirectRelPt */
PUSHW[ ]	/* 3 values pushed */
-16193 -2491 21
CALL[ ]	/* CallFunction */
SPVFS[ ]	/* SetPVectorFromStack */
PUSHB[ ]	/* 1 value pushed */
8
MDAP[0]	/* MoveDirectAbsPt */
PUSHB[ ]	/* 1 value pushed */
6
MDAP[0]	/* MoveDirectAbsPt */
PUSHB[ ]	/* 1 value pushed */
8
SRP0[ ]	/* SetRefPoint0 */
PUSHB[ ]	/* 2 values pushed */
7 31
MIRP[11001]	/* MoveIndirectRelPt */
PUSHB[ ]	/* 2 values pushed */
11 0
SFVTL[0]	/* SetFVectorToLine */
PUSHB[ ]	/* 1 value pushed */
6
SRP0[ ]	/* SetRefPoint0 */
PUSHB[ ]	/* 2 values pushed */
0 31
MIRP[11001]	/* MoveIndirectRelPt */
PUSHW[ ]	/* 3 values pushed */
14934 -6738 21
CALL[ ]	/* CallFunction */
SFVFS[ ]	/* SetFVectorFromStack */
PUSHB[ ]	/* 1 value pushed */
11
SRP0[ ]	/* SetRefPoint0 */
PUSHB[ ]	/* 4 values pushed */
1 11 0 19
CALL[ ]	/* CallFunction */
SFVTCA[1]	/* SetFVectorToAxis */
PUSHB[ ]	/* 4 values pushed */
2 11 0 19
CALL[ ]	/* CallFunction */
PUSHB[ ]	/* 1 value pushed */
0
SRP0[ ]	/* SetRefPoint0 */
PUSHB[ ]	/* 4 values pushed */
3 0 8 19
CALL[ ]	/* CallFunction */
PUSHW[ ]	/* 3 values pushed */
-16225 -2278 21
CALL[ ]	/* CallFunction */
SFVFS[ ]	/* SetFVectorFromStack */
PUSHB[ ]	/* 4 values pushed */
4 0 8 19
CALL[ ]	/* CallFunction */
SFVTCA[1]	/* SetFVectorToAxis */
PUSHB[ ]	/* 4 values pushed */
9 0 8 19
CALL[ ]	/* CallFunction */
PUSHB[ ]	/* 1 value pushed */
11
SRP0[ ]	/* SetRefPoint0 */
PUSHB[ ]	/* 4 values pushed */
10 11 0 19
CALL[ ]	/* CallFunction */
PUSHB[ ]	/* 3 values pushed */
1 11 0
DUP[ ]	/* DuplicateTopStack */
ROLL[ ]	/* RollTopThreeStack */
DUP[ ]	/* DuplicateTopStack */
ROLL[ ]	/* RollTopThreeStack */
SWAP[ ]	/* SwapTopStack */
SPVTL[0]	/* SetPVectorToLine */
SFVTPV[ ]	/* SetFVectorToPVector */
SRP1[ ]	/* SetRefPoint1 */
SRP2[ ]	/* SetRefPoint2 */
IP[ ]	/* InterpolatePts */
PUSHB[ ]	/* 3 values pushed */
4 0 8
DUP[ ]	/* DuplicateTopStack */
ROLL[ ]	/* RollTopThreeStack */
DUP[ ]	/* DuplicateTopStack */
ROLL[ ]	/* RollTopThreeStack */
SWAP[ ]	/* SwapTopStack */
SPVTL[0]	/* SetPVectorToLine */
SFVTPV[ ]	/* SetFVectorToPVector */
SRP1[ ]	/* SetRefPoint1 */
SRP2[ ]	/* SetRefPoint2 */
IP[ ]	/* InterpolatePts */
SVTCA[0]	/* SetFreedomAndProjectionVectorToAxis */
PUSHB[ ]	/* 3 values pushed */
0 1 4
MDAP[0]	/* MoveDirectAbsPt */
MDAP[0]	/* MoveDirectAbsPt */
MDAP[0]	/* MoveDirectAbsPt */
SVTCA[1]	/* SetFreedomAndProjectionVectorToAxis */
NPUSHB[ ]	/* 13 values pushed */
0 1 2 3 4 5 6 7 8 9 10 11 12
MDAP[0]	/* MoveDirectAbsPt */
MDAP[0]	/* MoveDirectAbsPt */
MDAP[0]	/* MoveDirectAbsPt */
MDAP[0]	/* MoveDirectAbsPt */
MDAP[0]	/* MoveDirectAbsPt */
MDAP[0]	/* MoveDirectAbsPt */
MDAP[0]	/* MoveDirectAbsPt */
MDAP[0]	/* MoveDirectAbsPt */
MDAP[0]	/* MoveDirectAbsPt */
MDAP[0]	/* MoveDirectAbsPt */
MDAP[0]	/* MoveDirectAbsPt */
MDAP[0]	/* MoveDirectAbsPt */
MDAP[0]	/* MoveDirectAbsPt */
PUSHB[ ]	/* 1 value pushed */
64
SMD[ ]	/* SetMinimumDistance */
SVTCA[1]	/* SetFreedomAndProjectionVectorToAxis */
SVTCA[0]	/* SetFreedomAndProjectionVectorToAxis */
IUP[0]	/* InterpolateUntPts */
IUP[1]	/* InterpolateUntPts */";
};
width = 1317;
}
);
note = A;
unicode = 65;
},
{
glyphname = Aacute;
lastChange = "2024-06-14 12:47:36 +0000";
layers = (
{
background = {
shapes = (
{
closed = 1;
nodes = (
(1038,481,l),
(435,481,l),
(709,1076,l),
(899,1489,l),
(953,1083,l),
(953,1083,l)
);
},
{
closed = 1;
nodes = (
(214,0,l),
(389,382,l),
(1051,382,l),
(1104,0,l),
(1277,0,l),
(1050,1577,l),
(773,1577,l),
(43,0,l),
(43,0,l)
);
},
{
closed = 1;
nodes = (
(885,2298,l),
(693,1680,l),
(822,1680,l),
(1117,2298,l),
(1117,2298,l)
);
}
);
};
layerId = m01;
shapes = (
{
ref = A;
},
{
pos = (161,426);
ref = acutecomb;
}
);
width = 1295;
},
{
background = {
shapes = (
{
closed = 1;
nodes = (
(911,554,l),
(552,554,l),
(727,957,l),
(825,1195,l),
(859,909,l),
(859,909,l)
);
},
{
closed = 1;
nodes = (
(316,0,l),
(493,397,l),
(942,397,l),
(1001,0,l),
(1317,0,l),
(1035,1606,l),
(720,1606,l),
(-15,0,l),
(-15,0,l)
);
},
{
closed = 1;
nodes = (
(713,2397,l),
(536,1708,l),
(734,1708,l),
(1093,2397,l),
(1093,2397,l)
);
}
);
};
layerId = "32C958FF-0ECC-43B0-8A26-125B8B46EA2F";
shapes = (
{
ref = A;
},
{
pos = (10,477);
ref = acutecomb;
}
);
width = 1368;
},
{
background = {
shapes = (
{
closed = 1;
nodes = (
(1000,503,l),
(469,503,l),
(714,1041,l),
(877,1403,l),
(925,1032,l),
(925,1032,l)
);
},
{
closed = 1;
nodes = (
(244,0,l),
(419,387,l),
(1019,387,l),
(1074,0,l),
(1289,0,l),
(1045,1586,l),
(757,1586,l),
(26,0,l),
(26,0,l)
);
},
{
closed = 1;
nodes = (
(835,2327,l),
(647,1688,l),
(796,1688,l),
(1111,2327,l),
(1111,2327,l)
);
}
);
};
layerId = "747E1C2D-2712-4BCE-A1EA-426133F593D6";
shapes = (
{
ref = A;
},
{
pos = (224,442);
ref = acutecomb;
}
);
width = 1317;
}
);
note = Aacute;
unicode = 193;
},
{
glyphname = Abreve;
lastChange = "2024-06-14 12:44:05 +0000";
layers = (
{
background = {
shapes = (
{
closed = 1;
nodes = (
(1038,481,l),
(435,481,l),
(709,1076,l),
(899,1489,l),
(953,1083,l),
(953,1083,l)
);
},
{
closed = 1;
nodes = (
(214,0,l),
(389,382,l),
(1051,382,l),
(1104,0,l),
(1277,0,l),
(1050,1577,l),
(773,1577,l),
(43,0,l),
(43,0,l)
);
}
);
};
layerId = m01;
shapes = (
{
ref = A;
},
{
pos = (380,426);
ref = brevecomb;
}
);
width = 1295;
},
{
background = {
shapes = (
{
closed = 1;
nodes = (
(911,554,l),
(552,554,l),
(727,957,l),
(825,1195,l),
(859,909,l),
(859,909,l)
);
},
{
closed = 1;
nodes = (
(316,0,l),
(493,397,l),
(942,397,l),
(1001,0,l),
(1317,0,l),
(1035,1606,l),
(720,1606,l),
(-15,0,l),
(-15,0,l)
);
},
{
closed = 1;
nodes = (
(1120,2044,l),
(1100,1913,o),
(1054,1858,o),
(954,1858,cs),
(875,1858,o),
(850,1888,o),
(845,1955,c),
(842,1968,o),
(842,1982,o),
(843,1999,cs),
(844,2014,o),
(846,2027,o),
(849,2044,c),
(645,2044,l),
(638,2009,o),
(636,1980,o),
(637,1949,cs),
(644,1792,o),
(738,1719,o),
(930,1719,cs),
(1154,1719,o),
(1279,1816,o),
(1318,2040,c),
(1322,2044,l),
(1322,2044,l)
);
}
);
};
layerId = "32C958FF-0ECC-43B0-8A26-125B8B46EA2F";
shapes = (
{
ref = A;
},
{
pos = (25,477);
ref = brevecomb;
}
);
width = 1368;
},
{
background = {
shapes = (
{
closed = 1;
nodes = (
(1000,503,l),
(469,503,l),
(714,1041,l),
(877,1403,l),
(925,1032,l),
(925,1032,l)
);
},
{
closed = 1;
nodes = (
(244,0,l),
(419,387,l),
(1019,387,l),
(1074,0,l),
(1289,0,l),
(1045,1586,l),
(757,1586,l),
(26,0,l),
(26,0,l)
);
},
{
closed = 1;
nodes = (
(1170,1873,o),
(1115,1823,o),
(1030,1823,cs),
(985,1823,o),
(954,1838,o),
(938,1868,c),
(923,1885,o),
(914,1907,o),
(915,1936,cs),
(915,1945,o),
(916,1955,o),
(918,1966,c),
(784,1966,l),
(781,1943,o),
(779,1922,o),
(780,1903,cs),
(781,1775,o),
(850,1705,o),
(1010,1705,cs),
(1182,1705,o),
(1276,1786,o),
(1309,1931,cs),
(1311,1937,o),
(1313,1943,o),
(1314,1949,cs),
(1315,1954,o),
(1316,1960,o),
(1317,1966,c),
(1185,1966,l),
(1185,1966,l)
);
}
);
};
layerId = "747E1C2D-2712-4BCE-A1EA-426133F593D6";
shapes = (
{
ref = A;
},
{
pos = (198,442);
ref = brevecomb;
}
);
width = 1317;
}
);
note = Abreve;
unicode = 258;
},
{
glyphname = Acaron;
lastChange = "2024-06-14 12:44:05 +0000";
layers = (
{
background = {
shapes = (
{
closed = 1;
nodes = (
(1038,481,l),
(435,481,l),
(709,1076,l),
(899,1489,l),
(953,1083,l),
(953,1083,l)
);
},
{
closed = 1;
nodes = (
(214,0,l),
(389,382,l),
(1051,382,l),
(1104,0,l),
(1277,0,l),
(1050,1577,l),
(773,1577,l),
(43,0,l),
(43,0,l)
);
},
{
closed = 1;
nodes = (
(1018,2203,l),
(822,1885,l),
(760,2203,l),
(630,2203,l),
(727,1679,l),
(834,1679,l),
(1171,2203,l),
(1171,2203,l)
);
}
);
};
layerId = m01;
shapes = (
{
ref = A;
},
{
pos = (378,426);
ref = caroncomb;
}
);
width = 1295;
},
{
background = {
shapes = (
{
closed = 1;
nodes = (
(911,554,l),
(552,554,l),
(727,957,l),
(825,1195,l),
(859,909,l),
(859,909,l)
);
},
{
closed = 1;
nodes = (
(316,0,l),
(493,397,l),
(942,397,l),
(1001,0,l),
(1317,0,l),
(1035,1606,l),
(720,1606,l),
(-15,0,l),
(-15,0,l)
);
},
{
closed = 1;
nodes = (
(999,2349,l),
(852,2029,l),
(783,2349,l),
(540,2349,l),
(710,1710,l),
(929,1710,l),
(1255,2349,l),
(1255,2349,l)
);
}
);
};
layerId = "32C958FF-0ECC-43B0-8A26-125B8B46EA2F";
shapes = (
{
ref = A;
},
{
pos = (178,477);
ref = caroncomb;
}
);
width = 1368;
},
{
background = {
shapes = (
{
closed = 1;
nodes = (
(1000,503,l),
(469,503,l),
(714,1041,l),
(877,1403,l),
(925,1032,l),
(925,1032,l)
);
},
{
closed = 1;
nodes = (
(244,0,l),
(419,387,l),
(1019,387,l),
(1074,0,l),
(1289,0,l),
(1045,1586,l),
(757,1586,l),
(26,0,l),
(26,0,l)
);
},
{
closed = 1;
nodes = (
(1013,2226,l),
(832,1908,l),
(767,2226,l),
(604,2226,l),
(722,1668,l),
(862,1668,l),
(1196,2226,l),
(1196,2226,l)
);
}
);
};
layerId = "747E1C2D-2712-4BCE-A1EA-426133F593D6";
shapes = (
{
ref = A;
},
{
pos = (277,442);
ref = caroncomb;
}
);
width = 1317;
}
);
note = uni01CD;
unicode = 461;
},
{
glyphname = Acircumflex;
lastChange = "2024-06-14 12:44:05 +0000";
layers = (
{
background = {
shapes = (
{
closed = 1;
nodes = (
(1038,481,l),
(435,481,l),
(709,1076,l),
(899,1489,l),
(953,1083,l),
(953,1083,l)
);
},
{
closed = 1;
nodes = (
(214,0,l),
(389,382,l),
(1051,382,l),
(1104,0,l),
(1277,0,l),
(1050,1577,l),
(773,1577,l),
(43,0,l),
(43,0,l)
);
},
{
closed = 1;
nodes = (
(782,1679,l),
(977,1997,l),
(1040,1679,l),
(1170,1679,l),
(1062,2203,l),
(955,2203,l),
(629,1679,l),
(629,1679,l)
);
}
);
};
layerId = m01;
shapes = (
{
ref = A;
},
{
pos = (348,426);
ref = circumflexcomb;
}
);
width = 1295;
},
{
background = {
shapes = (
{
closed = 1;
nodes = (
(911,554,l),
(552,554,l),
(727,957,l),
(825,1195,l),
(859,909,l),
(859,909,l)
);
},
{
closed = 1;
nodes = (
(316,0,l),
(493,397,l),
(942,397,l),
(1001,0,l),
(1317,0,l),
(1035,1606,l),
(720,1606,l),
(-15,0,l),
(-15,0,l)
);
},
{
closed = 1;
nodes = (
(807,1711,l),
(954,2030,l),
(1023,1711,l),
(1266,1711,l),
(1095,2350,l),
(876,2350,l),
(551,1711,l),
(551,1711,l)
);
}
);
};
layerId = "32C958FF-0ECC-43B0-8A26-125B8B46EA2F";
shapes = (
{
ref = A;
},
{
pos = (112,477);
ref = circumflexcomb;
}
);
width = 1368;
},
{
background = {
shapes = (
{
closed = 1;
nodes = (
(1000,503,l),
(469,503,l),
(714,1041,l),
(877,1403,l),
(925,1032,l),
(925,1032,l)
);
},
{
closed = 1;
nodes = (
(244,0,l),
(419,387,l),
(1019,387,l),
(1074,0,l),
(1289,0,l),
(1045,1586,l),
(757,1586,l),
(26,0,l),
(26,0,l)
);
},
{
closed = 1;
nodes = (
(790,1639,l),
(971,1957,l),
(1035,1639,l),
(1199,1639,l),
(1072,2196,l),
(932,2196,l),
(607,1639,l),
(607,1639,l)
);
}
);
};
layerId = "747E1C2D-2712-4BCE-A1EA-426133F593D6";
shapes = (
{
ref = A;
},
{
pos = (230,442);
ref = circumflexcomb;
}
);
width = 1317;
}
);
note = Acircumflex;
unicode = 194;
},
{
glyphname = Adieresis;
lastChange = "2024-06-14 12:46:52 +0000";
layers = (
{
background = {
shapes = (
{
closed = 1;
nodes = (
(1038,481,l),
(435,481,l),
(709,1076,l),
(899,1489,l),
(953,1083,l),
(953,1083,l)
);
},
{
closed = 1;
nodes = (
(214,0,l),
(389,382,l),
(1051,382,l),
(1104,0,l),
(1277,0,l),
(1050,1577,l),
(773,1577,l),
(43,0,l),
(43,0,l)
);
},
{
closed = 1;
nodes = (
(813,1888,o),
(776,1932,o),
(720,1932,cs),
(649,1932,o),
(587,1858,o),
(587,1787,cs),
(586,1727,o),
(624,1682,o),
(684,1682,cs),
(747,1682,o),
(813,1752,o),
(813,1830,cs),
(813,1828,l),
(813,1828,l)
);
},
{
closed = 1;
nodes = (
(1219,1827,o),
(1219,1827,o),
(1219,1827,cs),
(1218,1827,o),
(1218,1827,o),
(1218,1826,cs),
(1219,1886,o),
(1181,1930,o),
(1125,1930,cs),
(1054,1930,o),
(992,1856,o),
(992,1785,cs),
(992,1725,o),
(1030,1680,o),
(1090,1680,cs),
(1153,1680,o),
(1219,1750,o),
(1219,1828,cs)
);
}
);
};
layerId = m01;
shapes = (
{
ref = A;
},
{
pos = (253,426);
ref = dieresiscomb;
}
);
width = 1295;
},
{
background = {
shapes = (
{
closed = 1;
nodes = (
(911,554,l),
(552,554,l),
(727,957,l),
(825,1195,l),
(859,909,l),
(859,909,l)
);
},
{
closed = 1;
nodes = (
(316,0,l),
(493,397,l),
(942,397,l),
(1001,0,l),
(1317,0,l),
(1035,1606,l),
(720,1606,l),
(-15,0,l),
(-15,0,l)
);
},
{
closed = 1;
nodes = (
(789,1951,o),
(789,1955,o),
(790,1959,cs),
(790,1963,o),
(790,1968,o),
(790,1973,cs),
(785,2054,o),
(724,2124,o),
(640,2124,cs),
(538,2124,o),
(448,2020,o),
(453,1913,cs),
(456,1829,o),
(521,1763,o),
(602,1763,cs),
(691,1763,o),
(778,1841,o),
(789,1946,cs)
);
},
{
closed = 1;
nodes = (
(1390,1950,o),
(1390,1955,o),
(1391,1959,cs),
(1391,1963,o),
(1391,1968,o),
(1391,1973,cs),
(1386,2056,o),
(1324,2124,o),
(1242,2124,cs),
(1142,2124,o),
(1050,2024,o),
(1055,1913,cs),
(1058,1828,o),
(1122,1763,o),
(1204,1763,cs),
(1293,1763,o),
(1379,1842,o),
(1390,1945,cs)
);
}
);
};
layerId = "32C958FF-0ECC-43B0-8A26-125B8B46EA2F";
shapes = (
{
ref = A;
},
{
pos = (80,477);
ref = dieresiscomb;
}
);
width = 1368;
},
{
background = {
shapes = (
{
closed = 1;
nodes = (
(1000,503,l),
(469,503,l),
(714,1041,l),
(877,1403,l),
(925,1032,l),
(925,1032,l)
);
},
{
closed = 1;
nodes = (
(244,0,l),
(419,387,l),
(1019,387,l),
(1074,0,l),
(1289,0,l),
(1045,1586,l),
(757,1586,l),
(26,0,l),
(26,0,l)
);
},
{
closed = 1;
nodes = (
(785,1923,o),
(741,1972,o),
(677,1972,cs),
(596,1972,o),
(527,1893,o),
(527,1808,cs),
(527,1739,o),
(576,1689,o),
(640,1689,cs),
(711,1689,o),
(783,1764,o),
(786,1848,cs),
(786,1855,l),
(786,1855,l)
);
},
{
closed = 1;
nodes = (
(1248,1920,o),
(1204,1971,o),
(1140,1971,cs),
(1061,1971,o),
(991,1889,o),
(991,1807,cs),
(992,1739,o),
(1038,1688,o),
(1103,1688,cs),
(1175,1688,o),
(1246,1764,o),
(1249,1846,cs),
(1249,1853,l),
(1249,1853,l)
);
}
);
};
layerId = "747E1C2D-2712-4BCE-A1EA-426133F593D6";
shapes = (
{
ref = A;
},
{
pos = (161,442);
ref = dieresiscomb;
}
);
width = 1317;
}
);
note = Adieresis;
unicode = 196;
},
{
glyphname = Agrave;
lastChange = "2024-06-14 12:44:05 +0000";
layers = (
{
background = {
shapes = (
{
closed = 1;
nodes = (
(1038,481,l),
(435,481,l),
(709,1076,l),
(899,1489,l),
(953,1083,l),
(953,1083,l)
);
},
{
closed = 1;
nodes = (
(214,0,l),
(389,382,l),
(1051,382,l),
(1104,0,l),
(1277,0,l),
(1050,1577,l),
(773,1577,l),
(43,0,l),
(43,0,l)
);
},
{
closed = 1;
nodes = (
(748,2322,l),
(981,1708,l),
(1051,1708,l),
(1006,2322,l),
(1006,2322,l)
);
}
);
};
layerId = m01;
shapes = (
{
ref = A;
},
{
pos = (671,426);
ref = gravecomb;
}
);
width = 1295;
},
{
background = {
shapes = (
{
closed = 1;
nodes = (
(911,554,l),
(552,554,l),
(727,957,l),
(825,1195,l),
(859,909,l),
(859,909,l)
);
},
{
closed = 1;
nodes = (
(316,0,l),
(493,397,l),
(942,397,l),
(1001,0,l),
(1317,0,l),
(1035,1606,l),
(720,1606,l),
(-15,0,l),
(-15,0,l)
);
},
{
closed = 1;
nodes = (
(470,2420,l),
(693,1708,l),
(886,1708,l),
(859,2420,l),
(859,2420,l)
);
}
);
};
layerId = "32C958FF-0ECC-43B0-8A26-125B8B46EA2F";
shapes = (
{
ref = A;
},
{
pos = (473,477);
ref = gravecomb;
}
);
width = 1368;
},
{
background = {
shapes = (
{
closed = 1;
nodes = (
(1000,503,l),
(469,503,l),
(714,1041,l),
(877,1403,l),
(925,1032,l),
(925,1032,l)
);
},
{
closed = 1;
nodes = (
(244,0,l),
(419,387,l),
(1019,387,l),
(1074,0,l),
(1289,0,l),
(1045,1586,l),
(757,1586,l),
(26,0,l),
(26,0,l)
);
},
{
closed = 1;
nodes = (
(666,2351,l),
(897,1708,l),
(1003,1708,l),
(963,2351,l),
(963,2351,l)
);
}
);
};
layerId = "747E1C2D-2712-4BCE-A1EA-426133F593D6";
shapes = (
{
ref = A;
},
{
pos = (437,442);
ref = gravecomb;
}
);
width = 1317;
}
);
note = Agrave;
unicode = 192;
},
{
glyphname = Amacron;
lastChange = "2024-06-14 12:44:05 +0000";
layers = (
{
background = {
shapes = (
{
closed = 1;
nodes = (
(1038,481,l),
(435,481,l),
(709,1076,l),
(899,1489,l),
(953,1083,l),
(953,1083,l)
);
},
{
closed = 1;
nodes = (
(214,0,l),
(389,382,l),
(1051,382,l),
(1104,0,l),
(1277,0,l),
(1050,1577,l),
(773,1577,l),
(43,0,l),
(43,0,l)
);
}
);
};
layerId = m01;
shapes = (
{
ref = A;
},
{
pos = (260,426);
ref = macroncomb;
}
);
width = 1295;
},
{
background = {
shapes = (
{
closed = 1;
nodes = (
(911,554,l),
(552,554,l),
(727,957,l),
(825,1195,l),
(859,909,l),
(859,909,l)
);
},
{
closed = 1;
nodes = (
(316,0,l),
(493,397,l),
(942,397,l),
(1001,0,l),
(1317,0,l),
(1035,1606,l),
(720,1606,l),
(-15,0,l),
(-15,0,l)
);
},
{
closed = 1;
nodes = (
(521,1991,l),
(490,1765,l),
(1291,1765,l),
(1324,1991,l),
(1324,1991,l)
);
}
);
};
layerId = "32C958FF-0ECC-43B0-8A26-125B8B46EA2F";
shapes = (
{
ref = A;
},
{
pos = (234,477);
ref = macroncomb;
}
);
width = 1368;
},
{
background = {
shapes = (
{
closed = 1;
nodes = (
(1000,503,l),
(469,503,l),
(714,1041,l),
(877,1403,l),
(925,1032,l),
(925,1032,l)
);
},
{
closed = 1;
nodes = (
(244,0,l),
(419,387,l),
(1019,387,l),
(1074,0,l),
(1289,0,l),
(1045,1586,l),
(757,1586,l),
(26,0,l),
(26,0,l)
);
},
{
closed = 1;
nodes = (
(702,1899,l),
(678,1730,l),
(1350,1730,l),
(1373,1899,l),
(1373,1899,l)
);
}
);
};
layerId = "747E1C2D-2712-4BCE-A1EA-426133F593D6";
shapes = (
{
ref = A;
},
{
pos = (215,442);
ref = macroncomb;
}
);
width = 1317;
}
);
note = Amacron;
unicode = 256;
},
{
glyphname = Aogonek;
lastChange = "2024-06-14 12:43:47 +0000";
layers = (
{
background = {
shapes = (
{
closed = 1;
nodes = (
(1038,481,l),
(435,481,l),
(709,1076,l),
(899,1489,l),
(953,1083,l),
(953,1083,l)
);
},
{
closed = 1;
nodes = (
(214,0,l),
(389,382,l),
(1051,382,l),
(1104,0,l),
(1277,0,l),
(1050,1577,l),
(773,1577,l),
(43,0,l),
(43,0,l)
);
}
);
};
layerId = m01;
shapes = (
{
ref = A;
},
{
pos = (455,-1);
ref = ogonekcomb;
}
);
width = 1295;
},
{
background = {
shapes = (
{
closed = 1;
nodes = (
(911,554,l),
(552,554,l),
(727,957,l),
(825,1195,l),
(859,909,l),
(859,909,l)
);
},
{
closed = 1;
nodes = (
(316,0,l),
(493,397,l),
(942,397,l),
(1001,0,l),
(1317,0,l),
(1035,1606,l),
(720,1606,l),
(-15,0,l),
(-15,0,l)
);
},
{
closed = 1;
nodes = (
(1160,-429,o),
(1095,-451,o),
(1035,-451,cs),
(963,-451,o),
(895,-420,o),
(895,-310,cs),
(895,-235,o),
(955,-149,o),
(1011,-88,cs),
(1045,-51,o),
(1084,-15,o),
(1128,20,c),
(1006,20,l),
(952,-5,o),
(904,-35,o),
(862,-70,cs),
(789,-129,o),
(718,-217,o),
(718,-327,cs),
(718,-505,o),
(847,-604,o),
(1003,-604,cs),
(1074,-604,o),
(1146,-584,o),
(1213,-541,c),
(1199,-408,l),
(1199,-408,l)
);
}
);
};
layerId = "32C958FF-0ECC-43B0-8A26-125B8B46EA2F";
shapes = (
{
ref = A;
},
{
pos = (547,-10);
ref = ogonekcomb;
}
);
width = 1368;
},
{
background = {
shapes = (
{
closed = 1;
nodes = (
(1000,503,l),
(469,503,l),
(714,1041,l),
(877,1403,l),
(925,1032,l),
(925,1032,l)
);
},
{
closed = 1;
nodes = (
(244,0,l),
(419,387,l),
(1019,387,l),
(1074,0,l),
(1289,0,l),
(1045,1586,l),
(757,1586,l),
(26,0,l),
(26,0,l)
);
},
{
closed = 1;
nodes = (
(1222,-406,o),
(1205,-410,o),
(1188,-413,cs),
(1157,-420,o),
(1118,-425,o),
(1079,-425,cs),
(1002,-425,o),
(923,-403,o),
(923,-310,cs),
(923,-232,o),
(984,-151,o),
(1053,-85,cs),
(1091,-48,o),
(1134,-14,o),
(1183,19,c),
(1077,19,l),
(1022,-8,o),
(974,-38,o),
(931,-71,cs),
(859,-127,o),
(786,-209,o),
(786,-306,cs),
(786,-500,o),
(927,-545,o),
(1055,-545,cs),
(1103,-545,o),
(1148,-539,o),
(1183,-532,cs),
(1203,-529,o),
(1221,-524,o),
(1238,-519,c),
(1238,-401,l),
(1238,-401,l)
);
}
);
};
layerId = "747E1C2D-2712-4BCE-A1EA-426133F593D6";
shapes = (
{
ref = A;
},
{
pos = (489,-9);
ref = ogonekcomb;
}
);
width = 1317;
}
);
note = Aogonek;
unicode = 260;
},
{
glyphname = Aring;
lastChange = "2024-06-14 12:44:05 +0000";
layers = (
{
background = {
shapes = (
{
closed = 1;
nodes = (
(1038,481,l),
(435,481,l),
(709,1076,l),
(899,1489,l),
(953,1083,l),
(953,1083,l)
);
},
{
closed = 1;
nodes = (
(214,0,l),
(389,382,l),
(1051,382,l),
(1104,0,l),
(1277,0,l),
(1050,1577,l),
(773,1577,l),
(43,0,l),
(43,0,l)
);
},
{
closed = 1;
nodes = (
(973,1996,o),
(1002,1955,o),
(1002,1899,cs),
(1002,1830,o),
(953,1762,o),
(885,1762,cs),
(825,1762,o),
(799,1803,o),
(799,1859,cs),
(799,1928,o),
(846,1996,o),
(917,1996,cs)
);
},
{
closed = 1;
nodes = (
(713,1747,o),
(777,1680,o),
(874,1680,cs),
(994,1680,o),
(1091,1781,o),
(1091,1911,cs),
(1091,2004,o),
(1027,2077,o),
(931,2077,cs),
(810,2077,o),
(713,1972,o),
(713,1843,cs)
);
}
);
};
layerId = m01;
shapes = (
{
ref = A;
},
{
pos = (435,426);
ref = ringcomb;
}
);
width = 1295;
},
{
background = {
shapes = (
{
closed = 1;
nodes = (
(911,554,l),
(552,554,l),
(727,957,l),
(825,1195,l),
(859,909,l),
(859,909,l)
);
},
{
closed = 1;
nodes = (
(316,0,l),
(493,397,l),
(942,397,l),
(1001,0,l),
(1317,0,l),
(1035,1606,l),
(720,1606,l),
(-15,0,l),
(-15,0,l)
);
},
{
closed = 1;
nodes = (
(917,2218,o),
(988,2151,o),
(991,2063,cs),
(996,1948,o),
(892,1859,o),
(791,1859,cs),
(703,1859,o),
(630,1924,o),
(627,2015,cs),
(624,2128,o),
(730,2218,o),
(830,2218,cs)
);
},
{
closed = 1;
nodes = (
(469,1825,o),
(613,1708,o),
(775,1708,cs),
(973,1708,o),
(1163,1881,o),
(1155,2085,cs),
(1147,2247,o),
(1014,2368,o),
(846,2368,cs),
(655,2368,o),
(456,2202,o),
(464,1992,cs)
);
}
);
};
layerId = "32C958FF-0ECC-43B0-8A26-125B8B46EA2F";
shapes = (
{
ref = A;
},
{
pos = (328,477);
ref = ringcomb;
}
);
width = 1368;
},
{
background = {
shapes = (
{
closed = 1;
nodes = (
(1000,503,l),
(469,503,l),
(714,1041,l),
(877,1403,l),
(925,1032,l),
(925,1032,l)
);
},
{
closed = 1;
nodes = (
(244,0,l),
(419,387,l),
(1019,387,l),
(1074,0,l),
(1289,0,l),
(1045,1586,l),
(757,1586,l),
(26,0,l),
(26,0,l)
);
},
{
closed = 1;
nodes = (
(974,2062,o),
(1017,2012,o),
(1018,1948,cs),
(1018,1864,o),
(953,1790,o),
(876,1790,cs),
(808,1790,o),
(768,1840,o),
(767,1905,cs),
(767,1987,o),
(830,2062,o),
(910,2062,cs)
);
},
{
closed = 1;
nodes = (
(658,1768,o),
(749,1688,o),
(863,1688,cs),
(1008,1688,o),
(1132,1812,o),
(1129,1962,cs),
(1126,2075,o),
(1041,2163,o),
(925,2163,cs),
(785,2163,o),
(658,2040,o),
(658,1887,cs)
);
}
);
};
layerId = "747E1C2D-2712-4BCE-A1EA-426133F593D6";
shapes = (
{
ref = A;
},
{
pos = (347,442);
ref = ringcomb;
}
);
width = 1317;
}
);
note = Aring;
unicode = 197;
},
{
glyphname = Atilde;
lastChange = "2024-06-14 12:44:05 +0000";
layers = (
{
background = {
shapes = (
{
closed = 1;
nodes = (
(1038,481,l),
(435,481,l),
(709,1076,l),
(899,1489,l),
(953,1083,l),
(953,1083,l)
);
},
{
closed = 1;
nodes = (
(214,0,l),
(389,382,l),
(1051,382,l),
(1104,0,l),
(1277,0,l),
(1050,1577,l),
(773,1577,l),
(43,0,l),
(43,0,l)
);
},
{
closed = 1;
nodes = (
(1193,1680,o),
(1279,1734,o),
(1279,1915,c),
(1138,1915,l),
(1138,1839,o),
(1112,1823,o),
(1065,1823,cs),
(979,1823,o),
(870,1940,o),
(747,1940,cs),
(622,1940,o),
(525,1867,o),
(525,1706,c),
(668,1706,l),
(668,1790,o),
(702,1798,o),
(740,1798,cs),
(814,1798,o),
(949,1680,o),
(1080,1680,cs)
);
}
);
};
layerId = m01;
shapes = (
{
ref = A;
},
{
pos = (353,426);
ref = tildecomb;
}
);
width = 1295;
},
{
background = {
shapes = (
{
closed = 1;
nodes = (
(911,554,l),
(552,554,l),
(727,957,l),
(825,1195,l),
(859,909,l),
(859,909,l)
);
},
{
closed = 1;
nodes = (
(316,0,l),
(493,397,l),
(942,397,l),
(1001,0,l),
(1317,0,l),
(1035,1606,l),
(720,1606,l),
(-15,0,l),
(-15,0,l)
);
},
{
closed = 1;
nodes = (
(1110,1706,o),
(1167,1737,o),
(1210,1793,cs),
(1253,1848,o),
(1281,1928,o),
(1292,2028,c),
(1091,2028,l),
(1078,1944,o),
(1074,1923,o),
(1023,1923,cs),
(918,1923,o),
(845,2067,o),
(685,2067,cs),
(540,2067,o),
(454,1956,o),
(433,1732,c),
(624,1732,l),
(629,1779,o),
(637,1811,o),
(649,1830,cs),
(660,1848,o),
(676,1857,o),
(696,1857,cs),
(777,1857,o),
(884,1706,o),
(1043,1706,cs)
);
}
);
};
layerId = "32C958FF-0ECC-43B0-8A26-125B8B46EA2F";
shapes = (
{
ref = A;
},
{
pos = (176,477);
ref = tildecomb;
}
);
width = 1368;
},
{
background = {
shapes = (
{
closed = 1;
nodes = (
(1000,503,l),
(469,503,l),
(714,1041,l),
(877,1403,l),
(925,1032,l),
(925,1032,l)
);
},
{
closed = 1;
nodes = (
(244,0,l),
(419,387,l),
(1019,387,l),
(1074,0,l),
(1289,0,l),
(1045,1586,l),
(757,1586,l),
(26,0,l),
(26,0,l)
);
},
{
closed = 1;
nodes = (
(1186,1687,o),
(1279,1762,o),
(1284,1948,c),
(1125,1948,l),
(1122,1866,o),
(1098,1852,o),
(1053,1852,cs),
(955,1852,o),
(869,1978,o),
(729,1978,cs),
(599,1978,o),
(503,1895,o),
(498,1713,c),
(656,1713,l),
(658,1798,o),
(687,1815,o),
(728,1815,cs),
(808,1815,o),
(927,1687,o),
(1069,1687,cs)
);
}
);
};
layerId = "747E1C2D-2712-4BCE-A1EA-426133F593D6";
shapes = (
{
ref = A;
},
{
pos = (264,442);
ref = tildecomb;
}
);
width = 1317;
}
);
note = Atilde;
unicode = 195;
},
{
glyphname = AE;
lastChange = "2024-06-14 12:43:58 +0000";
layers = (
{
background = {
shapes = (
{
closed = 1;
nodes = (
(2057,1441,l),
(2076,1572,l),
(1092,1572,l),
(43,0,l),
(225,0,l),
(474,384,l),
(1003,384,l),
(948,0,l),
(1865,0,l),
(1883,138,l),
(1128,138,l),
(1220,779,l),
(1871,779,l),
(1884,886,l),
(1236,886,l),
(1314,1441,l),
(1314,1441,l)
);
},
{
closed = 1;
nodes = (
(1147,1432,l),
(1017,481,l),
(555,481,l),
(555,481,l)
);
}
);
};
layerId = m01;
shapes = (
{
closed = 1;
nodes = (
(225,0,l),
(474,384,l),
(1003,384,l),
(948,0,l),
(1865,0,l),
(1883,138,l),
(1128,138,l),
(1220,779,l),
(1871,779,l),
(1884,886,l),
(1236,886,l),
(1314,1441,l),
(2057,1441,l),
(2076,1572,l),
(1092,1572,l),
(43,0,l)
);
},
{
closed = 1;
nodes = (
(1147,1432,l),
(1017,481,l),
(555,481,l)
);
}
);
userData = {
assembly = "SVTCA[0]	/* SetFreedomAndProjectionVectorToAxis */
PUSHB[ ]	/* 3 values pushed */
7 1 0
CALL[ ]	/* CallFunction */
PUSHB[ ]	/* 2 values pushed */
10 11
SHP[1]	/* ShiftPointByLastPoint */
SHP[1]	/* ShiftPointByLastPoint */
PUSHB[ ]	/* 2 values pushed */
4 5
MIRP[01001]	/* MoveIndirectRelPt */
PUSHB[ ]	/* 3 values pushed */
12 4 0
CALL[ ]	/* CallFunction */
PUSHB[ ]	/* 2 values pushed */
15 10
MIRP[01001]	/* MoveIndirectRelPt */
PUSHB[ ]	/* 5 values pushed */
9 18 7 12 13
CALL[ ]	/* CallFunction */
PUSHB[ ]	/* 1 value pushed */
16
SHP[1]	/* ShiftPointByLastPoint */
PUSHB[ ]	/* 2 values pushed */
9 7
MIRP[01001]	/* MoveIndirectRelPt */
PUSHB[ ]	/* 1 value pushed */
8
SHP[0]	/* ShiftPointByLastPoint */
PUSHB[ ]	/* 5 values pushed */
0 3 7 12 13
CALL[ ]	/* CallFunction */
PUSHB[ ]	/* 2 values pushed */
0 8
MIRP[01001]	/* MoveIndirectRelPt */
SVTCA[1]	/* SetFreedomAndProjectionVectorToAxis */
PUSHB[ ]	/* 1 value pushed */
19
MDAP[1]	/* MoveDirectAbsPt */
PUSHB[ ]	/* 1 value pushed */
11
MDRP[10110]	/* MoveDirectRelPt */
PUSHB[ ]	/* 2 values pushed */
10 17
MIRP[01001]	/* MoveIndirectRelPt */
PUSHB[ ]	/* 1 value pushed */
10
SRP0[ ]	/* SetRefPoint0 */
PUSHB[ ]	/* 1 value pushed */
20
MDRP[10110]	/* MoveDirectRelPt */
PUSHB[ ]	/* 1 value pushed */
54
SMD[ ]	/* SetMinimumDistance */
PUSHW[ ]	/* 3 values pushed */
13628 -9094 21
CALL[ ]	/* CallFunction */
SPVFS[ ]	/* SetPVectorFromStack */
PUSHB[ ]	/* 1 value pushed */
11
SRP0[ ]	/* SetRefPoint0 */
PUSHB[ ]	/* 1 value pushed */
12
MDRP[00000]	/* MoveDirectRelPt */
PUSHB[ ]	/* 1 value pushed */
10
SRP0[ ]	/* SetRefPoint0 */
PUSHB[ ]	/* 1 value pushed */
18
MDRP[00000]	/* MoveDirectRelPt */
PUSHW[ ]	/* 3 values pushed */
16228 -2255 21
CALL[ ]	/* CallFunction */
SPVFS[ ]	/* SetPVectorFromStack */
PUSHB[ ]	/* 1 value pushed */
7
MDAP[0]	/* MoveDirectAbsPt */
PUSHB[ ]	/* 1 value pushed */
15
MDAP[0]	/* MoveDirectAbsPt */
PUSHB[ ]	/* 1 value pushed */
7
SRP0[ ]	/* SetRefPoint0 */
PUSHB[ ]	/* 2 values pushed */
4 36
MIRP[11001]	/* MoveIndirectRelPt */
SFVTPV[ ]	/* SetFVectorToPVector */
PUSHB[ ]	/* 1 value pushed */
15
SRP0[ ]	/* SetRefPoint0 */
PUSHB[ ]	/* 2 values pushed */
17 36
MIRP[11001]	/* MoveIndirectRelPt */
SFVTCA[1]	/* SetFVectorToAxis */
PUSHB[ ]	/* 1 value pushed */
4
SRP0[ ]	/* SetRefPoint0 */
PUSHB[ ]	/* 4 values pushed */
0 4 15 19
CALL[ ]	/* CallFunction */
PUSHB[ ]	/* 4 values pushed */
3 4 15 19
CALL[ ]	/* CallFunction */
PUSHB[ ]	/* 1 value pushed */
7
SRP0[ ]	/* SetRefPoint0 */
PUSHB[ ]	/* 4 values pushed */
8 7 17 19
CALL[ ]	/* CallFunction */
PUSHB[ ]	/* 1 value pushed */
10
SRP0[ ]	/* SetRefPoint0 */
PUSHB[ ]	/* 4 values pushed */
9 10 18 19
CALL[ ]	/* CallFunction */
PUSHB[ ]	/* 1 value pushed */
7
SRP0[ ]	/* SetRefPoint0 */
PUSHB[ ]	/* 4 values pushed */
16 7 17 19
CALL[ ]	/* CallFunction */
SPVTCA[1]	/* SetPVectorToAxis */
SVTCA[0]	/* SetFreedomAndProjectionVectorToAxis */
PUSHB[ ]	/* 1 value pushed */
17
MDAP[0]	/* MoveDirectAbsPt */
SVTCA[1]	/* SetFreedomAndProjectionVectorToAxis */
NPUSHB[ ]	/* 11 values pushed */
0 3 4 7 8 9 12 15 16 17 18
MDAP[0]	/* MoveDirectAbsPt */
MDAP[0]	/* MoveDirectAbsPt */
MDAP[0]	/* MoveDirectAbsPt */
MDAP[0]	/* MoveDirectAbsPt */
MDAP[0]	/* MoveDirectAbsPt */
MDAP[0]	/* MoveDirectAbsPt */
MDAP[0]	/* MoveDirectAbsPt */
MDAP[0]	/* MoveDirectAbsPt */
MDAP[0]	/* MoveDirectAbsPt */
MDAP[0]	/* MoveDirectAbsPt */
MDAP[0]	/* MoveDirectAbsPt */
PUSHB[ ]	/* 1 value pushed */
64
SMD[ ]	/* SetMinimumDistance */
SVTCA[0]	/* SetFreedomAndProjectionVectorToAxis */
IUP[0]	/* InterpolateUntPts */
IUP[1]	/* InterpolateUntPts */";
};
width = 1978;
},
{
background = {
shapes = (
{
closed = 1;
nodes = (
(1869,1347,l),
(1898,1605,l),
(945,1605,l),
(-15,0,l),
(327,0,l),
(526,349,l),
(893,349,l),
(856,0,l),
(1746,0,l),
(1773,260,l),
(1164,260,l),
(1217,728,l),
(1759,728,l),
(1784,961,l),
(1240,961,l),
(1282,1347,l),
(1282,1347,l)
);
},
{
closed = 1;
nodes = (
(982,1119,l),
(916,571,l),
(652,571,l),
(652,571,l)
);
}
);
};
layerId = "32C958FF-0ECC-43B0-8A26-125B8B46EA2F";
shapes = (
{
closed = 1;
nodes = (
(327,0,l),
(526,349,l),
(893,349,l),
(856,0,l),
(1746,0,l),
(1773,260,l),
(1164,260,l),
(1217,728,l),
(1759,728,l),
(1784,961,l),
(1240,961,l),
(1282,1347,l),
(1869,1347,l),
(1898,1605,l),
(945,1605,l),
(-15,0,l)
);
},
{
closed = 1;
nodes = (
(982,1119,l),
(916,571,l),
(652,571,l)
);
}
);
userData = {
assembly = "SVTCA[0]	/* SetFreedomAndProjectionVectorToAxis */
PUSHB[ ]	/* 3 values pushed */
7 1 0
CALL[ ]	/* CallFunction */
PUSHB[ ]	/* 2 values pushed */
10 11
SHP[1]	/* ShiftPointByLastPoint */
SHP[1]	/* ShiftPointByLastPoint */
PUSHB[ ]	/* 2 values pushed */
4 12
MIRP[01001]	/* MoveIndirectRelPt */
PUSHB[ ]	/* 3 values pushed */
12 4 0
CALL[ ]	/* CallFunction */
PUSHB[ ]	/* 2 values pushed */
15 12
MIRP[01001]	/* MoveIndirectRelPt */
PUSHB[ ]	/* 5 values pushed */
9 18 7 12 13
CALL[ ]	/* CallFunction */
PUSHB[ ]	/* 1 value pushed */
16
SHP[1]	/* ShiftPointByLastPoint */
PUSHB[ ]	/* 2 values pushed */
9 9
MIRP[01001]	/* MoveIndirectRelPt */
PUSHB[ ]	/* 1 value pushed */
8
SHP[0]	/* ShiftPointByLastPoint */
PUSHB[ ]	/* 5 values pushed */
0 3 7 12 13
CALL[ ]	/* CallFunction */
PUSHB[ ]	/* 2 values pushed */
0 11
MIRP[01001]	/* MoveIndirectRelPt */
SVTCA[1]	/* SetFreedomAndProjectionVectorToAxis */
PUSHB[ ]	/* 1 value pushed */
19
MDAP[1]	/* MoveDirectAbsPt */
PUSHB[ ]	/* 1 value pushed */
11
MDRP[10110]	/* MoveDirectRelPt */
PUSHB[ ]	/* 2 values pushed */
10 19
MIRP[01001]	/* MoveIndirectRelPt */
PUSHB[ ]	/* 1 value pushed */
10
SRP0[ ]	/* SetRefPoint0 */
PUSHB[ ]	/* 1 value pushed */
20
MDRP[10110]	/* MoveDirectRelPt */
PUSHB[ ]	/* 1 value pushed */
54
SMD[ ]	/* SetMinimumDistance */
PUSHW[ ]	/* 3 values pushed */
14061 -8410 21
CALL[ ]	/* CallFunction */
SPVFS[ ]	/* SetPVectorFromStack */
PUSHB[ ]	/* 1 value pushed */
11
SRP0[ ]	/* SetRefPoint0 */
PUSHB[ ]	/* 1 value pushed */
12
MDRP[00000]	/* MoveDirectRelPt */
SFVTPV[ ]	/* SetFVectorToPVector */
PUSHB[ ]	/* 1 value pushed */
10
SRP0[ ]	/* SetRefPoint0 */
PUSHB[ ]	/* 1 value pushed */
17
MDRP[00000]	/* MoveDirectRelPt */
PUSHW[ ]	/* 3 values pushed */
16281 -1833 21
CALL[ ]	/* CallFunction */
SPVFS[ ]	/* SetPVectorFromStack */
SFVTCA[1]	/* SetFVectorToAxis */
PUSHB[ ]	/* 1 value pushed */
7
MDAP[0]	/* MoveDirectAbsPt */
PUSHB[ ]	/* 1 value pushed */
15
MDAP[0]	/* MoveDirectAbsPt */
PUSHB[ ]	/* 1 value pushed */
7
SRP0[ ]	/* SetRefPoint0 */
PUSHB[ ]	/* 2 values pushed */
4 32
MIRP[11001]	/* MoveIndirectRelPt */
PUSHB[ ]	/* 2 values pushed */
10 17
SFVTL[0]	/* SetFVectorToLine */
PUSHB[ ]	/* 1 value pushed */
15
SRP0[ ]	/* SetRefPoint0 */
PUSHB[ ]	/* 2 values pushed */
17 32
MIRP[11001]	/* MoveIndirectRelPt */
SFVTCA[1]	/* SetFVectorToAxis */
PUSHB[ ]	/* 1 value pushed */
4
SRP0[ ]	/* SetRefPoint0 */
PUSHB[ ]	/* 4 values pushed */
0 4 15 19
CALL[ ]	/* CallFunction */
PUSHB[ ]	/* 4 values pushed */
3 4 15 19
CALL[ ]	/* CallFunction */
PUSHB[ ]	/* 1 value pushed */
7
SRP0[ ]	/* SetRefPoint0 */
PUSHB[ ]	/* 4 values pushed */
8 7 17 19
CALL[ ]	/* CallFunction */
PUSHB[ ]	/* 1 value pushed */
10
SRP0[ ]	/* SetRefPoint0 */
PUSHB[ ]	/* 4 values pushed */
9 10 17 19
CALL[ ]	/* CallFunction */
PUSHB[ ]	/* 1 value pushed */
7
SRP0[ ]	/* SetRefPoint0 */
PUSHB[ ]	/* 4 values pushed */
16 7 17 19
CALL[ ]	/* CallFunction */
PUSHB[ ]	/* 1 value pushed */
10
SRP0[ ]	/* SetRefPoint0 */
PUSHB[ ]	/* 4 values pushed */
18 10 17 19
CALL[ ]	/* CallFunction */
SPVTCA[1]	/* SetPVectorToAxis */
SVTCA[0]	/* SetFreedomAndProjectionVectorToAxis */
PUSHB[ ]	/* 1 value pushed */
17
MDAP[0]	/* MoveDirectAbsPt */
SVTCA[1]	/* SetFreedomAndProjectionVectorToAxis */
NPUSHB[ ]	/* 11 values pushed */
0 3 4 7 8 9 12 15 16 17 18
MDAP[0]	/* MoveDirectAbsPt */
MDAP[0]	/* MoveDirectAbsPt */
MDAP[0]	/* MoveDirectAbsPt */
MDAP[0]	/* MoveDirectAbsPt */
MDAP[0]	/* MoveDirectAbsPt */
MDAP[0]	/* MoveDirectAbsPt */
MDAP[0]	/* MoveDirectAbsPt */
MDAP[0]	/* MoveDirectAbsPt */
MDAP[0]	/* MoveDirectAbsPt */
MDAP[0]	/* MoveDirectAbsPt */
MDAP[0]	/* MoveDirectAbsPt */
PUSHB[ ]	/* 1 value pushed */
64
SMD[ ]	/* SetMinimumDistance */
SVTCA[0]	/* SetFreedomAndProjectionVectorToAxis */
IUP[0]	/* InterpolateUntPts */
IUP[1]	/* InterpolateUntPts */";
};
width = 1858;
},
{
background = {
shapes = (
{
closed = 1;
nodes = (
(2001,1413,l),
(2024,1582,l),
(1049,1582,l),
(26,0,l),
(255,0,l),
(490,373,l),
(970,373,l),
(921,0,l),
(1830,0,l),
(1850,174,l),
(1139,174,l),
(1219,764,l),
(1838,764,l),
(1855,908,l),
(1237,908,l),
(1304,1413,l),
(1304,1413,l)
);
},
{
closed = 1;
nodes = (
(1098,1340,l),
(987,508,l),
(583,508,l),
(583,508,l)
);
}
);
};
layerId = "747E1C2D-2712-4BCE-A1EA-426133F593D6";
shapes = (
{
closed = 1;
nodes = (
(255,0,l),
(490,373,l),
(970,373,l),
(921,0,l),
(1830,0,l),
(1850,174,l),
(1139,174,l),
(1219,764,l),
(1838,764,l),
(1855,908,l),
(1237,908,l),
(1304,1413,l),
(2001,1413,l),
(2024,1582,l),
(1049,1582,l),
(26,0,l)
);
},
{
closed = 1;
nodes = (
(1098,1340,l),
(987,508,l),
(583,508,l)
);
}
);
userData = {
assembly = "SVTCA[0]	/* SetFreedomAndProjectionVectorToAxis */
PUSHB[ ]	/* 3 values pushed */
7 1 0
CALL[ ]	/* CallFunction */
PUSHB[ ]	/* 2 values pushed */
10 11
SHP[1]	/* ShiftPointByLastPoint */
SHP[1]	/* ShiftPointByLastPoint */
PUSHB[ ]	/* 2 values pushed */
4 9
MIRP[01001]	/* MoveIndirectRelPt */
PUSHB[ ]	/* 3 values pushed */
12 4 0
CALL[ ]	/* CallFunction */
PUSHB[ ]	/* 2 values pushed */
15 9
MIRP[01001]	/* MoveIndirectRelPt */
PUSHB[ ]	/* 5 values pushed */
9 18 7 12 13
CALL[ ]	/* CallFunction */
PUSHB[ ]	/* 1 value pushed */
16
SHP[1]	/* ShiftPointByLastPoint */
PUSHB[ ]	/* 2 values pushed */
9 7
MIRP[01001]	/* MoveIndirectRelPt */
PUSHB[ ]	/* 1 value pushed */
8
SHP[0]	/* ShiftPointByLastPoint */
PUSHB[ ]	/* 5 values pushed */
0 3 7 12 13
CALL[ ]	/* CallFunction */
PUSHB[ ]	/* 2 values pushed */
0 7
MIRP[01001]	/* MoveIndirectRelPt */
SVTCA[1]	/* SetFreedomAndProjectionVectorToAxis */
PUSHB[ ]	/* 1 value pushed */
19
MDAP[1]	/* MoveDirectAbsPt */
PUSHB[ ]	/* 1 value pushed */
11
MDRP[10110]	/* MoveDirectRelPt */
PUSHB[ ]	/* 2 values pushed */
10 17
MIRP[01001]	/* MoveIndirectRelPt */
PUSHB[ ]	/* 1 value pushed */
10
SRP0[ ]	/* SetRefPoint0 */
PUSHB[ ]	/* 1 value pushed */
20
MDRP[10110]	/* MoveDirectRelPt */
PUSHB[ ]	/* 1 value pushed */
54
SMD[ ]	/* SetMinimumDistance */
PUSHW[ ]	/* 3 values pushed */
13758 -8897 21
CALL[ ]	/* CallFunction */
SPVFS[ ]	/* SetPVectorFromStack */
PUSHB[ ]	/* 1 value pushed */
11
SRP0[ ]	/* SetRefPoint0 */
PUSHB[ ]	/* 1 value pushed */
12
MDRP[00000]	/* MoveDirectRelPt */
SFVTPV[ ]	/* SetFVectorToPVector */
PUSHB[ ]	/* 1 value pushed */
10
SRP0[ ]	/* SetRefPoint0 */
PUSHB[ ]	/* 1 value pushed */
17
MDRP[00000]	/* MoveDirectRelPt */
PUSHW[ ]	/* 3 values pushed */
16243 -2146 21
CALL[ ]	/* CallFunction */
SPVFS[ ]	/* SetPVectorFromStack */
SFVTCA[1]	/* SetFVectorToAxis */
PUSHB[ ]	/* 1 value pushed */
7
MDAP[0]	/* MoveDirectAbsPt */
PUSHB[ ]	/* 1 value pushed */
15
MDAP[0]	/* MoveDirectAbsPt */
PUSHB[ ]	/* 1 value pushed */
7
SRP0[ ]	/* SetRefPoint0 */
PUSHB[ ]	/* 2 values pushed */
4 31
MIRP[11001]	/* MoveIndirectRelPt */
PUSHB[ ]	/* 2 values pushed */
10 17
SFVTL[0]	/* SetFVectorToLine */
PUSHB[ ]	/* 1 value pushed */
15
SRP0[ ]	/* SetRefPoint0 */
PUSHB[ ]	/* 2 values pushed */
17 31
MIRP[11001]	/* MoveIndirectRelPt */
SFVTCA[1]	/* SetFVectorToAxis */
PUSHB[ ]	/* 1 value pushed */
4
SRP0[ ]	/* SetRefPoint0 */
PUSHB[ ]	/* 4 values pushed */
0 4 15 19
CALL[ ]	/* CallFunction */
PUSHB[ ]	/* 4 values pushed */
3 4 15 19
CALL[ ]	/* CallFunction */
PUSHB[ ]	/* 1 value pushed */
7
SRP0[ ]	/* SetRefPoint0 */
PUSHB[ ]	/* 4 values pushed */
8 7 17 19
CALL[ ]	/* CallFunction */
PUSHB[ ]	/* 1 value pushed */
10
SRP0[ ]	/* SetRefPoint0 */
PUSHB[ ]	/* 4 values pushed */
9 10 17 19
CALL[ ]	/* CallFunction */
PUSHB[ ]	/* 1 value pushed */
7
SRP0[ ]	/* SetRefPoint0 */
PUSHB[ ]	/* 4 values pushed */
16 7 17 19
CALL[ ]	/* CallFunction */
PUSHB[ ]	/* 1 value pushed */
10
SRP0[ ]	/* SetRefPoint0 */
PUSHB[ ]	/* 4 values pushed */
18 10 17 19
CALL[ ]	/* CallFunction */
SPVTCA[1]	/* SetPVectorToAxis */
SVTCA[0]	/* SetFreedomAndProjectionVectorToAxis */
PUSHB[ ]	/* 1 value pushed */
17
MDAP[0]	/* MoveDirectAbsPt */
SVTCA[1]	/* SetFreedomAndProjectionVectorToAxis */
NPUSHB[ ]	/* 11 values pushed */
0 3 4 7 8 9 12 15 16 17 18
MDAP[0]	/* MoveDirectAbsPt */
MDAP[0]	/* MoveDirectAbsPt */
MDAP[0]	/* MoveDirectAbsPt */
MDAP[0]	/* MoveDirectAbsPt */
MDAP[0]	/* MoveDirectAbsPt */
MDAP[0]	/* MoveDirectAbsPt */
MDAP[0]	/* MoveDirectAbsPt */
MDAP[0]	/* MoveDirectAbsPt */
MDAP[0]	/* MoveDirectAbsPt */
MDAP[0]	/* MoveDirectAbsPt */
MDAP[0]	/* MoveDirectAbsPt */
PUSHB[ ]	/* 1 value pushed */
64
SMD[ ]	/* SetMinimumDistance */
SVTCA[0]	/* SetFreedomAndProjectionVectorToAxis */
IUP[0]	/* InterpolateUntPts */
IUP[1]	/* InterpolateUntPts */";
};
width = 1943;
}
);
note = AE;
unicode = 198;
},
{
glyphname = AEacute;
lastChange = "2024-06-14 12:43:47 +0000";
layers = (
{
background = {
shapes = (
{
closed = 1;
nodes = (
(2057,1441,l),
(2076,1572,l),
(1092,1572,l),
(43,0,l),
(225,0,l),
(474,384,l),
(1003,384,l),
(948,0,l),
(1865,0,l),
(1883,138,l),
(1128,138,l),
(1220,779,l),
(1871,779,l),
(1884,886,l),
(1236,886,l),
(1314,1441,l),
(1314,1441,l)
);
},
{
closed = 1;
nodes = (
(1147,1432,l),
(1017,481,l),
(555,481,l),
(555,481,l)
);
}
);
};
layerId = m01;
shapes = (
{
ref = AE;
},
{
ref = acutecomb;
}
);
width = 1978;
},
{
background = {
shapes = (
{
closed = 1;
nodes = (
(1869,1347,l),
(1898,1605,l),
(945,1605,l),
(-15,0,l),
(327,0,l),
(526,349,l),
(893,349,l),
(856,0,l),
(1746,0,l),
(1773,260,l),
(1164,260,l),
(1217,728,l),
(1759,728,l),
(1784,961,l),
(1240,961,l),
(1282,1347,l),
(1282,1347,l)
);
},
{
closed = 1;
nodes = (
(982,1119,l),
(916,571,l),
(652,571,l),
(652,571,l)
);
}
);
};
layerId = "32C958FF-0ECC-43B0-8A26-125B8B46EA2F";
shapes = (
{
ref = AE;
},
{
ref = acutecomb;
}
);
width = 1858;
},
{
background = {
shapes = (
{
closed = 1;
nodes = (
(2001,1413,l),
(2024,1582,l),
(1049,1582,l),
(26,0,l),
(255,0,l),
(490,373,l),
(970,373,l),
(921,0,l),
(1830,0,l),
(1850,174,l),
(1139,174,l),
(1219,764,l),
(1838,764,l),
(1855,908,l),
(1237,908,l),
(1304,1413,l),
(1304,1413,l)
);
},
{
closed = 1;
nodes = (
(1098,1340,l),
(987,508,l),
(583,508,l),
(583,508,l)
);
}
);
};
layerId = "747E1C2D-2712-4BCE-A1EA-426133F593D6";
shapes = (
{
ref = AE;
},
{
ref = acutecomb;
}
);
width = 1943;
}
);
note = AEacute;
unicode = 508;
},
{
glyphname = B;
lastChange = "2024-06-14 12:43:58 +0000";
layers = (
{
anchors = (
{
name = bottom;
pos = (498,0);
},
{
name = center;
pos = (272,394);
},
{
name = top;
pos = (832,1572);
}
);
background = {
shapes = (
{
closed = 1;
nodes = (
(520,1439,l),
(684,1439,ls),
(901.175,1439,o),
(1132,1421.354,o),
(1132,1255,cs),
(1132,1116.333,o),
(1090.5,1030.667,o),
(1012.5,980,cs),
(934.5,929.333,o),
(818.333,913,o),
(669,913,cs),
(445,913,l),
(445,913,l)
);
},
{
closed = 1;
nodes = (
(429,789,l),
(662,789,ls),
(849.51,789,o),
(967.311,756.07,o),
(1024.5,702,cs),
(1081.391,648.212,o),
(1088,582.126,o),
(1088,518,cs),
(1088,368.667,o),
(1039,273.333,o),
(947,216,cs),
(855,158.667,o),
(720.333,138,o),
(551,138,cs),
(337,138,l),
(337,138,l)
);
},
{
closed = 1;
nodes = (
(1247,720.667,o),
(1147.333,834,o),
(922,862,c),
(1167.972,912.799,o),
(1281,1017.594,o),
(1281,1269,cs),
(1281,1479.342,o),
(1132.791,1577,o),
(701,1577,cs),
(367,1577,l),
(147,0,l),
(534,0,ls),
(759.333,0,o),
(937.5,38.333,o),
(1059.5,121,cs),
(1181.5,203.667,o),
(1247,332.667,o),
(1247,514,cs)
);
}
);
};
layerId = m01;
shapes = (
{
closed = 1;
nodes = (
(534,0,ls),
(759,0,o),
(938,38,o),
(1060,121,cs),
(1182,204,o),
(1247,333,o),
(1247,514,cs),
(1247,721,o),
(1147,834,o),
(922,862,c),
(1168,913,o),
(1281,1018,o),
(1281,1269,cs),
(1281,1479,o),
(1133,1577,o),
(701,1577,cs),
(367,1577,l),
(147,0,l)
);
},
{
closed = 1;
nodes = (
(337,138,l),
(429,789,l),
(662,789,ls),
(850,789,o),
(967,756,o),
(1025,702,cs),
(1081,648,o),
(1088,582,o),
(1088,518,cs),
(1088,369,o),
(1039,273,o),
(947,216,cs),
(855,159,o),
(720,138,o),
(551,138,cs),
(337,138,l)
);
},
{
closed = 1;
nodes = (
(445,913,l),
(520,1439,l),
(684,1439,ls),
(901,1439,o),
(1132,1421,o),
(1132,1255,cs),
(1132,1116,o),
(1091,1031,o),
(1013,980,cs),
(935,929,o),
(818,913,o),
(669,913,cs),
(445,913,l)
);
}
);
userData = {
assembly = "SVTCA[0]	/* SetFreedomAndProjectionVectorToAxis */
PUSHB[ ]	/* 3 values pushed */
34 1 0
CALL[ ]	/* CallFunction */
PUSHB[ ]	/* 2 values pushed */
27 5
MIRP[01001]	/* MoveIndirectRelPt */
PUSHB[ ]	/* 3 values pushed */
35 4 0
CALL[ ]	/* CallFunction */
PUSHB[ ]	/* 2 values pushed */
11 5
MIRP[01001]	/* MoveIndirectRelPt */
PUSHB[ ]	/* 5 values pushed */
12 26 34 35 13
CALL[ ]	/* CallFunction */
PUSHB[ ]	/* 2 values pushed */
12 9
MIRP[01001]	/* MoveIndirectRelPt */
SVTCA[1]	/* SetFreedomAndProjectionVectorToAxis */
PUSHB[ ]	/* 1 value pushed */
49
MDAP[1]	/* MoveDirectAbsPt */
PUSHB[ ]	/* 1 value pushed */
18
MDRP[10110]	/* MoveDirectRelPt */
PUSHB[ ]	/* 2 values pushed */
28 15
MIRP[01001]	/* MoveIndirectRelPt */
PUSHB[ ]	/* 1 value pushed */
28
SRP0[ ]	/* SetRefPoint0 */
PUSHB[ ]	/* 1 value pushed */
41
DUP[ ]	/* DuplicateTopStack */
MDRP[10110]	/* MoveDirectRelPt */
SRP1[ ]	/* SetRefPoint1 */
PUSHB[ ]	/* 2 values pushed */
5 14
MIRP[01001]	/* MoveIndirectRelPt */
PUSHB[ ]	/* 1 value pushed */
5
MDAP[1]	/* MoveDirectAbsPt */
PUSHB[ ]	/* 2 values pushed */
41 14
MIRP[01001]	/* MoveIndirectRelPt */
PUSHB[ ]	/* 1 value pushed */
28
SRP0[ ]	/* SetRefPoint0 */
PUSHB[ ]	/* 1 value pushed */
50
MDRP[10110]	/* MoveDirectRelPt */
PUSHB[ ]	/* 1 value pushed */
54
SMD[ ]	/* SetMinimumDistance */
PUSHW[ ]	/* 3 values pushed */
16227 -2264 21
CALL[ ]	/* CallFunction */
SPVFS[ ]	/* SetPVectorFromStack */
PUSHB[ ]	/* 1 value pushed */
34
MDAP[0]	/* MoveDirectAbsPt */
PUSHB[ ]	/* 1 value pushed */
11
MDAP[0]	/* MoveDirectAbsPt */
PUSHB[ ]	/* 1 value pushed */
34
SRP0[ ]	/* SetRefPoint0 */
PUSHB[ ]	/* 2 values pushed */
27 12
MIRP[11001]	/* MoveIndirectRelPt */
PUSHB[ ]	/* 1 value pushed */
11
SRP0[ ]	/* SetRefPoint0 */
PUSHB[ ]	/* 2 values pushed */
35 12
MIRP[11001]	/* MoveIndirectRelPt */
PUSHB[ ]	/* 1 value pushed */
27
SRP0[ ]	/* SetRefPoint0 */
PUSHB[ ]	/* 4 values pushed */
12 27 11 19
CALL[ ]	/* CallFunction */
PUSHB[ ]	/* 4 values pushed */
26 27 11 19
CALL[ ]	/* CallFunction */
SPVTCA[1]	/* SetPVectorToAxis */
PUSHB[ ]	/* 6 values pushed */
11 12 26 27 34 35
MDAP[0]	/* MoveDirectAbsPt */
MDAP[0]	/* MoveDirectAbsPt */
MDAP[0]	/* MoveDirectAbsPt */
MDAP[0]	/* MoveDirectAbsPt */
MDAP[0]	/* MoveDirectAbsPt */
MDAP[0]	/* MoveDirectAbsPt */
PUSHB[ ]	/* 1 value pushed */
64
SMD[ ]	/* SetMinimumDistance */
SVTCA[0]	/* SetFreedomAndProjectionVectorToAxis */
PUSHB[ ]	/* 2 values pushed */
26 27
SRP1[ ]	/* SetRefPoint1 */
SRP2[ ]	/* SetRefPoint2 */
PUSHB[ ]	/* 1 value pushed */
28
IP[ ]	/* InterpolatePts */
PUSHB[ ]	/* 1 value pushed */
12
SRP1[ ]	/* SetRefPoint1 */
PUSHB[ ]	/* 1 value pushed */
46
IP[ ]	/* InterpolatePts */
PUSHB[ ]	/* 1 value pushed */
11
SRP2[ ]	/* SetRefPoint2 */
PUSHB[ ]	/* 1 value pushed */
41
IP[ ]	/* InterpolatePts */
IUP[0]	/* InterpolateUntPts */
IUP[1]	/* InterpolateUntPts */";
};
width = 1240;
},
{
anchors = (
{
name = bottom;
pos = (566,0);
},
{
name = center;
pos = (309,402);
},
{
name = top;
pos = (907,1603);
}
);
background = {
shapes = (
{
closed = 1;
nodes = (
(591,1373,l),
(726,1373,ls),
(851.333,1373,o),
(927.833,1350.667,o),
(972.5,1316,cs),
(1017.167,1281.333,o),
(1030.333,1233.333,o),
(1029,1184,cs),
(1029,1124,o),
(1008.5,1066.5,o),
(954.5,1024.5,cs),
(900.5,982.5,o),
(812.333,955,o),
(679,955,cs),
(531,955,l),
(531,955,l)
);
},
{
closed = 1;
nodes = (
(498,731,l),
(678,731,ls),
(795.333,731,o),
(875.5,717.667,o),
(925.5,687,cs),
(975.5,656.333,o),
(997,609.333,o),
(997,540,cs),
(994.347,303.857,o),
(841.936,233,o),
(587,233,cs),
(427,233,l),
(427,233,l)
);
},
{
closed = 1;
nodes = (
(1316.68,721.859,o),
(1178.326,829.929,o),
(994,870,c),
(1214,910,o),
(1321.667,1026.333,o),
(1323,1233,cs),
(1324.333,1357,o),
(1276,1450.5,o),
(1172,1512.5,cs),
(1068,1574.5,o),
(908.667,1606,o),
(686,1606,cs),
(314,1606,l),
(75,0,l),
(529,0,ls),
(745,0,o),
(904,36.833,o),
(1020,93.5,cs),
(1078,121.833,o),
(1125.667,154.833,o),
(1163,192.5,cs),
(1237.667,267.833,o),
(1281.5,351.167,o),
(1299.5,434.5,cs),
(1308.5,476.167,o),
(1313.333,515.667,o),
(1314,553,cs)
);
}
);
};
layerId = "32C958FF-0ECC-43B0-8A26-125B8B46EA2F";
shapes = (
{
closed = 1;
nodes = (
(529,0,ls),
(745,0,o),
(904,37,o),
(1020,94,cs),
(1078,122,o),
(1126,155,o),
(1163,193,cs),
(1238,268,o),
(1282,351,o),
(1300,435,cs),
(1309,476,o),
(1313,516,o),
(1314,553,cs),
(1317,722,o),
(1178,830,o),
(994,870,c),
(1214,910,o),
(1322,1026,o),
(1323,1233,cs),
(1324,1357,o),
(1276,1451,o),
(1172,1513,cs),
(1068,1575,o),
(909,1606,o),
(686,1606,cs),
(314,1606,l),
(75,0,l)
);
},
{
closed = 1;
nodes = (
(427,233,l),
(498,731,l),
(678,731,ls),
(795,731,o),
(876,718,o),
(926,687,cs),
(976,656,o),
(997,609,o),
(997,540,cs),
(994,304,o),
(842,233,o),
(587,233,cs),
(427,233,l)
);
},
{
closed = 1;
nodes = (
(531,955,l),
(591,1373,l),
(726,1373,ls),
(851,1373,o),
(928,1351,o),
(973,1316,cs),
(1017,1281,o),
(1030,1233,o),
(1029,1184,cs),
(1029,1124,o),
(1009,1067,o),
(955,1025,cs),
(901,983,o),
(812,955,o),
(679,955,cs),
(531,955,l)
);
}
);
userData = {
assembly = "SVTCA[0]	/* SetFreedomAndProjectionVectorToAxis */
PUSHB[ ]	/* 3 values pushed */
33 1 0
CALL[ ]	/* CallFunction */
PUSHB[ ]	/* 1 value pushed */
34
SHP[1]	/* ShiftPointByLastPoint */
PUSHB[ ]	/* 2 values pushed */
25 11
MIRP[01001]	/* MoveIndirectRelPt */
PUSHB[ ]	/* 3 values pushed */
36 4 0
CALL[ ]	/* CallFunction */
PUSHB[ ]	/* 1 value pushed */
35
SHP[1]	/* ShiftPointByLastPoint */
PUSHB[ ]	/* 2 values pushed */
11 11
MIRP[01001]	/* MoveIndirectRelPt */
PUSHB[ ]	/* 5 values pushed */
12 24 33 36 13
CALL[ ]	/* CallFunction */
PUSHB[ ]	/* 2 values pushed */
12 9
MIRP[01001]	/* MoveIndirectRelPt */
SVTCA[1]	/* SetFreedomAndProjectionVectorToAxis */
PUSHB[ ]	/* 1 value pushed */
49
MDAP[1]	/* MoveDirectAbsPt */
PUSHB[ ]	/* 1 value pushed */
18
MDRP[10110]	/* MoveDirectRelPt */
PUSHB[ ]	/* 2 values pushed */
26 18
MIRP[01001]	/* MoveIndirectRelPt */
PUSHB[ ]	/* 1 value pushed */
41
SHP[0]	/* ShiftPointByLastPoint */
PUSHB[ ]	/* 1 value pushed */
26
SRP0[ ]	/* SetRefPoint0 */
PUSHB[ ]	/* 2 values pushed */
5 14
MIRP[01001]	/* MoveIndirectRelPt */
PUSHB[ ]	/* 1 value pushed */
5
MDAP[1]	/* MoveDirectAbsPt */
PUSHB[ ]	/* 1 value pushed */
26
SRP0[ ]	/* SetRefPoint0 */
PUSHB[ ]	/* 1 value pushed */
50
MDRP[10110]	/* MoveDirectRelPt */
PUSHB[ ]	/* 1 value pushed */
54
SMD[ ]	/* SetMinimumDistance */
PUSHW[ ]	/* 3 values pushed */
16206 -2412 21
CALL[ ]	/* CallFunction */
SPVFS[ ]	/* SetPVectorFromStack */
PUSHB[ ]	/* 1 value pushed */
34
MDAP[0]	/* MoveDirectAbsPt */
PUSHB[ ]	/* 1 value pushed */
11
MDAP[0]	/* MoveDirectAbsPt */
PUSHB[ ]	/* 1 value pushed */
34
SRP0[ ]	/* SetRefPoint0 */
PUSHB[ ]	/* 2 values pushed */
25 38
MIRP[11001]	/* MoveIndirectRelPt */
PUSHB[ ]	/* 1 value pushed */
11
SRP0[ ]	/* SetRefPoint0 */
PUSHB[ ]	/* 2 values pushed */
35 38
MIRP[11001]	/* MoveIndirectRelPt */
PUSHB[ ]	/* 1 value pushed */
25
SRP0[ ]	/* SetRefPoint0 */
PUSHB[ ]	/* 4 values pushed */
12 25 11 19
CALL[ ]	/* CallFunction */
PUSHB[ ]	/* 4 values pushed */
24 25 11 19
CALL[ ]	/* CallFunction */
SPVTCA[1]	/* SetPVectorToAxis */
PUSHB[ ]	/* 6 values pushed */
11 12 24 25 34 35
MDAP[0]	/* MoveDirectAbsPt */
MDAP[0]	/* MoveDirectAbsPt */
MDAP[0]	/* MoveDirectAbsPt */
MDAP[0]	/* MoveDirectAbsPt */
MDAP[0]	/* MoveDirectAbsPt */
MDAP[0]	/* MoveDirectAbsPt */
PUSHB[ ]	/* 1 value pushed */
64
SMD[ ]	/* SetMinimumDistance */
SVTCA[0]	/* SetFreedomAndProjectionVectorToAxis */
PUSHB[ ]	/* 2 values pushed */
12 24
SRP1[ ]	/* SetRefPoint1 */
SRP2[ ]	/* SetRefPoint2 */
PUSHB[ ]	/* 1 value pushed */
44
IP[ ]	/* InterpolatePts */
IUP[0]	/* InterpolateUntPts */
IUP[1]	/* InterpolateUntPts */";
};
width = 1372;
},
{
anchors = (
{
name = bottom;
pos = (519,0);
},
{
name = center;
pos = (283,397);
},
{
name = top;
pos = (855,1582);
}
);
background = {
shapes = (
{
closed = 1;
nodes = (
(541,1420,l),
(696,1420,ls),
(926.678,1420,o),
(1102,1380.662,o),
(1102,1234,cs),
(1102,1002.6,o),
(960.733,925,o),
(672,925,cs),
(471,925,l),
(471,925,l)
);
},
{
closed = 1;
nodes = (
(450,772,l),
(667,772,ls),
(841.667,772,o),
(940.333,743.5,o),
(995,697.5,cs),
(1049.667,651.5,o),
(1061,589.333,o),
(1061,524,cs),
(1061,384,o),
(1014.5,293.5,o),
(928.5,239.5,cs),
(842.5,185.5,o),
(718,166,o),
(562,166,cs),
(364,166,l),
(364,166,l)
);
},
{
closed = 1;
nodes = (
(1268.333,723.667,o),
(1159,833.333,o),
(943,864,c),
(1182.042,912.346,o),
(1293,1021.104,o),
(1293,1258,cs),
(1293,1368.667,o),
(1252.667,1450.333,o),
(1158,1505,cs),
(1063.333,1559.667,o),
(914.333,1586,o),
(697,1586,cs),
(351,1586,l),
(126,0,l),
(533,0,ls),
(786.333,0,o),
(970,50.167,o),
(1090,141.5,cs),
(1210,232.833,o),
(1267,363.667,o),
(1267,525,cs)
);
}
);
};
layerId = "747E1C2D-2712-4BCE-A1EA-426133F593D6";
shapes = (
{
closed = 1;
nodes = (
(533,0,ls),
(786,0,o),
(970,50,o),
(1090,142,cs),
(1210,233,o),
(1267,364,o),
(1267,525,cs),
(1268,724,o),
(1159,833,o),
(943,864,c),
(1182,912,o),
(1293,1021,o),
(1293,1258,cs),
(1293,1369,o),
(1253,1450,o),
(1158,1505,cs),
(1063,1560,o),
(914,1586,o),
(697,1586,cs),
(351,1586,l),
(126,0,l)
);
},
{
closed = 1;
nodes = (
(364,166,l),
(450,772,l),
(667,772,ls),
(842,772,o),
(940,744,o),
(995,698,cs),
(1050,652,o),
(1061,589,o),
(1061,524,cs),
(1061,384,o),
(1015,294,o),
(929,240,cs),
(843,186,o),
(718,166,o),
(562,166,cs),
(364,166,l)
);
},
{
closed = 1;
nodes = (
(471,925,l),
(541,1420,l),
(696,1420,ls),
(927,1420,o),
(1102,1381,o),
(1102,1234,cs),
(1102,1003,o),
(961,925,o),
(672,925,cs),
(471,925,l)
);
}
);
userData = {
assembly = "SVTCA[0]	/* SetFreedomAndProjectionVectorToAxis */
PUSHB[ ]	/* 3 values pushed */
31 1 0
CALL[ ]	/* CallFunction */
PUSHB[ ]	/* 1 value pushed */
32
SHP[1]	/* ShiftPointByLastPoint */
PUSHB[ ]	/* 2 values pushed */
25 5
MIRP[01001]	/* MoveIndirectRelPt */
PUSHB[ ]	/* 3 values pushed */
34 4 0
CALL[ ]	/* CallFunction */
PUSHB[ ]	/* 1 value pushed */
33
SHP[1]	/* ShiftPointByLastPoint */
PUSHB[ ]	/* 2 values pushed */
11 5
MIRP[01001]	/* MoveIndirectRelPt */
PUSHB[ ]	/* 5 values pushed */
12 24 31 34 13
CALL[ ]	/* CallFunction */
PUSHB[ ]	/* 2 values pushed */
12 8
MIRP[01001]	/* MoveIndirectRelPt */
SVTCA[1]	/* SetFreedomAndProjectionVectorToAxis */
PUSHB[ ]	/* 1 value pushed */
47
MDAP[1]	/* MoveDirectAbsPt */
PUSHB[ ]	/* 1 value pushed */
18
MDRP[10110]	/* MoveDirectRelPt */
PUSHB[ ]	/* 2 values pushed */
26 14
MIRP[01001]	/* MoveIndirectRelPt */
PUSHB[ ]	/* 1 value pushed */
26
SRP0[ ]	/* SetRefPoint0 */
PUSHB[ ]	/* 1 value pushed */
39
DUP[ ]	/* DuplicateTopStack */
MDRP[10110]	/* MoveDirectRelPt */
SRP1[ ]	/* SetRefPoint1 */
PUSHB[ ]	/* 2 values pushed */
5 13
MIRP[01001]	/* MoveIndirectRelPt */
PUSHB[ ]	/* 1 value pushed */
5
MDAP[1]	/* MoveDirectAbsPt */
PUSHB[ ]	/* 2 values pushed */
39 13
MIRP[01001]	/* MoveIndirectRelPt */
PUSHB[ ]	/* 1 value pushed */
26
SRP0[ ]	/* SetRefPoint0 */
PUSHB[ ]	/* 1 value pushed */
48
MDRP[10110]	/* MoveDirectRelPt */
PUSHB[ ]	/* 1 value pushed */
54
SMD[ ]	/* SetMinimumDistance */
PUSHW[ ]	/* 3 values pushed */
16222 -2301 21
CALL[ ]	/* CallFunction */
SPVFS[ ]	/* SetPVectorFromStack */
PUSHB[ ]	/* 1 value pushed */
32
MDAP[0]	/* MoveDirectAbsPt */
PUSHB[ ]	/* 1 value pushed */
11
MDAP[0]	/* MoveDirectAbsPt */
PUSHB[ ]	/* 1 value pushed */
32
SRP0[ ]	/* SetRefPoint0 */
PUSHB[ ]	/* 2 values pushed */
25 11
MIRP[11001]	/* MoveIndirectRelPt */
PUSHB[ ]	/* 1 value pushed */
11
SRP0[ ]	/* SetRefPoint0 */
PUSHB[ ]	/* 2 values pushed */
33 11
MIRP[11001]	/* MoveIndirectRelPt */
PUSHB[ ]	/* 1 value pushed */
25
SRP0[ ]	/* SetRefPoint0 */
PUSHB[ ]	/* 4 values pushed */
12 25 11 19
CALL[ ]	/* CallFunction */
PUSHB[ ]	/* 4 values pushed */
24 25 11 19
CALL[ ]	/* CallFunction */
SPVTCA[1]	/* SetPVectorToAxis */
PUSHB[ ]	/* 6 values pushed */
11 12 24 25 32 33
MDAP[0]	/* MoveDirectAbsPt */
MDAP[0]	/* MoveDirectAbsPt */
MDAP[0]	/* MoveDirectAbsPt */
MDAP[0]	/* MoveDirectAbsPt */
MDAP[0]	/* MoveDirectAbsPt */
MDAP[0]	/* MoveDirectAbsPt */
PUSHB[ ]	/* 1 value pushed */
64
SMD[ ]	/* SetMinimumDistance */
SVTCA[0]	/* SetFreedomAndProjectionVectorToAxis */
PUSHB[ ]	/* 2 values pushed */
12 24
SRP1[ ]	/* SetRefPoint1 */
SRP2[ ]	/* SetRefPoint2 */
PUSHB[ ]	/* 1 value pushed */
44
IP[ ]	/* InterpolatePts */
PUSHB[ ]	/* 1 value pushed */
11
SRP1[ ]	/* SetRefPoint1 */
PUSHB[ ]	/* 1 value pushed */
39
IP[ ]	/* InterpolatePts */
IUP[0]	/* InterpolateUntPts */
IUP[1]	/* InterpolateUntPts */";
};
width = 1279;
}
);
note = B;
unicode = 66;
},
{
glyphname = C;
lastChange = "2024-06-14 12:43:58 +0000";
layers = (
{
anchors = (
{
name = bottom;
pos = (462,0);
},
{
name = top;
pos = (796,1572);
}
);
background = {
shapes = (
{
closed = 1;
nodes = (
(219,160.455,o),
(391.141,-41,o),
(733,-41,cs),
(885.406,-41,o),
(1009.076,17.101,o),
(1160,78,c),
(1131,211,l),
(969.667,141.667,o),
(836,104,o),
(756,104,cs),
(521.333,104,o),
(401,241,o),
(401,541,cs),
(401,771.617,o),
(443.347,995.111,o),
(535.5,1170.5,cs),
(628.925,1348.309,o),
(780.245,1464,o),
(985,1464,cs),
(1061.928,1464,o),
(1142.964,1454.669,o),
(1301,1392,c),
(1364,1530,l),
(1264,1566,o),
(1189.667,1585.167,o),
(1127,1596.5,cs),
(1064.333,1607.833,o),
(1013.333,1609,o),
(960,1609,cs),
(730.865,1609,o),
(541.526,1479.042,o),
(414.5,1275,cs),
(289.776,1074.656,o),
(219,811.62,o),
(219,530,cs)
);
}
);
};
layerId = m01;
shapes = (
{
closed = 1;
nodes = (
(885,-41,o),
(1009,17,o),
(1160,78,c),
(1131,211,l),
(970,142,o),
(836,104,o),
(756,104,cs),
(521,104,o),
(401,241,o),
(401,541,cs),
(401,772,o),
(443,995,o),
(536,1171,cs),
(629,1348,o),
(780,1464,o),
(985,1464,cs),
(1062,1464,o),
(1143,1455,o),
(1301,1392,c),
(1364,1530,l),
(1264,1566,o),
(1190,1585,o),
(1127,1597,cs),
(1064,1608,o),
(1013,1609,o),
(960,1609,cs),
(731,1609,o),
(542,1479,o),
(415,1275,cs),
(290,1075,o),
(219,812,o),
(219,530,cs),
(219,160,o),
(391,-41,o),
(733,-41,cs)
);
}
);
userData = {
assembly = "SVTCA[0]	/* SetFreedomAndProjectionVectorToAxis */
PUSHB[ ]	/* 3 values pushed */
37 1 0
CALL[ ]	/* CallFunction */
PUSHB[ ]	/* 2 values pushed */
28 11
MIRP[01001]	/* MoveIndirectRelPt */
PUSHB[ ]	/* 3 values pushed */
7 4 0
CALL[ ]	/* CallFunction */
SVTCA[1]	/* SetFreedomAndProjectionVectorToAxis */
PUSHB[ ]	/* 1 value pushed */
42
MDAP[1]	/* MoveDirectAbsPt */
PUSHB[ ]	/* 1 value pushed */
0
MDRP[10110]	/* MoveDirectRelPt */
PUSHB[ ]	/* 2 values pushed */
25 17
MIRP[01001]	/* MoveIndirectRelPt */
PUSHB[ ]	/* 1 value pushed */
25
SRP0[ ]	/* SetRefPoint0 */
PUSHB[ ]	/* 1 value pushed */
43
MDRP[10110]	/* MoveDirectRelPt */
SVTCA[0]	/* SetFreedomAndProjectionVectorToAxis */
PUSHB[ ]	/* 2 values pushed */
28 37
SRP1[ ]	/* SetRefPoint1 */
SRP2[ ]	/* SetRefPoint2 */
PUSHB[ ]	/* 1 value pushed */
32
IP[ ]	/* InterpolatePts */
PUSHB[ ]	/* 1 value pushed */
7
SRP1[ ]	/* SetRefPoint1 */
PUSHB[ ]	/* 2 values pushed */
0 31
IP[ ]	/* InterpolatePts */
IP[ ]	/* InterpolatePts */
IUP[0]	/* InterpolateUntPts */
IUP[1]	/* InterpolateUntPts */";
};
width = 1168;
},
{
anchors = (
{
name = bottom;
pos = (502,0);
},
{
name = top;
pos = (843,1603);
}
);
background = {
shapes = (
{
closed = 1;
nodes = (
(144,353,o),
(200,201.333,o),
(296,104,cs),
(392,6.667,o),
(529.333,-38,o),
(692,-38,cs),
(792,-38,o),
(883,-22,o),
(959,2,cs),
(1035,26,o),
(1097,59.333,o),
(1141,94,c),
(1086,341,l),
(1039.732,313.784,o),
(899.165,232,o),
(745,232,cs),
(557,232,o),
(463,353,o),
(463,595,cs),
(463,819,o),
(504.667,1009.5,o),
(582,1143.5,cs),
(659.333,1277.5,o),
(769.333,1356,o),
(908,1356,cs),
(1112.406,1356,o),
(1155.404,1278.266,o),
(1235,1265,c),
(1341,1522,l),
(1307.066,1536.139,o),
(1294.041,1551.625,o),
(1216,1580.5,cs),
(1149.333,1605.167,o),
(1058,1629,o),
(942,1629,cs),
(750,1629,o),
(596.5,1573.667,o),
(478.5,1479,cs),
(419.5,1431.667,o),
(368.833,1375,o),
(326.5,1309,cs),
(197.925,1108.544,o),
(144,849.063,o),
(144,565,cs)
);
}
);
};
layerId = "32C958FF-0ECC-43B0-8A26-125B8B46EA2F";
shapes = (
{
closed = 1;
nodes = (
(792,-38,o),
(883,-22,o),
(959,2,cs),
(1035,26,o),
(1097,59,o),
(1141,94,c),
(1086,341,l),
(1040,314,o),
(899,232,o),
(745,232,cs),
(557,232,o),
(463,353,o),
(463,595,cs),
(463,819,o),
(505,1010,o),
(582,1144,cs),
(659,1278,o),
(769,1356,o),
(908,1356,cs),
(1112,1356,o),
(1155,1278,o),
(1235,1265,c),
(1341,1522,l),
(1307,1536,o),
(1294,1552,o),
(1216,1581,cs),
(1149,1605,o),
(1058,1629,o),
(942,1629,cs),
(750,1629,o),
(597,1574,o),
(479,1479,cs),
(420,1432,o),
(369,1375,o),
(327,1309,cs),
(198,1109,o),
(144,849,o),
(144,565,cs),
(144,353,o),
(200,201,o),
(296,104,cs),
(392,7,o),
(529,-38,o),
(692,-38,cs)
);
}
);
userData = {
assembly = "SVTCA[0]	/* SetFreedomAndProjectionVectorToAxis */
PUSHB[ ]	/* 3 values pushed */
36 1 0
CALL[ ]	/* CallFunction */
PUSHB[ ]	/* 2 values pushed */
25 13
MIRP[01001]	/* MoveIndirectRelPt */
PUSHB[ ]	/* 1 value pushed */
18
MDAP[1]	/* MoveDirectAbsPt */
PUSHB[ ]	/* 2 values pushed */
7 13
MIRP[01001]	/* MoveIndirectRelPt */
SVTCA[1]	/* SetFreedomAndProjectionVectorToAxis */
PUSHB[ ]	/* 1 value pushed */
41
MDAP[1]	/* MoveDirectAbsPt */
PUSHB[ ]	/* 1 value pushed */
0
MDRP[10110]	/* MoveDirectRelPt */
PUSHB[ ]	/* 2 values pushed */
23 18
MIRP[01001]	/* MoveIndirectRelPt */
PUSHB[ ]	/* 1 value pushed */
23
SRP0[ ]	/* SetRefPoint0 */
PUSHB[ ]	/* 1 value pushed */
42
MDRP[10110]	/* MoveDirectRelPt */
SVTCA[0]	/* SetFreedomAndProjectionVectorToAxis */
PUSHB[ ]	/* 2 values pushed */
25 36
SRP1[ ]	/* SetRefPoint1 */
SRP2[ ]	/* SetRefPoint2 */
PUSHB[ ]	/* 1 value pushed */
31
IP[ ]	/* InterpolatePts */
PUSHB[ ]	/* 1 value pushed */
18
SRP1[ ]	/* SetRefPoint1 */
PUSHB[ ]	/* 3 values pushed */
0 13 30
IP[ ]	/* InterpolatePts */
IP[ ]	/* InterpolatePts */
IP[ ]	/* InterpolatePts */
PUSHB[ ]	/* 1 value pushed */
7
SRP2[ ]	/* SetRefPoint2 */
PUSHB[ ]	/* 1 value pushed */
12
IP[ ]	/* InterpolatePts */
IUP[0]	/* InterpolateUntPts */
IUP[1]	/* InterpolateUntPts */";
};
width = 1244;
},
{
anchors = (
{
name = bottom;
pos = (474,0);
},
{
name = top;
pos = (810,1582);
}
);
background = {
shapes = (
{
closed = 1;
nodes = (
(197,157,o),
(382.333,-40,o),
(721,-40,cs),
(887.659,-40,o),
(1021.735,19.513,o),
(1154,83,c),
(1118,250,l),
(987.346,192.839,o),
(852.866,142,o),
(752,142,cs),
(532,142,o),
(419,274.333,o),
(419,557,cs),
(419,794.135,o),
(463.138,1001.509,o),
(549,1162.5,cs),
(637.925,1329.235,o),
(777.677,1432,o),
(962,1432,cs),
(1070,1432,o),
(1167.333,1399.333,o),
(1282,1354,c),
(1357,1528,l),
(1206.623,1580.764,o),
(1099.979,1615,o),
(955,1615,cs),
(708.55,1615,o),
(517.137,1489.091,o),
(388.5,1285.5,cs),
(266.037,1091.681,o),
(197,831.014,o),
(197,541,cs)
);
}
);
};
layerId = "747E1C2D-2712-4BCE-A1EA-426133F593D6";
shapes = (
{
closed = 1;
nodes = (
(888,-40,o),
(1022,20,o),
(1154,83,c),
(1118,250,l),
(987,193,o),
(853,142,o),
(752,142,cs),
(532,142,o),
(419,274,o),
(419,557,cs),
(419,794,o),
(463,1002,o),
(549,1163,cs),
(638,1329,o),
(778,1432,o),
(962,1432,cs),
(1070,1432,o),
(1167,1399,o),
(1282,1354,c),
(1357,1528,l),
(1207,1581,o),
(1100,1615,o),
(955,1615,cs),
(709,1615,o),
(517,1489,o),
(389,1286,cs),
(266,1092,o),
(197,831,o),
(197,541,cs),
(197,157,o),
(382,-40,o),
(721,-40,cs)
);
}
);
userData = {
assembly = "SVTCA[0]	/* SetFreedomAndProjectionVectorToAxis */
PUSHB[ ]	/* 3 values pushed */
37 1 0
CALL[ ]	/* CallFunction */
PUSHB[ ]	/* 2 values pushed */
26 10
MIRP[01001]	/* MoveIndirectRelPt */
PUSHB[ ]	/* 3 values pushed */
7 4 0
CALL[ ]	/* CallFunction */
PUSHB[ ]	/* 2 values pushed */
16 10
MIRP[01001]	/* MoveIndirectRelPt */
PUSHB[ ]	/* 1 value pushed */
15
SHP[0]	/* ShiftPointByLastPoint */
PUSHB[ ]	/* 4 values pushed */
31 37 7 8
CALL[ ]	/* CallFunction */
PUSHB[ ]	/* 4 values pushed */
13 37 7 8
CALL[ ]	/* CallFunction */
SVTCA[1]	/* SetFreedomAndProjectionVectorToAxis */
PUSHB[ ]	/* 1 value pushed */
40
MDAP[1]	/* MoveDirectAbsPt */
PUSHB[ ]	/* 1 value pushed */
0
MDRP[10110]	/* MoveDirectRelPt */
PUSHB[ ]	/* 2 values pushed */
23 17
MIRP[01001]	/* MoveIndirectRelPt */
PUSHB[ ]	/* 1 value pushed */
23
SRP0[ ]	/* SetRefPoint0 */
PUSHB[ ]	/* 3 values pushed */
0 32 16
CALL[ ]	/* CallFunction */
PUSHB[ ]	/* 2 values pushed */
12 1
CALL[ ]	/* CallFunction */
PUSHB[ ]	/* 1 value pushed */
41
MDRP[10110]	/* MoveDirectRelPt */
PUSHB[ ]	/* 1 value pushed */
54
SMD[ ]	/* SetMinimumDistance */
PUSHB[ ]	/* 1 value pushed */
38
SMD[ ]	/* SetMinimumDistance */
SVTCA[1]	/* SetFreedomAndProjectionVectorToAxis */
PUSHB[ ]	/* 2 values pushed */
31 32
MDAP[0]	/* MoveDirectAbsPt */
MDRP[01001]	/* MoveDirectRelPt */
SVTCA[0]	/* SetFreedomAndProjectionVectorToAxis */
PUSHB[ ]	/* 2 values pushed */
32 31
MDAP[0]	/* MoveDirectAbsPt */
MDRP[01001]	/* MoveDirectRelPt */
PUSHB[ ]	/* 1 value pushed */
54
SMD[ ]	/* SetMinimumDistance */
PUSHW[ ]	/* 3 values pushed */
6819 -14898 21
CALL[ ]	/* CallFunction */
SPVFS[ ]	/* SetPVectorFromStack */
SFVTPV[ ]	/* SetFVectorToPVector */
PUSHB[ ]	/* 1 value pushed */
31
SRP0[ ]	/* SetRefPoint0 */
PUSHB[ ]	/* 1 value pushed */
29
MDRP[00000]	/* MoveDirectRelPt */
PUSHB[ ]	/* 1 value pushed */
32
SRP0[ ]	/* SetRefPoint0 */
PUSHB[ ]	/* 1 value pushed */
34
MDRP[00000]	/* MoveDirectRelPt */
PUSHB[ ]	/* 1 value pushed */
38
SMD[ ]	/* SetMinimumDistance */
SVTCA[1]	/* SetFreedomAndProjectionVectorToAxis */
PUSHB[ ]	/* 2 values pushed */
13 12
MDAP[0]	/* MoveDirectAbsPt */
MDRP[01001]	/* MoveDirectRelPt */
SVTCA[0]	/* SetFreedomAndProjectionVectorToAxis */
PUSHB[ ]	/* 2 values pushed */
12 13
MDAP[0]	/* MoveDirectAbsPt */
MDRP[01001]	/* MoveDirectRelPt */
PUSHB[ ]	/* 1 value pushed */
54
SMD[ ]	/* SetMinimumDistance */
PUSHW[ ]	/* 3 values pushed */
-5247 -15521 21
CALL[ ]	/* CallFunction */
SPVFS[ ]	/* SetPVectorFromStack */
SFVTCA[1]	/* SetFVectorToAxis */
PUSHB[ ]	/* 1 value pushed */
13
SRP0[ ]	/* SetRefPoint0 */
PUSHB[ ]	/* 1 value pushed */
15
MDRP[00000]	/* MoveDirectRelPt */
SFVTPV[ ]	/* SetFVectorToPVector */
PUSHB[ ]	/* 1 value pushed */
12
SRP0[ ]	/* SetRefPoint0 */
PUSHB[ ]	/* 1 value pushed */
9
MDRP[00000]	/* MoveDirectRelPt */
PUSHB[ ]	/* 1 value pushed */
9
SRP0[ ]	/* SetRefPoint0 */
PUSHB[ ]	/* 4 values pushed */
10 9 12 19
CALL[ ]	/* CallFunction */
PUSHB[ ]	/* 4 values pushed */
11 9 12 19
CALL[ ]	/* CallFunction */
PUSHB[ ]	/* 1 value pushed */
15
SRP0[ ]	/* SetRefPoint0 */
PUSHB[ ]	/* 4 values pushed */
14 15 13 19
CALL[ ]	/* CallFunction */
PUSHW[ ]	/* 3 values pushed */
6264 -15139 21
CALL[ ]	/* CallFunction */
SFVFS[ ]	/* SetFVectorFromStack */
PUSHB[ ]	/* 1 value pushed */
29
SRP0[ ]	/* SetRefPoint0 */
PUSHB[ ]	/* 4 values pushed */
30 29 31 19
CALL[ ]	/* CallFunction */
PUSHB[ ]	/* 1 value pushed */
34
SRP0[ ]	/* SetRefPoint0 */
PUSHB[ ]	/* 4 values pushed */
33 34 32 19
CALL[ ]	/* CallFunction */
PUSHB[ ]	/* 3 values pushed */
30 29 31
DUP[ ]	/* DuplicateTopStack */
ROLL[ ]	/* RollTopThreeStack */
DUP[ ]	/* DuplicateTopStack */
ROLL[ ]	/* RollTopThreeStack */
SWAP[ ]	/* SwapTopStack */
SPVTL[0]	/* SetPVectorToLine */
SFVTPV[ ]	/* SetFVectorToPVector */
SRP1[ ]	/* SetRefPoint1 */
SRP2[ ]	/* SetRefPoint2 */
IP[ ]	/* InterpolatePts */
PUSHB[ ]	/* 3 values pushed */
33 34 32
SRP1[ ]	/* SetRefPoint1 */
SRP2[ ]	/* SetRefPoint2 */
IP[ ]	/* InterpolatePts */
PUSHB[ ]	/* 3 values pushed */
10 9 12
DUP[ ]	/* DuplicateTopStack */
ROLL[ ]	/* RollTopThreeStack */
DUP[ ]	/* DuplicateTopStack */
ROLL[ ]	/* RollTopThreeStack */
SWAP[ ]	/* SwapTopStack */
SPVTL[0]	/* SetPVectorToLine */
SFVTPV[ ]	/* SetFVectorToPVector */
SRP1[ ]	/* SetRefPoint1 */
SRP2[ ]	/* SetRefPoint2 */
IP[ ]	/* InterpolatePts */
PUSHB[ ]	/* 1 value pushed */
11
IP[ ]	/* InterpolatePts */
PUSHB[ ]	/* 3 values pushed */
14 15 13
SRP1[ ]	/* SetRefPoint1 */
SRP2[ ]	/* SetRefPoint2 */
IP[ ]	/* InterpolatePts */
SVTCA[0]	/* SetFreedomAndProjectionVectorToAxis */
PUSHB[ ]	/* 8 values pushed */
9 10 11 14 29 30 33 34
MDAP[0]	/* MoveDirectAbsPt */
MDAP[0]	/* MoveDirectAbsPt */
MDAP[0]	/* MoveDirectAbsPt */
MDAP[0]	/* MoveDirectAbsPt */
MDAP[0]	/* MoveDirectAbsPt */
MDAP[0]	/* MoveDirectAbsPt */
MDAP[0]	/* MoveDirectAbsPt */
MDAP[0]	/* MoveDirectAbsPt */
SVTCA[1]	/* SetFreedomAndProjectionVectorToAxis */
NPUSHB[ ]	/* 9 values pushed */
9 10 11 14 15 29 30 33 34
MDAP[0]	/* MoveDirectAbsPt */
MDAP[0]	/* MoveDirectAbsPt */
MDAP[0]	/* MoveDirectAbsPt */
MDAP[0]	/* MoveDirectAbsPt */
MDAP[0]	/* MoveDirectAbsPt */
MDAP[0]	/* MoveDirectAbsPt */
MDAP[0]	/* MoveDirectAbsPt */
MDAP[0]	/* MoveDirectAbsPt */
MDAP[0]	/* MoveDirectAbsPt */
PUSHB[ ]	/* 1 value pushed */
64
SMD[ ]	/* SetMinimumDistance */
SVTCA[1]	/* SetFreedomAndProjectionVectorToAxis */
SVTCA[0]	/* SetFreedomAndProjectionVectorToAxis */
PUSHB[ ]	/* 2 values pushed */
13 31
SRP1[ ]	/* SetRefPoint1 */
SRP2[ ]	/* SetRefPoint2 */
PUSHB[ ]	/* 2 values pushed */
0 23
IP[ ]	/* InterpolatePts */
IP[ ]	/* InterpolatePts */
IUP[0]	/* InterpolateUntPts */
IUP[1]	/* InterpolateUntPts */";
};
width = 1190;
}
);
note = C;
unicode = 67;
},
{
glyphname = Cacute;
lastChange = "2024-06-14 12:47:36 +0000";
layers = (
{
background = {
shapes = (
{
closed = 1;
nodes = (
(219,160.455,o),
(391.141,-41,o),
(733,-41,cs),
(885.406,-41,o),
(1009.076,17.101,o),
(1160,78,c),
(1131,211,l),
(969.667,141.667,o),
(836,104,o),
(756,104,cs),
(521.333,104,o),
(401,241,o),
(401,541,cs),
(401,771.617,o),
(443.347,995.111,o),
(535.5,1170.5,cs),
(628.925,1348.309,o),
(780.245,1464,o),
(985,1464,cs),
(1061.928,1464,o),
(1142.964,1454.669,o),
(1301,1392,c),
(1364,1530,l),
(1264,1566,o),
(1189.667,1585.167,o),
(1127,1596.5,cs),
(1064.333,1607.833,o),
(1013.333,1609,o),
(960,1609,cs),
(730.865,1609,o),
(541.526,1479.042,o),
(414.5,1275,cs),
(289.776,1074.656,o),
(219,811.62,o),
(219,530,cs)
);
}
);
};
layerId = m01;
shapes = (
{
ref = C;
},
{
pos = (43,426);
ref = acutecomb;
}
);
width = 1168;
},
{
background = {
shapes = (
{
closed = 1;
nodes = (
(144,353,o),
(200,201.333,o),
(296,104,cs),
(392,6.667,o),
(529.333,-38,o),
(692,-38,cs),
(792,-38,o),
(883,-22,o),
(959,2,cs),
(1035,26,o),
(1097,59.333,o),
(1141,94,c),
(1086,341,l),
(1039.732,313.784,o),
(899.165,232,o),
(745,232,cs),
(557,232,o),
(463,353,o),
(463,595,cs),
(463,819,o),
(504.667,1009.5,o),
(582,1143.5,cs),
(659.333,1277.5,o),
(769.333,1356,o),
(908,1356,cs),
(1112.406,1356,o),
(1155.404,1278.266,o),
(1235,1265,c),
(1341,1522,l),
(1307.066,1536.139,o),
(1294.041,1551.625,o),
(1216,1580.5,cs),
(1149.333,1605.167,o),
(1058,1629,o),
(942,1629,cs),
(750,1629,o),
(596.5,1573.667,o),
(478.5,1479,cs),
(419.5,1431.667,o),
(368.833,1375,o),
(326.5,1309,cs),
(197.925,1108.544,o),
(144,849.063,o),
(144,565,cs)
);
},
{
closed = 1;
nodes = (
(1460,2290,l),
(1169,2381,l),
(924,1770,l),
(1063,1744,l),
(1063,1744,l)
);
}
);
};
layerId = "32C958FF-0ECC-43B0-8A26-125B8B46EA2F";
shapes = (
{
ref = C;
},
{
pos = (-52,477);
ref = acutecomb;
}
);
width = 1244;
},
{
background = {
shapes = (
{
closed = 1;
nodes = (
(197,157,o),
(382.333,-40,o),
(721,-40,cs),
(887.659,-40,o),
(1021.735,19.513,o),
(1154,83,c),
(1118,250,l),
(987.346,192.839,o),
(852.866,142,o),
(752,142,cs),
(532,142,o),
(419,274.333,o),
(419,557,cs),
(419,794.135,o),
(463.138,1001.509,o),
(549,1162.5,cs),
(637.925,1329.235,o),
(777.677,1432,o),
(962,1432,cs),
(1070,1432,o),
(1167.333,1399.333,o),
(1282,1354,c),
(1357,1528,l),
(1206.623,1580.764,o),
(1099.979,1615,o),
(955,1615,cs),
(708.55,1615,o),
(517.137,1489.091,o),
(388.5,1285.5,cs),
(266.037,1091.681,o),
(197,831.014,o),
(197,541,cs)
);
},
{
closed = 1;
nodes = (
(1223,2382,l),
(1035,1743,l),
(1184,1743,l),
(1499,2382,l),
(1499,2382,l)
);
}
);
};
layerId = "747E1C2D-2712-4BCE-A1EA-426133F593D6";
shapes = (
{
ref = C;
},
{
pos = (160,442);
ref = acutecomb;
}
);
width = 1190;
}
);
note = Cacute;
unicode = 262;
},
{
glyphname = Ccaron;
lastChange = "2024-06-14 12:43:47 +0000";
layers = (
{
background = {
shapes = (
{
closed = 1;
nodes = (
(219,160.455,o),
(391.141,-41,o),
(733,-41,cs),
(885.406,-41,o),
(1009.076,17.101,o),
(1160,78,c),
(1131,211,l),
(969.667,141.667,o),
(836,104,o),
(756,104,cs),
(521.333,104,o),
(401,241,o),
(401,541,cs),
(401,771.617,o),
(443.347,995.111,o),
(535.5,1170.5,cs),
(628.925,1348.309,o),
(780.245,1464,o),
(985,1464,cs),
(1061.928,1464,o),
(1142.964,1454.669,o),
(1301,1392,c),
(1364,1530,l),
(1264,1566,o),
(1189.667,1585.167,o),
(1127,1596.5,cs),
(1064.333,1607.833,o),
(1013.333,1609,o),
(960,1609,cs),
(730.865,1609,o),
(541.526,1479.042,o),
(414.5,1275,cs),
(289.776,1074.656,o),
(219,811.62,o),
(219,530,cs)
);
}
);
};
layerId = m01;
shapes = (
{
ref = C;
},
{
pos = (260,426);
ref = caroncomb;
}
);
width = 1168;
},
{
background = {
shapes = (
{
closed = 1;
nodes = (
(144,353,o),
(200,201.333,o),
(296,104,cs),
(392,6.667,o),
(529.333,-38,o),
(692,-38,cs),
(792,-38,o),
(883,-22,o),
(959,2,cs),
(1035,26,o),
(1097,59.333,o),
(1141,94,c),
(1086,341,l),
(1039.732,313.784,o),
(899.165,232,o),
(745,232,cs),
(557,232,o),
(463,353,o),
(463,595,cs),
(463,819,o),
(504.667,1009.5,o),
(582,1143.5,cs),
(659.333,1277.5,o),
(769.333,1356,o),
(908,1356,cs),
(1112.406,1356,o),
(1155.404,1278.266,o),
(1235,1265,c),
(1341,1522,l),
(1307.066,1536.139,o),
(1294.041,1551.625,o),
(1216,1580.5,cs),
(1149.333,1605.167,o),
(1058,1629,o),
(942,1629,cs),
(750,1629,o),
(596.5,1573.667,o),
(478.5,1479,cs),
(419.5,1431.667,o),
(368.833,1375,o),
(326.5,1309,cs),
(197.925,1108.544,o),
(144,849.063,o),
(144,565,cs)
);
},
{
closed = 1;
nodes = (
(1220,2404,l),
(1073,2084,l),
(1004,2404,l),
(761,2404,l),
(931,1765,l),
(1150,1765,l),
(1476,2404,l),
(1476,2404,l)
);
}
);
};
layerId = "32C958FF-0ECC-43B0-8A26-125B8B46EA2F";
shapes = (
{
ref = C;
},
{
pos = (116,477);
ref = caroncomb;
}
);
width = 1244;
},
{
background = {
shapes = (
{
closed = 1;
nodes = (
(197,157,o),
(382.333,-40,o),
(721,-40,cs),
(887.659,-40,o),
(1021.735,19.513,o),
(1154,83,c),
(1118,250,l),
(987.346,192.839,o),
(852.866,142,o),
(752,142,cs),
(532,142,o),
(419,274.333,o),
(419,557,cs),
(419,794.135,o),
(463.138,1001.509,o),
(549,1162.5,cs),
(637.925,1329.235,o),
(777.677,1432,o),
(962,1432,cs),
(1070,1432,o),
(1167.333,1399.333,o),
(1282,1354,c),
(1357,1528,l),
(1206.623,1580.764,o),
(1099.979,1615,o),
(955,1615,cs),
(708.55,1615,o),
(517.137,1489.091,o),
(388.5,1285.5,cs),
(266.037,1091.681,o),
(197,831.014,o),
(197,541,cs)
);
},
{
closed = 1;
nodes = (
(1275,2281,l),
(1094,1963,l),
(1029,2281,l),
(866,2281,l),
(984,1723,l),
(1124,1723,l),
(1458,2281,l),
(1458,2281,l)
);
}
);
};
layerId = "747E1C2D-2712-4BCE-A1EA-426133F593D6";
shapes = (
{
ref = C;
},
{
pos = (213,442);
ref = caroncomb;
}
);
width = 1190;
}
);
note = Ccaron;
unicode = 268;
},
{
glyphname = Ccedilla;
lastChange = "2024-06-14 12:43:47 +0000";
layers = (
{
background = {
shapes = (
{
closed = 1;
nodes = (
(219,160.455,o),
(391.141,-41,o),
(733,-41,cs),
(885.406,-41,o),
(1009.076,17.101,o),
(1160,78,c),
(1131,211,l),
(969.667,141.667,o),
(836,104,o),
(756,104,cs),
(521.333,104,o),
(401,241,o),
(401,541,cs),
(401,771.617,o),
(443.347,995.111,o),
(535.5,1170.5,cs),
(628.925,1348.309,o),
(780.245,1464,o),
(985,1464,cs),
(1061.928,1464,o),
(1142.964,1454.669,o),
(1301,1392,c),
(1364,1530,l),
(1264,1566,o),
(1189.667,1585.167,o),
(1127,1596.5,cs),
(1064.333,1607.833,o),
(1013.333,1609,o),
(960,1609,cs),
(730.865,1609,o),
(541.526,1479.042,o),
(414.5,1275,cs),
(289.776,1074.656,o),
(219,811.62,o),
(219,530,cs)
);
},
{
closed = 1;
nodes = (
(616,-559,o),
(673,-578,o),
(745,-578,cs),
(884,-578,o),
(1011,-481,o),
(1011,-328,cs),
(1011,-330,ls),
(1011,-180,o),
(841,-150,o),
(742,-150,c),
(743,-145,o),
(750,-128,o),
(762,-99,cs),
(773,-70,o),
(790,-30,o),
(813,23,c),
(699,23,l),
(620,-238,l),
(803,-238,o),
(891,-295,o),
(891,-350,cs),
(891,-395,o),
(861,-466,o),
(753,-466,cs),
(740,-466,o),
(727,-465,o),
(712,-463,cs),
(671,-456,o),
(622,-442,o),
(571,-417,c),
(569,-489,ls),
(568,-502,o),
(567,-515,o),
(567,-528,c)
);
}
);
};
layerId = m01;
shapes = (
{
ref = C;
},
{
pos = (121,0);
ref = cedillacomb;
}
);
width = 1168;
},
{
background = {
shapes = (
{
closed = 1;
nodes = (
(144,353,o),
(200,201.333,o),
(296,104,cs),
(392,6.667,o),
(529.333,-38,o),
(692,-38,cs),
(792,-38,o),
(883,-22,o),
(959,2,cs),
(1035,26,o),
(1097,59.333,o),
(1141,94,c),
(1086,341,l),
(1039.732,313.784,o),
(899.165,232,o),
(745,232,cs),
(557,232,o),
(463,353,o),
(463,595,cs),
(463,819,o),
(504.667,1009.5,o),
(582,1143.5,cs),
(659.333,1277.5,o),
(769.333,1356,o),
(908,1356,cs),
(1112.406,1356,o),
(1155.404,1278.266,o),
(1235,1265,c),
(1341,1522,l),
(1307.066,1536.139,o),
(1294.041,1551.625,o),
(1216,1580.5,cs),
(1149.333,1605.167,o),
(1058,1629,o),
(942,1629,cs),
(750,1629,o),
(596.5,1573.667,o),
(478.5,1479,cs),
(419.5,1431.667,o),
(368.833,1375,o),
(326.5,1309,cs),
(197.925,1108.544,o),
(144,849.063,o),
(144,565,cs)
);
},
{
closed = 1;
nodes = (
(558,-582,o),
(630,-620,o),
(727,-620,cs),
(910,-620,o),
(1012,-528,o),
(1028,-347,cs),
(1028,-342,o),
(1028,-337,o),
(1029,-332,cs),
(1029,-327,o),
(1029,-322,o),
(1028,-317,cs),
(1026,-236,o),
(979,-179,o),
(916,-147,cs),
(851,-116,o),
(786,-105,o),
(740,-105,c),
(747,-77,o),
(753,-48,o),
(760,-19,cs),
(767,10,o),
(774,41,o),
(782,73,c),
(667,73,l),
(618,-195,l),
(771,-195,o),
(848,-242,o),
(851,-330,cs),
(854,-418,o),
(822,-457,o),
(762,-468,cs),
(745,-471,o),
(726,-472,o),
(703,-472,cs),
(622,-472,o),
(568,-438,o),
(547,-428,c),
(533,-561,l),
(534,-564,o),
(535,-564,o),
(536,-567,c)
);
}
);
};
layerId = "32C958FF-0ECC-43B0-8A26-125B8B46EA2F";
shapes = (
{
ref = C;
},
{
pos = (213,0);
ref = cedillacomb;
}
);
width = 1244;
},
{
background = {
shapes = (
{
closed = 1;
nodes = (
(197,157,o),
(382.333,-40,o),
(721,-40,cs),
(887.659,-40,o),
(1021.735,19.513,o),
(1154,83,c),
(1118,250,l),
(987.346,192.839,o),
(852.866,142,o),
(752,142,cs),
(532,142,o),
(419,274.333,o),
(419,557,cs),
(419,794.135,o),
(463.138,1001.509,o),
(549,1162.5,cs),
(637.925,1329.235,o),
(777.677,1432,o),
(962,1432,cs),
(1070,1432,o),
(1167.333,1399.333,o),
(1282,1354,c),
(1357,1528,l),
(1206.623,1580.764,o),
(1099.979,1615,o),
(955,1615,cs),
(708.55,1615,o),
(517.137,1489.091,o),
(388.5,1285.5,cs),
(266.037,1091.681,o),
(197,831.014,o),
(197,541,cs)
);
},
{
closed = 1;
nodes = (
(599,-566,o),
(659,-590,o),
(739,-590,cs),
(892,-590,o),
(1011,-494,o),
(1016,-334,cs),
(1016,-326,ls),
(1016,-252,o),
(973,-202,o),
(914,-173,cs),
(854,-144,o),
(788,-137,o),
(741,-137,c),
(748,-111,o),
(769,-53,o),
(804,38,c),
(690,38,l),
(619,-225,l),
(706,-225,o),
(771,-237,o),
(814,-260,cs),
(857,-283,o),
(878,-311,o),
(879,-344,cs),
(879,-404,o),
(849,-463,o),
(756,-466,cs),
(749,-467,o),
(741,-467,o),
(734,-467,cs),
(726,-467,o),
(718,-466,o),
(710,-465,cs),
(654,-461,o),
(603,-438,o),
(564,-421,c),
(558,-510,l),
(558,-539,l),
(558,-539,l)
);
}
);
};
layerId = "747E1C2D-2712-4BCE-A1EA-426133F593D6";
shapes = (
{
ref = C;
},
{
pos = (148,0);
ref = cedillacomb;
}
);
width = 1190;
}
);
note = Ccedilla;
unicode = 199;
},
{
glyphname = Ccircumflex;
lastChange = "2024-06-14 12:43:47 +0000";
layers = (
{
background = {
shapes = (
{
closed = 1;
nodes = (
(219,160.455,o),
(391.141,-41,o),
(733,-41,cs),
(885.406,-41,o),
(1009.076,17.101,o),
(1160,78,c),
(1131,211,l),
(969.667,141.667,o),
(836,104,o),
(756,104,cs),
(521.333,104,o),
(401,241,o),
(401,541,cs),
(401,771.617,o),
(443.347,995.111,o),
(535.5,1170.5,cs),
(628.925,1348.309,o),
(780.245,1464,o),
(985,1464,cs),
(1061.928,1464,o),
(1142.964,1454.669,o),
(1301,1392,c),
(1364,1530,l),
(1264,1566,o),
(1189.667,1585.167,o),
(1127,1596.5,cs),
(1064.333,1607.833,o),
(1013.333,1609,o),
(960,1609,cs),
(730.865,1609,o),
(541.526,1479.042,o),
(414.5,1275,cs),
(289.776,1074.656,o),
(219,811.62,o),
(219,530,cs)
);
}
);
};
layerId = m01;
shapes = (
{
ref = C;
},
{
pos = (230,426);
ref = circumflexcomb;
}
);
width = 1168;
},
{
background = {
shapes = (
{
closed = 1;
nodes = (
(144,353,o),
(200,201.333,o),
(296,104,cs),
(392,6.667,o),
(529.333,-38,o),
(692,-38,cs),
(792,-38,o),
(883,-22,o),
(959,2,cs),
(1035,26,o),
(1097,59.333,o),
(1141,94,c),
(1086,341,l),
(1039.732,313.784,o),
(899.165,232,o),
(745,232,cs),
(557,232,o),
(463,353,o),
(463,595,cs),
(463,819,o),
(504.667,1009.5,o),
(582,1143.5,cs),
(659.333,1277.5,o),
(769.333,1356,o),
(908,1356,cs),
(1112.406,1356,o),
(1155.404,1278.266,o),
(1235,1265,c),
(1341,1522,l),
(1307.066,1536.139,o),
(1294.041,1551.625,o),
(1216,1580.5,cs),
(1149.333,1605.167,o),
(1058,1629,o),
(942,1629,cs),
(750,1629,o),
(596.5,1573.667,o),
(478.5,1479,cs),
(419.5,1431.667,o),
(368.833,1375,o),
(326.5,1309,cs),
(197.925,1108.544,o),
(144,849.063,o),
(144,565,cs)
);
},
{
closed = 1;
nodes = (
(841,1766,l),
(988,2085,l),
(1057,1766,l),
(1300,1766,l),
(1129,2405,l),
(910,2405,l),
(585,1766,l),
(585,1766,l)
);
}
);
};
layerId = "32C958FF-0ECC-43B0-8A26-125B8B46EA2F";
shapes = (
{
ref = C;
},
{
pos = (50,477);
ref = circumflexcomb;
}
);
width = 1244;
},
{
background = {
shapes = (
{
closed = 1;
nodes = (
(197,157,o),
(382.333,-40,o),
(721,-40,cs),
(887.659,-40,o),
(1021.735,19.513,o),
(1154,83,c),
(1118,250,l),
(987.346,192.839,o),
(852.866,142,o),
(752,142,cs),
(532,142,o),
(419,274.333,o),
(419,557,cs),
(419,794.135,o),
(463.138,1001.509,o),
(549,1162.5,cs),
(637.925,1329.235,o),
(777.677,1432,o),
(962,1432,cs),
(1070,1432,o),
(1167.333,1399.333,o),
(1282,1354,c),
(1357,1528,l),
(1206.623,1580.764,o),
(1099.979,1615,o),
(955,1615,cs),
(708.55,1615,o),
(517.137,1489.091,o),
(388.5,1285.5,cs),
(266.037,1091.681,o),
(197,831.014,o),
(197,541,cs)
);
},
{
closed = 1;
nodes = (
(830,1694,l),
(1011,2012,l),
(1075,1694,l),
(1239,1694,l),
(1112,2251,l),
(972,2251,l),
(647,1694,l),
(647,1694,l)
);
}
);
};
layerId = "747E1C2D-2712-4BCE-A1EA-426133F593D6";
shapes = (
{
ref = C;
},
{
pos = (166,442);
ref = circumflexcomb;
}
);
width = 1190;
}
);
note = Ccircumflex;
unicode = 264;
},
{
glyphname = Cdotaccent;
lastChange = "2024-06-14 12:43:47 +0000";
layers = (
{
background = {
shapes = (
{
closed = 1;
nodes = (
(219,160.455,o),
(391.141,-41,o),
(733,-41,cs),
(885.406,-41,o),
(1009.076,17.101,o),
(1160,78,c),
(1131,211,l),
(969.667,141.667,o),
(836,104,o),
(756,104,cs),
(521.333,104,o),
(401,241,o),
(401,541,cs),
(401,771.617,o),
(443.347,995.111,o),
(535.5,1170.5,cs),
(628.925,1348.309,o),
(780.245,1464,o),
(985,1464,cs),
(1061.928,1464,o),
(1142.964,1454.669,o),
(1301,1392,c),
(1364,1530,l),
(1264,1566,o),
(1189.667,1585.167,o),
(1127,1596.5,cs),
(1064.333,1607.833,o),
(1013.333,1609,o),
(960,1609,cs),
(730.865,1609,o),
(541.526,1479.042,o),
(414.5,1275,cs),
(289.776,1074.656,o),
(219,811.62,o),
(219,530,cs)
);
}
);
};
layerId = m01;
shapes = (
{
ref = C;
},
{
pos = (279,426);
ref = dotaccentcomb;
}
);
width = 1168;
},
{
background = {
shapes = (
{
closed = 1;
nodes = (
(144,353,o),
(200,201.333,o),
(296,104,cs),
(392,6.667,o),
(529.333,-38,o),
(692,-38,cs),
(792,-38,o),
(883,-22,o),
(959,2,cs),
(1035,26,o),
(1097,59.333,o),
(1141,94,c),
(1086,341,l),
(1039.732,313.784,o),
(899.165,232,o),
(745,232,cs),
(557,232,o),
(463,353,o),
(463,595,cs),
(463,819,o),
(504.667,1009.5,o),
(582,1143.5,cs),
(659.333,1277.5,o),
(769.333,1356,o),
(908,1356,cs),
(1112.406,1356,o),
(1155.404,1278.266,o),
(1235,1265,c),
(1341,1522,l),
(1307.066,1536.139,o),
(1294.041,1551.625,o),
(1216,1580.5,cs),
(1149.333,1605.167,o),
(1058,1629,o),
(942,1629,cs),
(750,1629,o),
(596.5,1573.667,o),
(478.5,1479,cs),
(419.5,1431.667,o),
(368.833,1375,o),
(326.5,1309,cs),
(197.925,1108.544,o),
(144,849.063,o),
(144,565,cs)
);
},
{
closed = 1;
nodes = (
(881,2181,l),
(822,1759,l),
(1220,1761,l),
(1281,2181,l),
(1281,2181,l)
);
}
);
};
layerId = "32C958FF-0ECC-43B0-8A26-125B8B46EA2F";
shapes = (
{
ref = C;
},
{
pos = (277,477);
ref = dotaccentcomb;
}
);
width = 1244;
},
{
background = {
shapes = (
{
closed = 1;
nodes = (
(197,157,o),
(382.333,-40,o),
(721,-40,cs),
(887.659,-40,o),
(1021.735,19.513,o),
(1154,83,c),
(1118,250,l),
(987.346,192.839,o),
(852.866,142,o),
(752,142,cs),
(532,142,o),
(419,274.333,o),
(419,557,cs),
(419,794.135,o),
(463.138,1001.509,o),
(549,1162.5,cs),
(637.925,1329.235,o),
(777.677,1432,o),
(962,1432,cs),
(1070,1432,o),
(1167.333,1399.333,o),
(1282,1354,c),
(1357,1528,l),
(1206.623,1580.764,o),
(1099.979,1615,o),
(955,1615,cs),
(708.55,1615,o),
(517.137,1489.091,o),
(388.5,1285.5,cs),
(266.037,1091.681,o),
(197,831.014,o),
(197,541,cs)
);
},
{
closed = 1;
nodes = (
(941,2093,l),
(895,1767,l),
(1195,1767,l),
(1239,2093,l),
(1239,2093,l)
);
}
);
};
layerId = "747E1C2D-2712-4BCE-A1EA-426133F593D6";
shapes = (
{
ref = C;
},
{
pos = (364,442);
ref = dotaccentcomb;
}
);
width = 1190;
}
);
note = Cdotaccent;
unicode = 266;
},
{
glyphname = D;
lastChange = "2024-06-14 12:43:58 +0000";
layers = (
{
anchors = (
{
name = bottom;
pos = (549,0);
},
{
name = center;
pos = (381,786);
},
{
name = top;
pos = (883,1572);
}
);
background = {
shapes = (
{
closed = 1;
nodes = (
(1200,849.626,o),
(1181.558,631.825,o),
(1109,459.5,cs),
(1033.259,279.614,o),
(903.069,138,o),
(675,138,cs),
(336,138,l),
(520,1439,l),
(830,1439,ls),
(955.333,1439,o),
(1048.833,1405.333,o),
(1109.5,1332,cs),
(1170.167,1258.667,o),
(1200,1145.667,o),
(1200,987,cs)
);
},
{
closed = 1;
nodes = (
(1376,1386,o),
(1196.667,1577,o),
(850,1577,cs),
(367,1577,l),
(147,0,l),
(657,0,ls),
(975.885,0,o),
(1157.238,172.618,o),
(1257.5,382.5,cs),
(1357.66,592.168,o),
(1376,840.193,o),
(1376,982,cs)
);
}
);
};
layerId = m01;
shapes = (
{
closed = 1;
nodes = (
(657,0,ls),
(976,0,o),
(1157,173,o),
(1258,383,cs),
(1358,592,o),
(1376,840,o),
(1376,982,cs),
(1376,1386,o),
(1197,1577,o),
(850,1577,cs),
(367,1577,l),
(147,0,l)
);
},
{
closed = 1;
nodes = (
(520,1439,l),
(830,1439,ls),
(955,1439,o),
(1049,1405,o),
(1110,1332,cs),
(1170,1259,o),
(1200,1146,o),
(1200,987,cs),
(1200,850,o),
(1182,632,o),
(1109,460,cs),
(1033,280,o),
(903,138,o),
(675,138,cs),
(336,138,l)
);
}
);
userData = {
assembly = "SVTCA[0]	/* SetFreedomAndProjectionVectorToAxis */
PUSHB[ ]	/* 3 values pushed */
27 1 0
CALL[ ]	/* CallFunction */
PUSHB[ ]	/* 2 values pushed */
7 5
MIRP[01001]	/* MoveIndirectRelPt */
PUSHB[ ]	/* 3 values pushed */
28 4 0
CALL[ ]	/* CallFunction */
PUSHB[ ]	/* 2 values pushed */
6 5
MIRP[01001]	/* MoveIndirectRelPt */
SVTCA[1]	/* SetFreedomAndProjectionVectorToAxis */
PUSHB[ ]	/* 1 value pushed */
32
MDAP[1]	/* MoveDirectAbsPt */
PUSHB[ ]	/* 1 value pushed */
0
MDRP[10110]	/* MoveDirectRelPt */
PUSHB[ ]	/* 2 values pushed */
17 12
MIRP[01001]	/* MoveIndirectRelPt */
PUSHB[ ]	/* 1 value pushed */
17
SRP0[ ]	/* SetRefPoint0 */
PUSHB[ ]	/* 1 value pushed */
33
MDRP[10110]	/* MoveDirectRelPt */
PUSHB[ ]	/* 1 value pushed */
54
SMD[ ]	/* SetMinimumDistance */
PUSHW[ ]	/* 3 values pushed */
16227 -2264 21
CALL[ ]	/* CallFunction */
SPVFS[ ]	/* SetPVectorFromStack */
PUSHB[ ]	/* 1 value pushed */
27
MDAP[0]	/* MoveDirectAbsPt */
PUSHB[ ]	/* 1 value pushed */
6
MDAP[0]	/* MoveDirectAbsPt */
PUSHB[ ]	/* 1 value pushed */
27
SRP0[ ]	/* SetRefPoint0 */
PUSHB[ ]	/* 2 values pushed */
7 30
MIRP[11001]	/* MoveIndirectRelPt */
PUSHB[ ]	/* 1 value pushed */
6
SRP0[ ]	/* SetRefPoint0 */
PUSHB[ ]	/* 2 values pushed */
28 30
MIRP[11001]	/* MoveIndirectRelPt */
SPVTCA[1]	/* SetPVectorToAxis */
PUSHB[ ]	/* 4 values pushed */
6 7 27 28
MDAP[0]	/* MoveDirectAbsPt */
MDAP[0]	/* MoveDirectAbsPt */
MDAP[0]	/* MoveDirectAbsPt */
MDAP[0]	/* MoveDirectAbsPt */
PUSHB[ ]	/* 1 value pushed */
64
SMD[ ]	/* SetMinimumDistance */
PUSHB[ ]	/* 2 values pushed */
17 0
SRP1[ ]	/* SetRefPoint1 */
SRP2[ ]	/* SetRefPoint2 */
PUSHB[ ]	/* 1 value pushed */
19
IP[ ]	/* InterpolatePts */
SVTCA[0]	/* SetFreedomAndProjectionVectorToAxis */
PUSHB[ ]	/* 2 values pushed */
6 7
SRP1[ ]	/* SetRefPoint1 */
SRP2[ ]	/* SetRefPoint2 */
PUSHB[ ]	/* 1 value pushed */
17
IP[ ]	/* InterpolatePts */
IUP[0]	/* InterpolateUntPts */
IUP[1]	/* InterpolateUntPts */";
};
width = 1342;
},
{
anchors = (
{
name = bottom;
pos = (601,0);
},
{
name = center;
pos = (411,802);
},
{
name = top;
pos = (942,1603);
}
);
background = {
shapes = (
{
closed = 1;
nodes = (
(1102.883,788.946,o),
(1069.906,605.75,o),
(1001,464,cs),
(930.497,318.965,o),
(817.015,230,o),
(662,230,cs),
(430,230,l),
(603,1373,l),
(852,1373,ls),
(1025.333,1373,o),
(1106.333,1247,o),
(1105,1007,cs)
);
},
{
closed = 1;
nodes = (
(1426.333,1229.333,o),
(1373,1375.333,o),
(1277,1470,cs),
(1181,1564.667,o),
(1044,1608,o),
(876,1608,cs),
(312,1608,l),
(77,0,l),
(645,0,ls),
(898.333,0,o),
(1092.333,102.333,o),
(1223,281,cs),
(1353.667,459.667,o),
(1422.333,716,o),
(1425,1024,cs)
);
}
);
};
layerId = "32C958FF-0ECC-43B0-8A26-125B8B46EA2F";
shapes = (
{
closed = 1;
nodes = (
(645,0,ls),
(898,0,o),
(1092,102,o),
(1223,281,cs),
(1354,460,o),
(1422,716,o),
(1425,1024,cs),
(1426,1229,o),
(1373,1375,o),
(1277,1470,cs),
(1181,1565,o),
(1044,1608,o),
(876,1608,cs),
(312,1608,l),
(77,0,l)
);
},
{
closed = 1;
nodes = (
(603,1373,l),
(852,1373,ls),
(1025,1373,o),
(1106,1247,o),
(1105,1007,cs),
(1103,789,o),
(1070,606,o),
(1001,464,cs),
(930,319,o),
(817,230,o),
(662,230,cs),
(430,230,l)
);
}
);
userData = {
assembly = "SVTCA[0]	/* SetFreedomAndProjectionVectorToAxis */
PUSHB[ ]	/* 3 values pushed */
18 1 0
CALL[ ]	/* CallFunction */
PUSHB[ ]	/* 1 value pushed */
19
SHP[1]	/* ShiftPointByLastPoint */
PUSHB[ ]	/* 2 values pushed */
5 11
MIRP[01001]	/* MoveIndirectRelPt */
PUSHB[ ]	/* 3 values pushed */
21 4 0
CALL[ ]	/* CallFunction */
PUSHB[ ]	/* 1 value pushed */
20
SHP[1]	/* ShiftPointByLastPoint */
PUSHB[ ]	/* 2 values pushed */
4 11
MIRP[01001]	/* MoveIndirectRelPt */
SVTCA[1]	/* SetFreedomAndProjectionVectorToAxis */
PUSHB[ ]	/* 1 value pushed */
26
MDAP[1]	/* MoveDirectAbsPt */
PUSHB[ ]	/* 1 value pushed */
0
MDRP[10110]	/* MoveDirectRelPt */
PUSHB[ ]	/* 2 values pushed */
13 18
MIRP[01001]	/* MoveIndirectRelPt */
PUSHB[ ]	/* 1 value pushed */
13
SRP0[ ]	/* SetRefPoint0 */
PUSHB[ ]	/* 1 value pushed */
27
MDRP[10110]	/* MoveDirectRelPt */
PUSHB[ ]	/* 1 value pushed */
54
SMD[ ]	/* SetMinimumDistance */
PUSHW[ ]	/* 3 values pushed */
16212 -2369 21
CALL[ ]	/* CallFunction */
SPVFS[ ]	/* SetPVectorFromStack */
PUSHB[ ]	/* 1 value pushed */
19
MDAP[0]	/* MoveDirectAbsPt */
PUSHB[ ]	/* 1 value pushed */
4
MDAP[0]	/* MoveDirectAbsPt */
PUSHB[ ]	/* 1 value pushed */
19
SRP0[ ]	/* SetRefPoint0 */
PUSHB[ ]	/* 2 values pushed */
5 39
MIRP[11001]	/* MoveIndirectRelPt */
PUSHB[ ]	/* 1 value pushed */
4
SRP0[ ]	/* SetRefPoint0 */
PUSHB[ ]	/* 2 values pushed */
20 39
MIRP[11001]	/* MoveIndirectRelPt */
SPVTCA[1]	/* SetPVectorToAxis */
PUSHB[ ]	/* 4 values pushed */
4 5 19 20
MDAP[0]	/* MoveDirectAbsPt */
MDAP[0]	/* MoveDirectAbsPt */
MDAP[0]	/* MoveDirectAbsPt */
MDAP[0]	/* MoveDirectAbsPt */
PUSHB[ ]	/* 1 value pushed */
64
SMD[ ]	/* SetMinimumDistance */
SVTCA[0]	/* SetFreedomAndProjectionVectorToAxis */
IUP[0]	/* InterpolateUntPts */
IUP[1]	/* InterpolateUntPts */";
};
width = 1441;
},
{
anchors = (
{
name = bottom;
pos = (565,0);
},
{
name = center;
pos = (390,791);
},
{
name = top;
pos = (901,1582);
}
);
background = {
shapes = (
{
closed = 1;
nodes = (
(1172,842.31,o),
(1155.534,643.292,o),
(1077.5,460.5,cs),
(1028.833,346.5,o),
(955.833,257.167,o),
(852.5,204.5,cs),
(800.833,178.167,o),
(740.333,165,o),
(671,165,cs),
(364,165,l),
(544,1420,l),
(836,1420,ls),
(1065.333,1420,o),
(1172,1286.333,o),
(1172,993,cs)
);
},
{
closed = 1;
nodes = (
(1391,1198,o),
(1343.667,1345.833,o),
(1253,1442.5,cs),
(1162.333,1539.167,o),
(1029,1586,o),
(857,1586,cs),
(351,1586,l),
(126,0,l),
(653,0,ls),
(853,0,o),
(1002.667,67.833,o),
(1112,172.5,cs),
(1166.667,224.833,o),
(1212,285,o),
(1248,353,cs),
(1320,489,o),
(1360.667,639,o),
(1378,787,cs),
(1386.667,861,o),
(1391,930,o),
(1391,994,cs)
);
}
);
};
layerId = "747E1C2D-2712-4BCE-A1EA-426133F593D6";
shapes = (
{
closed = 1;
nodes = (
(653,0,ls),
(853,0,o),
(1003,68,o),
(1112,173,cs),
(1167,225,o),
(1212,285,o),
(1248,353,cs),
(1320,489,o),
(1361,639,o),
(1378,787,cs),
(1387,861,o),
(1391,930,o),
(1391,994,cs),
(1391,1198,o),
(1344,1346,o),
(1253,1443,cs),
(1162,1539,o),
(1029,1586,o),
(857,1586,cs),
(351,1586,l),
(126,0,l)
);
},
{
closed = 1;
nodes = (
(544,1420,l),
(836,1420,ls),
(1065,1420,o),
(1172,1286,o),
(1172,993,cs),
(1172,842,o),
(1156,643,o),
(1078,461,cs),
(1029,347,o),
(956,257,o),
(853,205,cs),
(801,178,o),
(740,165,o),
(671,165,cs),
(364,165,l)
);
}
);
userData = {
assembly = "SVTCA[0]	/* SetFreedomAndProjectionVectorToAxis */
PUSHB[ ]	/* 3 values pushed */
21 1 0
CALL[ ]	/* CallFunction */
PUSHB[ ]	/* 2 values pushed */
5 5
MIRP[01001]	/* MoveIndirectRelPt */
PUSHB[ ]	/* 3 values pushed */
22 4 0
CALL[ ]	/* CallFunction */
PUSHB[ ]	/* 2 values pushed */
4 5
MIRP[01001]	/* MoveIndirectRelPt */
SVTCA[1]	/* SetFreedomAndProjectionVectorToAxis */
PUSHB[ ]	/* 1 value pushed */
28
MDAP[1]	/* MoveDirectAbsPt */
PUSHB[ ]	/* 1 value pushed */
29
MDRP[10110]	/* MoveDirectRelPt */
PUSHB[ ]	/* 1 value pushed */
54
SMD[ ]	/* SetMinimumDistance */
PUSHW[ ]	/* 3 values pushed */
16222 -2301 21
CALL[ ]	/* CallFunction */
SPVFS[ ]	/* SetPVectorFromStack */
PUSHB[ ]	/* 1 value pushed */
21
MDAP[0]	/* MoveDirectAbsPt */
PUSHB[ ]	/* 1 value pushed */
4
MDAP[0]	/* MoveDirectAbsPt */
PUSHB[ ]	/* 1 value pushed */
21
SRP0[ ]	/* SetRefPoint0 */
PUSHB[ ]	/* 2 values pushed */
5 11
MIRP[11001]	/* MoveIndirectRelPt */
PUSHB[ ]	/* 1 value pushed */
4
SRP0[ ]	/* SetRefPoint0 */
PUSHB[ ]	/* 2 values pushed */
22 11
MIRP[11001]	/* MoveIndirectRelPt */
PUSHW[ ]	/* 3 values pushed */
16073 -3177 21
CALL[ ]	/* CallFunction */
SPVFS[ ]	/* SetPVectorFromStack */
SFVTPV[ ]	/* SetFVectorToPVector */
PUSHB[ ]	/* 1 value pushed */
10
SRP0[ ]	/* SetRefPoint0 */
PUSHB[ ]	/* 1 value pushed */
11
MDRP[00000]	/* MoveDirectRelPt */
PUSHB[ ]	/* 2 values pushed */
16 32
MIRP[11001]	/* MoveIndirectRelPt */
PUSHB[ ]	/* 1 value pushed */
14
MDRP[00000]	/* MoveDirectRelPt */
PUSHB[ ]	/* 4 values pushed */
15 16 14 19
CALL[ ]	/* CallFunction */
PUSHB[ ]	/* 3 values pushed */
15 16 14
DUP[ ]	/* DuplicateTopStack */
ROLL[ ]	/* RollTopThreeStack */
DUP[ ]	/* DuplicateTopStack */
ROLL[ ]	/* RollTopThreeStack */
SWAP[ ]	/* SwapTopStack */
SPVTL[0]	/* SetPVectorToLine */
SFVTPV[ ]	/* SetFVectorToPVector */
SRP1[ ]	/* SetRefPoint1 */
SRP2[ ]	/* SetRefPoint2 */
IP[ ]	/* InterpolatePts */
SVTCA[0]	/* SetFreedomAndProjectionVectorToAxis */
PUSHB[ ]	/* 5 values pushed */
10 11 14 15 16
MDAP[0]	/* MoveDirectAbsPt */
MDAP[0]	/* MoveDirectAbsPt */
MDAP[0]	/* MoveDirectAbsPt */
MDAP[0]	/* MoveDirectAbsPt */
MDAP[0]	/* MoveDirectAbsPt */
SVTCA[1]	/* SetFreedomAndProjectionVectorToAxis */
NPUSHB[ ]	/* 9 values pushed */
4 5 21 22 10 11 14 15 16
MDAP[0]	/* MoveDirectAbsPt */
MDAP[0]	/* MoveDirectAbsPt */
MDAP[0]	/* MoveDirectAbsPt */
MDAP[0]	/* MoveDirectAbsPt */
MDAP[0]	/* MoveDirectAbsPt */
MDAP[0]	/* MoveDirectAbsPt */
MDAP[0]	/* MoveDirectAbsPt */
MDAP[0]	/* MoveDirectAbsPt */
MDAP[0]	/* MoveDirectAbsPt */
PUSHB[ ]	/* 1 value pushed */
64
SMD[ ]	/* SetMinimumDistance */
SVTCA[1]	/* SetFreedomAndProjectionVectorToAxis */
SVTCA[0]	/* SetFreedomAndProjectionVectorToAxis */
PUSHB[ ]	/* 2 values pushed */
4 5
SRP1[ ]	/* SetRefPoint1 */
SRP2[ ]	/* SetRefPoint2 */
PUSHB[ ]	/* 1 value pushed */
13
IP[ ]	/* InterpolatePts */
IUP[0]	/* InterpolateUntPts */
IUP[1]	/* InterpolateUntPts */";
};
width = 1371;
}
);
note = D;
unicode = 68;
},
{
glyphname = Dcaron;
lastChange = "2024-06-14 12:43:47 +0000";
layers = (
{
background = {
shapes = (
{
closed = 1;
nodes = (
(1200,849.626,o),
(1181.558,631.825,o),
(1109,459.5,cs),
(1033.259,279.614,o),
(903.069,138,o),
(675,138,cs),
(336,138,l),
(520,1439,l),
(830,1439,ls),
(955.333,1439,o),
(1048.833,1405.333,o),
(1109.5,1332,cs),
(1170.167,1258.667,o),
(1200,1145.667,o),
(1200,987,cs)
);
},
{
closed = 1;
nodes = (
(1376,1386,o),
(1196.667,1577,o),
(850,1577,cs),
(367,1577,l),
(147,0,l),
(657,0,ls),
(975.886,0,o),
(1157.238,172.618,o),
(1257.5,382.5,cs),
(1357.66,592.168,o),
(1376,840.193,o),
(1376,982,cs)
);
}
);
};
layerId = m01;
shapes = (
{
ref = D;
},
{
pos = (347,426);
ref = caroncomb;
}
);
width = 1342;
},
{
background = {
shapes = (
{
closed = 1;
nodes = (
(1102.883,788.946,o),
(1069.906,605.75,o),
(1001,464,cs),
(930.497,318.965,o),
(817.015,230,o),
(662,230,cs),
(430,230,l),
(603,1373,l),
(852,1373,ls),
(1025.333,1373,o),
(1106.333,1247,o),
(1105,1007,cs)
);
},
{
closed = 1;
nodes = (
(1426.333,1229.333,o),
(1373,1375.333,o),
(1277,1470,cs),
(1181,1564.667,o),
(1044,1608,o),
(876,1608,cs),
(312,1608,l),
(77,0,l),
(645,0,ls),
(898.333,0,o),
(1092.333,102.333,o),
(1223,281,cs),
(1353.667,459.667,o),
(1422.333,716,o),
(1425,1024,cs)
);
},
{
closed = 1;
nodes = (
(1029,2404,l),
(882,2084,l),
(813,2404,l),
(570,2404,l),
(740,1765,l),
(959,1765,l),
(1285,2404,l),
(1285,2404,l)
);
}
);
};
layerId = "32C958FF-0ECC-43B0-8A26-125B8B46EA2F";
shapes = (
{
ref = D;
},
{
pos = (215,477);
ref = caroncomb;
}
);
width = 1441;
},
{
background = {
shapes = (
{
closed = 1;
nodes = (
(1172,842.31,o),
(1155.534,643.292,o),
(1077.5,460.5,cs),
(1028.833,346.5,o),
(955.833,257.167,o),
(852.5,204.5,cs),
(800.833,178.167,o),
(740.333,165,o),
(671,165,cs),
(364,165,l),
(544,1420,l),
(836,1420,ls),
(1065.333,1420,o),
(1172,1286.333,o),
(1172,993,cs)
);
},
{
closed = 1;
nodes = (
(1391,1198,o),
(1343.667,1345.833,o),
(1253,1442.5,cs),
(1162.333,1539.167,o),
(1029,1586,o),
(857,1586,cs),
(351,1586,l),
(126,0,l),
(653,0,ls),
(853,0,o),
(1002.667,67.833,o),
(1112,172.5,cs),
(1166.667,224.833,o),
(1212,285,o),
(1248,353,cs),
(1320,489,o),
(1360.667,639,o),
(1378,787,cs),
(1386.667,861,o),
(1391,930,o),
(1391,994,cs)
);
},
{
closed = 1;
nodes = (
(1090,2281,l),
(909,1963,l),
(844,2281,l),
(681,2281,l),
(799,1723,l),
(939,1723,l),
(1273,2281,l),
(1273,2281,l)
);
}
);
};
layerId = "747E1C2D-2712-4BCE-A1EA-426133F593D6";
shapes = (
{
ref = D;
},
{
pos = (304,442);
ref = caroncomb;
}
);
width = 1371;
}
);
note = Dcaron;
unicode = 270;
},
{
glyphname = Dcroat;
lastChange = "2024-06-14 12:43:47 +0000";
layers = (
{
background = {
shapes = (
{
closed = 1;
nodes = (
(1200,849.626,o),
(1181.558,631.825,o),
(1109,459.5,cs),
(1033.259,279.614,o),
(903.069,138,o),
(675,138,cs),
(336,138,l),
(520,1439,l),
(830,1439,ls),
(955.333,1439,o),
(1048.833,1405.333,o),
(1109.5,1332,cs),
(1170.167,1258.667,o),
(1200,1145.667,o),
(1200,987,cs)
);
},
{
closed = 1;
nodes = (
(1376,1386,o),
(1196.667,1577,o),
(850,1577,cs),
(367,1577,l),
(147,0,l),
(657,0,ls),
(975.886,0,o),
(1157.238,172.618,o),
(1257.5,382.5,cs),
(1357.66,592.168,o),
(1376,840.193,o),
(1376,982,cs)
);
},
{
closed = 1;
nodes = (
(139,962,l),
(119,814,l),
(753,814,l),
(774,962,l),
(774,962,l)
);
}
);
};
layerId = m01;
shapes = (
{
ref = Eth;
}
);
width = 1319;
},
{
background = {
shapes = (
{
closed = 1;
nodes = (
(1102.883,788.946,o),
(1069.906,605.75,o),
(1001,464,cs),
(930.497,318.965,o),
(817.015,230,o),
(662,230,cs),
(430,230,l),
(603,1373,l),
(852,1373,ls),
(1025.333,1373,o),
(1106.333,1247,o),
(1105,1007,cs)
);
},
{
closed = 1;
nodes = (
(1426.333,1229.333,o),
(1373,1375.333,o),
(1277,1470,cs),
(1181,1564.667,o),
(1044,1608,o),
(876,1608,cs),
(312,1608,l),
(77,0,l),
(645,0,ls),
(898.333,0,o),
(1092.333,102.333,o),
(1223,281,cs),
(1353.667,459.667,o),
(1422.333,716,o),
(1425,1024,cs)
);
},
{
closed = 1;
nodes = (
(138,943,l),
(107,717,l),
(908,717,l),
(941,943,l),
(941,943,l)
);
}
);
};
layerId = "32C958FF-0ECC-43B0-8A26-125B8B46EA2F";
shapes = (
{
ref = Eth;
}
);
width = 1456;
},
{
background = {
shapes = (
{
closed = 1;
nodes = (
(1172,842.31,o),
(1155.534,643.292,o),
(1077.5,460.5,cs),
(1028.833,346.5,o),
(955.833,257.167,o),
(852.5,204.5,cs),
(800.833,178.167,o),
(740.333,165,o),
(671,165,cs),
(364,165,l),
(544,1420,l),
(836,1420,ls),
(1065.333,1420,o),
(1172,1286.333,o),
(1172,993,cs)
);
},
{
closed = 1;
nodes = (
(1391,1198,o),
(1343.667,1345.833,o),
(1253,1442.5,cs),
(1162.333,1539.167,o),
(1029,1586,o),
(857,1586,cs),
(351,1586,l),
(126,0,l),
(653,0,ls),
(853,0,o),
(1002.667,67.833,o),
(1112,172.5,cs),
(1166.667,224.833,o),
(1212,285,o),
(1248,353,cs),
(1320,489,o),
(1360.667,639,o),
(1378,787,cs),
(1386.667,861,o),
(1391,930,o),
(1391,994,cs)
);
},
{
closed = 1;
nodes = (
(136,941,l),
(112,772,l),
(784,772,l),
(807,941,l),
(807,941,l)
);
}
);
};
layerId = "747E1C2D-2712-4BCE-A1EA-426133F593D6";
shapes = (
{
ref = Eth;
}
);
width = 1359;
}
);
note = Dcroat;
unicode = 272;
},
{
glyphname = Eth;
lastChange = "2024-06-14 12:43:58 +0000";
layers = (
{
background = {
shapes = (
{
closed = 1;
nodes = (
(1352.667,1385,o),
(1185,1572,o),
(837,1572,cs),
(327,1572,l),
(228,879,l),
(124,879,l),
(107,737,l),
(208,737,l),
(103,0,l),
(613,0,ls),
(778.333,0,o),
(908,45.667,o),
(1008,119,cs),
(1108,192.333,o),
(1180.167,292.667,o),
(1231.5,402,cs),
(1282.833,511.333,o),
(1313.5,629.167,o),
(1331.5,736.5,cs),
(1349.5,843.833,o),
(1354,941,o),
(1354,1009,cs)
);
},
{
closed = 1;
nodes = (
(1177,891.984,o),
(1163.85,681.981,o),
(1083.5,479.5,cs),
(1033.5,353.5,o),
(954.667,251.333,o),
(840,190,cs),
(782.667,159.333,o),
(715,144,o),
(637,144,cs),
(297,144,l),
(380,737,l),
(758,737,l),
(775,879,l),
(400,879,l),
(476,1426,l),
(814,1426,ls),
(935.333,1426,o),
(1027,1397.5,o),
(1087,1331.5,cs),
(1147,1265.5,o),
(1177,1161.333,o),
(1177,1012,cs)
);
}
);
};
layerId = m01;
shapes = (
{
closed = 1;
nodes = (
(613,0,ls),
(778,0,o),
(908,46,o),
(1008,119,cs),
(1108,192,o),
(1180,293,o),
(1232,402,cs),
(1283,511,o),
(1314,629,o),
(1332,737,cs),
(1350,844,o),
(1354,941,o),
(1354,1009,cs),
(1353,1385,o),
(1185,1572,o),
(837,1572,cs),
(327,1572,l),
(228,879,l),
(124,879,l),
(107,737,l),
(208,737,l),
(103,0,l)
);
},
{
closed = 1;
nodes = (
(380,737,l),
(758,737,l),
(775,879,l),
(400,879,l),
(476,1426,l),
(814,1426,ls),
(935,1426,o),
(1027,1398,o),
(1087,1332,cs),
(1147,1266,o),
(1177,1161,o),
(1177,1012,cs),
(1177,892,o),
(1164,682,o),
(1084,480,cs),
(1034,354,o),
(955,251,o),
(840,190,cs),
(783,159,o),
(715,144,o),
(637,144,cs),
(297,144,l)
);
}
);
userData = {
assembly = "SVTCA[0]	/* SetFreedomAndProjectionVectorToAxis */
PUSHB[ ]	/* 3 values pushed */
10 1 0
CALL[ ]	/* CallFunction */
PUSHB[ ]	/* 2 values pushed */
30 11
MIRP[01001]	/* MoveIndirectRelPt */
PUSHB[ ]	/* 3 values pushed */
15 4 0
CALL[ ]	/* CallFunction */
PUSHB[ ]	/* 2 values pushed */
25 11
MIRP[01001]	/* MoveIndirectRelPt */
PUSHB[ ]	/* 5 values pushed */
13 12 10 15 13
CALL[ ]	/* CallFunction */
PUSHB[ ]	/* 2 values pushed */
11 29
SHP[1]	/* ShiftPointByLastPoint */
SHP[1]	/* ShiftPointByLastPoint */
PUSHB[ ]	/* 2 values pushed */
13 11
MIRP[01001]	/* MoveIndirectRelPt */
PUSHB[ ]	/* 2 values pushed */
14 26
SHP[0]	/* ShiftPointByLastPoint */
SHP[0]	/* ShiftPointByLastPoint */
SVTCA[1]	/* SetFreedomAndProjectionVectorToAxis */
PUSHB[ ]	/* 1 value pushed */
38
MDAP[1]	/* MoveDirectAbsPt */
PUSHB[ ]	/* 1 value pushed */
39
MDRP[10110]	/* MoveDirectRelPt */
PUSHB[ ]	/* 1 value pushed */
54
SMD[ ]	/* SetMinimumDistance */
PUSHW[ ]	/* 3 values pushed */
16220 -2311 21
CALL[ ]	/* CallFunction */
SPVFS[ ]	/* SetPVectorFromStack */
PUSHB[ ]	/* 1 value pushed */
10
MDAP[0]	/* MoveDirectAbsPt */
PUSHB[ ]	/* 1 value pushed */
25
MDAP[0]	/* MoveDirectAbsPt */
PUSHB[ ]	/* 1 value pushed */
10
SRP0[ ]	/* SetRefPoint0 */
PUSHB[ ]	/* 2 values pushed */
30 12
MIRP[11001]	/* MoveIndirectRelPt */
PUSHB[ ]	/* 1 value pushed */
25
SRP0[ ]	/* SetRefPoint0 */
PUSHB[ ]	/* 2 values pushed */
15 12
MIRP[11001]	/* MoveIndirectRelPt */
PUSHW[ ]	/* 3 values pushed */
16209 -2390 21
CALL[ ]	/* CallFunction */
SPVFS[ ]	/* SetPVectorFromStack */
SFVTPV[ ]	/* SetFVectorToPVector */
PUSHB[ ]	/* 1 value pushed */
35
SRP0[ ]	/* SetRefPoint0 */
PUSHB[ ]	/* 1 value pushed */
37
MDRP[00000]	/* MoveDirectRelPt */
PUSHB[ ]	/* 2 values pushed */
3 27
MIRP[11001]	/* MoveIndirectRelPt */
PUSHB[ ]	/* 1 value pushed */
1
MDRP[00000]	/* MoveDirectRelPt */
PUSHB[ ]	/* 4 values pushed */
2 3 1 19
CALL[ ]	/* CallFunction */
SFVTCA[1]	/* SetFVectorToAxis */
PUSHB[ ]	/* 1 value pushed */
10
SRP0[ ]	/* SetRefPoint0 */
PUSHB[ ]	/* 4 values pushed */
11 10 15 19
CALL[ ]	/* CallFunction */
PUSHB[ ]	/* 4 values pushed */
14 10 15 19
CALL[ ]	/* CallFunction */
PUSHB[ ]	/* 1 value pushed */
30
SRP0[ ]	/* SetRefPoint0 */
PUSHB[ ]	/* 4 values pushed */
26 30 25 19
CALL[ ]	/* CallFunction */
PUSHB[ ]	/* 4 values pushed */
29 30 25 19
CALL[ ]	/* CallFunction */
PUSHW[ ]	/* 3 values pushed */
16201 -2439 21
CALL[ ]	/* CallFunction */
SFVFS[ ]	/* SetFVectorFromStack */
PUSHB[ ]	/* 1 value pushed */
35
SRP0[ ]	/* SetRefPoint0 */
PUSHB[ ]	/* 4 values pushed */
36 35 37 19
CALL[ ]	/* CallFunction */
PUSHB[ ]	/* 3 values pushed */
36 35 37
DUP[ ]	/* DuplicateTopStack */
ROLL[ ]	/* RollTopThreeStack */
DUP[ ]	/* DuplicateTopStack */
ROLL[ ]	/* RollTopThreeStack */
SWAP[ ]	/* SwapTopStack */
SPVTL[0]	/* SetPVectorToLine */
SFVTPV[ ]	/* SetFVectorToPVector */
SRP1[ ]	/* SetRefPoint1 */
SRP2[ ]	/* SetRefPoint2 */
IP[ ]	/* InterpolatePts */
PUSHB[ ]	/* 3 values pushed */
2 3 1
SRP1[ ]	/* SetRefPoint1 */
SRP2[ ]	/* SetRefPoint2 */
IP[ ]	/* InterpolatePts */
SVTCA[0]	/* SetFreedomAndProjectionVectorToAxis */
PUSHB[ ]	/* 6 values pushed */
1 2 3 35 36 37
MDAP[0]	/* MoveDirectAbsPt */
MDAP[0]	/* MoveDirectAbsPt */
MDAP[0]	/* MoveDirectAbsPt */
MDAP[0]	/* MoveDirectAbsPt */
MDAP[0]	/* MoveDirectAbsPt */
MDAP[0]	/* MoveDirectAbsPt */
SVTCA[1]	/* SetFreedomAndProjectionVectorToAxis */
NPUSHB[ ]	/* 14 values pushed */
10 11 14 15 25 26 29 30 1 2 3 35 36 37
MDAP[0]	/* MoveDirectAbsPt */
MDAP[0]	/* MoveDirectAbsPt */
MDAP[0]	/* MoveDirectAbsPt */
MDAP[0]	/* MoveDirectAbsPt */
MDAP[0]	/* MoveDirectAbsPt */
MDAP[0]	/* MoveDirectAbsPt */
MDAP[0]	/* MoveDirectAbsPt */
MDAP[0]	/* MoveDirectAbsPt */
MDAP[0]	/* MoveDirectAbsPt */
MDAP[0]	/* MoveDirectAbsPt */
MDAP[0]	/* MoveDirectAbsPt */
MDAP[0]	/* MoveDirectAbsPt */
MDAP[0]	/* MoveDirectAbsPt */
MDAP[0]	/* MoveDirectAbsPt */
PUSHB[ ]	/* 1 value pushed */
64
SMD[ ]	/* SetMinimumDistance */
SVTCA[1]	/* SetFreedomAndProjectionVectorToAxis */
SVTCA[0]	/* SetFreedomAndProjectionVectorToAxis */
IUP[0]	/* InterpolateUntPts */
IUP[1]	/* InterpolateUntPts */";
};
width = 1319;
},
{
background = {
shapes = (
{
closed = 1;
nodes = (
(1439.333,1231,o),
(1385.167,1375.5,o),
(1288.5,1469.5,cs),
(1191.833,1563.5,o),
(1053.667,1607,o),
(887,1607,cs),
(332,1607,l),
(236,918,l),
(137,918,l),
(109,736,l),
(210,736,l),
(108,0,l),
(664,0,ls),
(916,0,o),
(1110.167,103,o),
(1241.5,283,cs),
(1372.833,463,o),
(1439.333,720.333,o),
(1438,1027,cs)
);
},
{
closed = 1;
nodes = (
(1117.317,593.146,o),
(996.518,231,o),
(680,231,cs),
(460,231,l),
(533,736,l),
(777,736,l),
(806,918,l),
(558,918,l),
(625,1372,l),
(865,1372,ls),
(1037,1372,o),
(1120,1249,o),
(1120,1009,cs)
);
}
);
};
layerId = "32C958FF-0ECC-43B0-8A26-125B8B46EA2F";
shapes = (
{
closed = 1;
nodes = (
(664,0,ls),
(916,0,o),
(1110,103,o),
(1242,283,cs),
(1373,463,o),
(1439,720,o),
(1438,1027,cs),
(1439,1231,o),
(1385,1376,o),
(1289,1470,cs),
(1192,1564,o),
(1054,1607,o),
(887,1607,cs),
(332,1607,l),
(236,918,l),
(137,918,l),
(109,736,l),
(210,736,l),
(108,0,l)
);
},
{
closed = 1;
nodes = (
(533,736,l),
(777,736,l),
(806,918,l),
(558,918,l),
(625,1372,l),
(865,1372,ls),
(1037,1372,o),
(1120,1249,o),
(1120,1009,cs),
(1117,593,o),
(997,231,o),
(680,231,cs),
(460,231,l)
);
}
);
userData = {
assembly = "SVTCA[0]	/* SetFreedomAndProjectionVectorToAxis */
PUSHB[ ]	/* 3 values pushed */
5 1 0
CALL[ ]	/* CallFunction */
PUSHB[ ]	/* 1 value pushed */
6
SHP[1]	/* ShiftPointByLastPoint */
PUSHB[ ]	/* 2 values pushed */
26 11
MIRP[01001]	/* MoveIndirectRelPt */
PUSHB[ ]	/* 3 values pushed */
12 4 0
CALL[ ]	/* CallFunction */
PUSHB[ ]	/* 1 value pushed */
11
SHP[1]	/* ShiftPointByLastPoint */
PUSHB[ ]	/* 2 values pushed */
21 11
MIRP[01001]	/* MoveIndirectRelPt */
PUSHB[ ]	/* 5 values pushed */
9 8 5 12 13
CALL[ ]	/* CallFunction */
PUSHB[ ]	/* 2 values pushed */
7 25
SHP[1]	/* ShiftPointByLastPoint */
SHP[1]	/* ShiftPointByLastPoint */
PUSHB[ ]	/* 5 values pushed */
9 7 0 23 4
CALL[ ]	/* CallFunction */
PUSHB[ ]	/* 2 values pushed */
10 22
SHP[0]	/* ShiftPointByLastPoint */
SHP[0]	/* ShiftPointByLastPoint */
SVTCA[1]	/* SetFreedomAndProjectionVectorToAxis */
PUSHB[ ]	/* 1 value pushed */
32
MDAP[1]	/* MoveDirectAbsPt */
PUSHB[ ]	/* 1 value pushed */
17
MDRP[10110]	/* MoveDirectRelPt */
PUSHB[ ]	/* 2 values pushed */
0 18
MIRP[01001]	/* MoveIndirectRelPt */
PUSHB[ ]	/* 1 value pushed */
0
SRP0[ ]	/* SetRefPoint0 */
PUSHB[ ]	/* 1 value pushed */
33
MDRP[10110]	/* MoveDirectRelPt */
PUSHB[ ]	/* 1 value pushed */
54
SMD[ ]	/* SetMinimumDistance */
PUSHW[ ]	/* 3 values pushed */
16227 -2262 21
CALL[ ]	/* CallFunction */
SPVFS[ ]	/* SetPVectorFromStack */
PUSHB[ ]	/* 1 value pushed */
6
MDAP[0]	/* MoveDirectAbsPt */
PUSHB[ ]	/* 1 value pushed */
21
MDAP[0]	/* MoveDirectAbsPt */
PUSHB[ ]	/* 1 value pushed */
6
SRP0[ ]	/* SetRefPoint0 */
PUSHB[ ]	/* 2 values pushed */
26 39
MIRP[11001]	/* MoveIndirectRelPt */
PUSHB[ ]	/* 1 value pushed */
21
SRP0[ ]	/* SetRefPoint0 */
PUSHB[ ]	/* 2 values pushed */
11 39
MIRP[11001]	/* MoveIndirectRelPt */
PUSHB[ ]	/* 1 value pushed */
6
SRP0[ ]	/* SetRefPoint0 */
PUSHB[ ]	/* 4 values pushed */
7 6 11 19
CALL[ ]	/* CallFunction */
PUSHB[ ]	/* 4 values pushed */
10 6 11 19
CALL[ ]	/* CallFunction */
PUSHB[ ]	/* 1 value pushed */
26
SRP0[ ]	/* SetRefPoint0 */
PUSHB[ ]	/* 4 values pushed */
22 26 21 19
CALL[ ]	/* CallFunction */
PUSHB[ ]	/* 4 values pushed */
25 26 21 19
CALL[ ]	/* CallFunction */
SPVTCA[1]	/* SetPVectorToAxis */
PUSHB[ ]	/* 8 values pushed */
6 7 10 11 21 22 25 26
MDAP[0]	/* MoveDirectAbsPt */
MDAP[0]	/* MoveDirectAbsPt */
MDAP[0]	/* MoveDirectAbsPt */
MDAP[0]	/* MoveDirectAbsPt */
MDAP[0]	/* MoveDirectAbsPt */
MDAP[0]	/* MoveDirectAbsPt */
MDAP[0]	/* MoveDirectAbsPt */
MDAP[0]	/* MoveDirectAbsPt */
PUSHB[ ]	/* 1 value pushed */
64
SMD[ ]	/* SetMinimumDistance */
SVTCA[0]	/* SetFreedomAndProjectionVectorToAxis */
IUP[0]	/* InterpolateUntPts */
IUP[1]	/* InterpolateUntPts */";
};
width = 1456;
},
{
background = {
shapes = (
{
closed = 1;
nodes = (
(1379.333,1398,o),
(1193.333,1583,o),
(852,1583,cs),
(328,1583,l),
(230,890,l),
(128,890,l),
(107,737,l),
(208,737,l),
(104,0,l),
(628,0,ls),
(936.969,0,o),
(1124.39,161.872,o),
(1234.5,367.5,cs),
(1343.347,570.769,o),
(1378,826.679,o),
(1378,1014,cs)
);
},
{
closed = 1;
nodes = (
(1160,861.991,o),
(1143.336,664.49,o),
(1064.5,475.5,cs),
(1015.833,358.833,o),
(941.5,265.667,o),
(835.5,211,cs),
(782.5,183.667,o),
(720.667,170,o),
(650,170,cs),
(345,170,l),
(425,737,l),
(764,737,l),
(784,890,l),
(446,890,l),
(520,1410,l),
(829,1410,ls),
(1051.214,1410,o),
(1160,1294.475,o),
(1160,1011,cs)
);
}
);
};
layerId = "747E1C2D-2712-4BCE-A1EA-426133F593D6";
shapes = (
{
closed = 1;
nodes = (
(628,0,ls),
(937,0,o),
(1124,162,o),
(1235,368,cs),
(1343,571,o),
(1378,827,o),
(1378,1014,cs),
(1379,1398,o),
(1193,1583,o),
(852,1583,cs),
(328,1583,l),
(230,890,l),
(128,890,l),
(107,737,l),
(208,737,l),
(104,0,l)
);
},
{
closed = 1;
nodes = (
(425,737,l),
(764,737,l),
(784,890,l),
(446,890,l),
(520,1410,l),
(829,1410,ls),
(1051,1410,o),
(1160,1294,o),
(1160,1011,cs),
(1160,862,o),
(1143,664,o),
(1065,476,cs),
(1016,359,o),
(942,266,o),
(836,211,cs),
(783,184,o),
(721,170,o),
(650,170,cs),
(345,170,l)
);
}
);
userData = {
assembly = "SVTCA[0]	/* SetFreedomAndProjectionVectorToAxis */
PUSHB[ ]	/* 3 values pushed */
10 1 0
CALL[ ]	/* CallFunction */
PUSHB[ ]	/* 2 values pushed */
30 9
MIRP[01001]	/* MoveIndirectRelPt */
PUSHB[ ]	/* 3 values pushed */
15 4 0
CALL[ ]	/* CallFunction */
PUSHB[ ]	/* 2 values pushed */
25 9
MIRP[01001]	/* MoveIndirectRelPt */
PUSHB[ ]	/* 5 values pushed */
13 12 10 15 13
CALL[ ]	/* CallFunction */
PUSHB[ ]	/* 2 values pushed */
11 29
SHP[1]	/* ShiftPointByLastPoint */
SHP[1]	/* ShiftPointByLastPoint */
PUSHB[ ]	/* 2 values pushed */
13 8
MIRP[01001]	/* MoveIndirectRelPt */
PUSHB[ ]	/* 2 values pushed */
14 26
SHP[0]	/* ShiftPointByLastPoint */
SHP[0]	/* ShiftPointByLastPoint */
SVTCA[1]	/* SetFreedomAndProjectionVectorToAxis */
PUSHB[ ]	/* 1 value pushed */
38
MDAP[1]	/* MoveDirectAbsPt */
PUSHB[ ]	/* 1 value pushed */
19
MDRP[10110]	/* MoveDirectRelPt */
PUSHB[ ]	/* 2 values pushed */
0 16
MIRP[01001]	/* MoveIndirectRelPt */
PUSHB[ ]	/* 1 value pushed */
0
SRP0[ ]	/* SetRefPoint0 */
PUSHB[ ]	/* 1 value pushed */
39
MDRP[10110]	/* MoveDirectRelPt */
PUSHB[ ]	/* 1 value pushed */
54
SMD[ ]	/* SetMinimumDistance */
PUSHW[ ]	/* 3 values pushed */
16222 -2296 21
CALL[ ]	/* CallFunction */
SPVFS[ ]	/* SetPVectorFromStack */
PUSHB[ ]	/* 1 value pushed */
10
MDAP[0]	/* MoveDirectAbsPt */
PUSHB[ ]	/* 1 value pushed */
25
MDAP[0]	/* MoveDirectAbsPt */
PUSHB[ ]	/* 1 value pushed */
10
SRP0[ ]	/* SetRefPoint0 */
PUSHB[ ]	/* 2 values pushed */
30 16
MIRP[11001]	/* MoveIndirectRelPt */
PUSHB[ ]	/* 1 value pushed */
25
SRP0[ ]	/* SetRefPoint0 */
PUSHB[ ]	/* 2 values pushed */
15 16
MIRP[11001]	/* MoveIndirectRelPt */
PUSHB[ ]	/* 1 value pushed */
10
SRP0[ ]	/* SetRefPoint0 */
PUSHB[ ]	/* 4 values pushed */
11 10 15 19
CALL[ ]	/* CallFunction */
PUSHB[ ]	/* 4 values pushed */
14 10 15 19
CALL[ ]	/* CallFunction */
PUSHB[ ]	/* 1 value pushed */
30
SRP0[ ]	/* SetRefPoint0 */
PUSHB[ ]	/* 4 values pushed */
26 30 25 19
CALL[ ]	/* CallFunction */
PUSHB[ ]	/* 4 values pushed */
29 30 25 19
CALL[ ]	/* CallFunction */
SPVTCA[1]	/* SetPVectorToAxis */
PUSHB[ ]	/* 8 values pushed */
10 11 14 15 25 26 29 30
MDAP[0]	/* MoveDirectAbsPt */
MDAP[0]	/* MoveDirectAbsPt */
MDAP[0]	/* MoveDirectAbsPt */
MDAP[0]	/* MoveDirectAbsPt */
MDAP[0]	/* MoveDirectAbsPt */
MDAP[0]	/* MoveDirectAbsPt */
MDAP[0]	/* MoveDirectAbsPt */
MDAP[0]	/* MoveDirectAbsPt */
PUSHB[ ]	/* 1 value pushed */
64
SMD[ ]	/* SetMinimumDistance */
PUSHB[ ]	/* 2 values pushed */
0 19
SRP1[ ]	/* SetRefPoint1 */
SRP2[ ]	/* SetRefPoint2 */
PUSHB[ ]	/* 1 value pushed */
2
IP[ ]	/* InterpolatePts */
SVTCA[0]	/* SetFreedomAndProjectionVectorToAxis */
PUSHB[ ]	/* 2 values pushed */
25 13
SRP1[ ]	/* SetRefPoint1 */
SRP2[ ]	/* SetRefPoint2 */
PUSHB[ ]	/* 1 value pushed */
19
IP[ ]	/* InterpolatePts */
IUP[0]	/* InterpolateUntPts */
IUP[1]	/* InterpolateUntPts */";
};
width = 1359;
}
);
note = Eth;
unicode = 208;
},
{
glyphname = E;
lastChange = "2024-06-14 12:43:58 +0000";
layers = (
{
anchors = (
{
name = bottom;
pos = (418,0);
},
{
name = ogonek;
pos = (852,10);
},
{
name = top;
pos = (752,1572);
},
{
name = topleft;
pos = (232,1572);
}
);
background = {
shapes = (
{
closed = 1;
nodes = (
(339,138,l),
(429,779,l),
(1063,779,l),
(1078,887,l),
(444,887,l),
(522,1439,l),
(1248,1439,l),
(1268,1577,l),
(368,1577,l),
(147,0,l),
(1058,0,l),
(1077,138,l),
(1077,138,l)
);
}
);
};
layerId = m01;
shapes = (
{
closed = 1;
nodes = (
(1058,0,l),
(1077,138,l),
(339,138,l),
(429,779,l),
(1063,779,l),
(1078,887,l),
(444,887,l),
(522,1439,l),
(1248,1439,l),
(1268,1577,l),
(368,1577,l),
(147,0,l)
);
}
);
userData = {
assembly = "SVTCA[0]	/* SetFreedomAndProjectionVectorToAxis */
PUSHB[ ]	/* 3 values pushed */
1 1 0
CALL[ ]	/* CallFunction */
PUSHB[ ]	/* 2 values pushed */
10 5
MIRP[01001]	/* MoveIndirectRelPt */
PUSHB[ ]	/* 3 values pushed */
2 4 0
CALL[ ]	/* CallFunction */
PUSHB[ ]	/* 2 values pushed */
5 5
MIRP[01001]	/* MoveIndirectRelPt */
PUSHB[ ]	/* 5 values pushed */
6 9 1 2 13
CALL[ ]	/* CallFunction */
PUSHB[ ]	/* 2 values pushed */
6 8
MIRP[01001]	/* MoveIndirectRelPt */
SVTCA[1]	/* SetFreedomAndProjectionVectorToAxis */
PUSHB[ ]	/* 1 value pushed */
12
MDAP[1]	/* MoveDirectAbsPt */
PUSHB[ ]	/* 1 value pushed */
13
MDRP[10110]	/* MoveDirectRelPt */
PUSHB[ ]	/* 1 value pushed */
54
SMD[ ]	/* SetMinimumDistance */
PUSHW[ ]	/* 3 values pushed */
16225 -2274 21
CALL[ ]	/* CallFunction */
SPVFS[ ]	/* SetPVectorFromStack */
PUSHB[ ]	/* 1 value pushed */
1
MDAP[0]	/* MoveDirectAbsPt */
PUSHB[ ]	/* 1 value pushed */
5
MDAP[0]	/* MoveDirectAbsPt */
PUSHB[ ]	/* 1 value pushed */
1
SRP0[ ]	/* SetRefPoint0 */
PUSHB[ ]	/* 2 values pushed */
10 12
MIRP[11001]	/* MoveIndirectRelPt */
PUSHB[ ]	/* 1 value pushed */
5
SRP0[ ]	/* SetRefPoint0 */
PUSHB[ ]	/* 2 values pushed */
2 12
MIRP[11001]	/* MoveIndirectRelPt */
PUSHB[ ]	/* 1 value pushed */
10
SRP0[ ]	/* SetRefPoint0 */
PUSHB[ ]	/* 4 values pushed */
6 10 5 19
CALL[ ]	/* CallFunction */
PUSHB[ ]	/* 4 values pushed */
9 10 5 19
CALL[ ]	/* CallFunction */
SPVTCA[1]	/* SetPVectorToAxis */
PUSHB[ ]	/* 6 values pushed */
1 2 5 6 9 10
MDAP[0]	/* MoveDirectAbsPt */
MDAP[0]	/* MoveDirectAbsPt */
MDAP[0]	/* MoveDirectAbsPt */
MDAP[0]	/* MoveDirectAbsPt */
MDAP[0]	/* MoveDirectAbsPt */
MDAP[0]	/* MoveDirectAbsPt */
PUSHB[ ]	/* 1 value pushed */
64
SMD[ ]	/* SetMinimumDistance */
SVTCA[0]	/* SetFreedomAndProjectionVectorToAxis */
IUP[0]	/* InterpolateUntPts */
IUP[1]	/* InterpolateUntPts */";
};
width = 1080;
},
{
anchors = (
{
name = bottom;
pos = (470,0);
},
{
name = ogonek;
pos = (943,10);
},
{
name = top;
pos = (811,1603);
},
{
name = topleft;
pos = (241,1603);
}
);
background = {
shapes = (
{
closed = 1;
nodes = (
(417,229,l),
(490,729,l),
(1058,729,l),
(1089,955,l),
(524,955,l),
(584,1373,l),
(1216,1373,l),
(1251,1606,l),
(304,1606,l),
(77,0,l),
(1042,0,l),
(1086,229,l),
(1086,229,l)
);
}
);
};
layerId = "32C958FF-0ECC-43B0-8A26-125B8B46EA2F";
shapes = (
{
closed = 1;
nodes = (
(1042,0,l),
(1086,229,l),
(417,229,l),
(490,729,l),
(1058,729,l),
(1089,955,l),
(524,955,l),
(584,1373,l),
(1216,1373,l),
(1251,1606,l),
(304,1606,l),
(77,0,l)
);
}
);
userData = {
assembly = "SVTCA[0]	/* SetFreedomAndProjectionVectorToAxis */
PUSHB[ ]	/* 3 values pushed */
1 1 0
CALL[ ]	/* CallFunction */
PUSHB[ ]	/* 2 values pushed */
10 10
MIRP[01001]	/* MoveIndirectRelPt */
PUSHB[ ]	/* 3 values pushed */
2 4 0
CALL[ ]	/* CallFunction */
PUSHB[ ]	/* 2 values pushed */
5 11
MIRP[01001]	/* MoveIndirectRelPt */
PUSHB[ ]	/* 5 values pushed */
6 9 1 2 13
CALL[ ]	/* CallFunction */
PUSHB[ ]	/* 2 values pushed */
6 10
MIRP[01001]	/* MoveIndirectRelPt */
SVTCA[1]	/* SetFreedomAndProjectionVectorToAxis */
PUSHB[ ]	/* 1 value pushed */
12
MDAP[1]	/* MoveDirectAbsPt */
PUSHB[ ]	/* 1 value pushed */
13
MDRP[10110]	/* MoveDirectRelPt */
PUSHB[ ]	/* 1 value pushed */
54
SMD[ ]	/* SetMinimumDistance */
PUSHW[ ]	/* 3 values pushed */
16223 -2293 21
CALL[ ]	/* CallFunction */
SPVFS[ ]	/* SetPVectorFromStack */
PUSHB[ ]	/* 1 value pushed */
1
MDAP[0]	/* MoveDirectAbsPt */
PUSHB[ ]	/* 1 value pushed */
5
MDAP[0]	/* MoveDirectAbsPt */
PUSHB[ ]	/* 1 value pushed */
1
SRP0[ ]	/* SetRefPoint0 */
PUSHB[ ]	/* 2 values pushed */
10 14
MIRP[11001]	/* MoveIndirectRelPt */
PUSHB[ ]	/* 1 value pushed */
5
SRP0[ ]	/* SetRefPoint0 */
PUSHB[ ]	/* 2 values pushed */
2 14
MIRP[11001]	/* MoveIndirectRelPt */
PUSHB[ ]	/* 1 value pushed */
10
SRP0[ ]	/* SetRefPoint0 */
PUSHB[ ]	/* 4 values pushed */
6 10 5 19
CALL[ ]	/* CallFunction */
PUSHB[ ]	/* 4 values pushed */
9 10 5 19
CALL[ ]	/* CallFunction */
SPVTCA[1]	/* SetPVectorToAxis */
PUSHB[ ]	/* 6 values pushed */
1 2 5 6 9 10
MDAP[0]	/* MoveDirectAbsPt */
MDAP[0]	/* MoveDirectAbsPt */
MDAP[0]	/* MoveDirectAbsPt */
MDAP[0]	/* MoveDirectAbsPt */
MDAP[0]	/* MoveDirectAbsPt */
MDAP[0]	/* MoveDirectAbsPt */
PUSHB[ ]	/* 1 value pushed */
64
SMD[ ]	/* SetMinimumDistance */
SVTCA[0]	/* SetFreedomAndProjectionVectorToAxis */
IUP[0]	/* InterpolateUntPts */
IUP[1]	/* InterpolateUntPts */";
};
width = 1179;
},
{
anchors = (
{
name = bottom;
pos = (434,0);
},
{
name = ogonek;
pos = (879,10);
},
{
name = top;
pos = (770,1582);
},
{
name = topleft;
pos = (235,1582);
}
);
background = {
shapes = (
{
closed = 1;
nodes = (
(362,165,l),
(447,764,l),
(1062,764,l),
(1082,907,l),
(468,907,l),
(540,1420,l),
(1238,1420,l),
(1263,1586,l),
(349,1586,l),
(126,0,l),
(1053,0,l),
(1079,165,l),
(1079,165,l)
);
}
);
};
layerId = "747E1C2D-2712-4BCE-A1EA-426133F593D6";
shapes = (
{
closed = 1;
nodes = (
(1053,0,l),
(1079,165,l),
(362,165,l),
(447,764,l),
(1062,764,l),
(1082,907,l),
(468,907,l),
(540,1420,l),
(1238,1420,l),
(1263,1586,l),
(349,1586,l),
(126,0,l)
);
}
);
userData = {
assembly = "SVTCA[0]	/* SetFreedomAndProjectionVectorToAxis */
PUSHB[ ]	/* 3 values pushed */
1 1 0
CALL[ ]	/* CallFunction */
PUSHB[ ]	/* 2 values pushed */
10 5
MIRP[01001]	/* MoveIndirectRelPt */
PUSHB[ ]	/* 3 values pushed */
2 4 0
CALL[ ]	/* CallFunction */
PUSHB[ ]	/* 2 values pushed */
5 5
MIRP[01001]	/* MoveIndirectRelPt */
PUSHB[ ]	/* 5 values pushed */
6 9 1 2 13
CALL[ ]	/* CallFunction */
PUSHB[ ]	/* 2 values pushed */
6 7
MIRP[01001]	/* MoveIndirectRelPt */
SVTCA[1]	/* SetFreedomAndProjectionVectorToAxis */
PUSHB[ ]	/* 1 value pushed */
12
MDAP[1]	/* MoveDirectAbsPt */
PUSHB[ ]	/* 1 value pushed */
13
MDRP[10110]	/* MoveDirectRelPt */
PUSHB[ ]	/* 1 value pushed */
54
SMD[ ]	/* SetMinimumDistance */
PUSHW[ ]	/* 3 values pushed */
16224 -2281 21
CALL[ ]	/* CallFunction */
SPVFS[ ]	/* SetPVectorFromStack */
PUSHB[ ]	/* 1 value pushed */
1
MDAP[0]	/* MoveDirectAbsPt */
PUSHB[ ]	/* 1 value pushed */
5
MDAP[0]	/* MoveDirectAbsPt */
PUSHB[ ]	/* 1 value pushed */
1
SRP0[ ]	/* SetRefPoint0 */
PUSHB[ ]	/* 2 values pushed */
10 11
MIRP[11001]	/* MoveIndirectRelPt */
PUSHB[ ]	/* 1 value pushed */
5
SRP0[ ]	/* SetRefPoint0 */
PUSHB[ ]	/* 2 values pushed */
2 11
MIRP[11001]	/* MoveIndirectRelPt */
PUSHB[ ]	/* 1 value pushed */
10
SRP0[ ]	/* SetRefPoint0 */
PUSHB[ ]	/* 4 values pushed */
6 10 5 19
CALL[ ]	/* CallFunction */
PUSHB[ ]	/* 4 values pushed */
9 10 5 19
CALL[ ]	/* CallFunction */
SPVTCA[1]	/* SetPVectorToAxis */
PUSHB[ ]	/* 6 values pushed */
1 2 5 6 9 10
MDAP[0]	/* MoveDirectAbsPt */
MDAP[0]	/* MoveDirectAbsPt */
MDAP[0]	/* MoveDirectAbsPt */
MDAP[0]	/* MoveDirectAbsPt */
MDAP[0]	/* MoveDirectAbsPt */
MDAP[0]	/* MoveDirectAbsPt */
PUSHB[ ]	/* 1 value pushed */
64
SMD[ ]	/* SetMinimumDistance */
SVTCA[0]	/* SetFreedomAndProjectionVectorToAxis */
IUP[0]	/* InterpolateUntPts */
IUP[1]	/* InterpolateUntPts */";
};
width = 1109;
}
);
note = E;
unicode = 69;
},
{
glyphname = Eacute;
lastChange = "2024-06-14 12:47:36 +0000";
layers = (
{
background = {
shapes = (
{
closed = 1;
nodes = (
(339,138,l),
(429,779,l),
(1063,779,l),
(1078,887,l),
(444,887,l),
(522,1439,l),
(1248,1439,l),
(1268,1577,l),
(368,1577,l),
(147,0,l),
(1058,0,l),
(1077,138,l),
(1077,138,l)
);
},
{
closed = 1;
nodes = (
(849,2298,l),
(657,1680,l),
(786,1680,l),
(1081,2298,l),
(1081,2298,l)
);
}
);
};
layerId = m01;
shapes = (
{
ref = E;
},
{
pos = (-1,426);
ref = acutecomb;
}
);
width = 1080;
},
{
background = {
shapes = (
{
closed = 1;
nodes = (
(417,229,l),
(490,729,l),
(1058,729,l),
(1089,955,l),
(524,955,l),
(584,1373,l),
(1216,1373,l),
(1251,1606,l),
(304,1606,l),
(77,0,l),
(1042,0,l),
(1086,229,l),
(1086,229,l)
);
},
{
closed = 1;
nodes = (
(751,2397,l),
(574,1708,l),
(772,1708,l),
(1131,2397,l),
(1131,2397,l)
);
}
);
};
layerId = "32C958FF-0ECC-43B0-8A26-125B8B46EA2F";
shapes = (
{
ref = E;
},
{
pos = (-84,477);
ref = acutecomb;
}
);
width = 1179;
},
{
background = {
shapes = (
{
closed = 1;
nodes = (
(362,165,l),
(447,764,l),
(1062,764,l),
(1082,907,l),
(468,907,l),
(540,1420,l),
(1238,1420,l),
(1263,1586,l),
(349,1586,l),
(126,0,l),
(1053,0,l),
(1079,165,l),
(1079,165,l)
);
},
{
closed = 1;
nodes = (
(821,2327,l),
(633,1688,l),
(782,1688,l),
(1097,2327,l),
(1097,2327,l)
);
}
);
};
layerId = "747E1C2D-2712-4BCE-A1EA-426133F593D6";
shapes = (
{
ref = E;
},
{
pos = (120,442);
ref = acutecomb;
}
);
width = 1109;
}
);
note = Eacute;
unicode = 201;
},
{
glyphname = Ebreve;
lastChange = "2024-06-14 12:43:47 +0000";
layers = (
{
background = {
shapes = (
{
closed = 1;
nodes = (
(339,138,l),
(429,779,l),
(1063,779,l),
(1078,887,l),
(444,887,l),
(522,1439,l),
(1248,1439,l),
(1268,1577,l),
(368,1577,l),
(147,0,l),
(1058,0,l),
(1077,138,l),
(1077,138,l)
);
}
);
};
layerId = m01;
shapes = (
{
ref = E;
},
{
pos = (218,426);
ref = brevecomb;
}
);
width = 1080;
},
{
background = {
shapes = (
{
closed = 1;
nodes = (
(417,229,l),
(490,729,l),
(1058,729,l),
(1089,955,l),
(524,955,l),
(584,1373,l),
(1216,1373,l),
(1251,1606,l),
(304,1606,l),
(77,0,l),
(1042,0,l),
(1086,229,l),
(1086,229,l)
);
},
{
closed = 1;
nodes = (
(962,2044,l),
(942,1913,o),
(896,1858,o),
(796,1858,cs),
(717,1858,o),
(692,1888,o),
(687,1955,c),
(684,1968,o),
(684,1982,o),
(685,1999,cs),
(686,2014,o),
(688,2027,o),
(691,2044,c),
(487,2044,l),
(480,2009,o),
(478,1980,o),
(479,1949,cs),
(486,1792,o),
(580,1719,o),
(772,1719,cs),
(996,1719,o),
(1121,1816,o),
(1160,2040,c),
(1164,2044,l),
(1164,2044,l)
);
}
);
};
layerId = "32C958FF-0ECC-43B0-8A26-125B8B46EA2F";
shapes = (
{
ref = E;
},
{
pos = (-69,477);
ref = brevecomb;
}
);
width = 1179;
},
{
background = {
shapes = (
{
closed = 1;
nodes = (
(362,165,l),
(447,764,l),
(1062,764,l),
(1082,907,l),
(468,907,l),
(540,1420,l),
(1238,1420,l),
(1263,1586,l),
(349,1586,l),
(126,0,l),
(1053,0,l),
(1079,165,l),
(1079,165,l)
);
},
{
closed = 1;
nodes = (
(988,1873,o),
(933,1823,o),
(848,1823,cs),
(803,1823,o),
(772,1838,o),
(756,1868,c),
(741,1885,o),
(732,1907,o),
(733,1936,cs),
(733,1945,o),
(734,1955,o),
(736,1966,c),
(602,1966,l),
(599,1943,o),
(597,1922,o),
(598,1903,cs),
(599,1775,o),
(668,1705,o),
(828,1705,cs),
(1000,1705,o),
(1094,1786,o),
(1127,1931,cs),
(1129,1937,o),
(1131,1943,o),
(1132,1949,cs),
(1133,1954,o),
(1134,1960,o),
(1135,1966,c),
(1003,1966,l),
(1003,1966,l)
);
}
);
};
layerId = "747E1C2D-2712-4BCE-A1EA-426133F593D6";
shapes = (
{
ref = E;
},
{
pos = (94,442);
ref = brevecomb;
}
);
width = 1109;
}
);
note = Ebreve;
unicode = 276;
},
{
glyphname = Ecaron;
lastChange = "2024-06-14 12:43:47 +0000";
layers = (
{
background = {
shapes = (
{
closed = 1;
nodes = (
(339,138,l),
(429,779,l),
(1063,779,l),
(1078,887,l),
(444,887,l),
(522,1439,l),
(1248,1439,l),
(1268,1577,l),
(368,1577,l),
(147,0,l),
(1058,0,l),
(1077,138,l),
(1077,138,l)
);
},
{
closed = 1;
nodes = (
(996,2221,l),
(800,1903,l),
(738,2221,l),
(608,2221,l),
(705,1697,l),
(812,1697,l),
(1149,2221,l),
(1149,2221,l)
);
}
);
};
layerId = m01;
shapes = (
{
ref = E;
},
{
pos = (216,426);
ref = caroncomb;
}
);
width = 1080;
},
{
background = {
shapes = (
{
closed = 1;
nodes = (
(417,229,l),
(490,729,l),
(1058,729,l),
(1089,955,l),
(524,955,l),
(584,1373,l),
(1216,1373,l),
(1251,1606,l),
(304,1606,l),
(77,0,l),
(1042,0,l),
(1086,229,l),
(1086,229,l)
);
},
{
closed = 1;
nodes = (
(943,2393,l),
(796,2073,l),
(727,2393,l),
(484,2393,l),
(654,1754,l),
(873,1754,l),
(1199,2393,l),
(1199,2393,l)
);
}
);
};
layerId = "32C958FF-0ECC-43B0-8A26-125B8B46EA2F";
shapes = (
{
ref = E;
},
{
pos = (84,477);
ref = caroncomb;
}
);
width = 1179;
},
{
background = {
shapes = (
{
closed = 1;
nodes = (
(362,165,l),
(447,764,l),
(1062,764,l),
(1082,907,l),
(468,907,l),
(540,1420,l),
(1238,1420,l),
(1263,1586,l),
(349,1586,l),
(126,0,l),
(1053,0,l),
(1079,165,l),
(1079,165,l)
);
},
{
closed = 1;
nodes = (
(1026,2281,l),
(845,1963,l),
(780,2281,l),
(617,2281,l),
(735,1723,l),
(875,1723,l),
(1209,2281,l),
(1209,2281,l)
);
}
);
};
layerId = "747E1C2D-2712-4BCE-A1EA-426133F593D6";
shapes = (
{
ref = E;
},
{
pos = (173,442);
ref = caroncomb;
}
);
width = 1109;
}
);
note = Ecaron;
unicode = 282;
},
{
glyphname = Ecircumflex;
lastChange = "2024-06-14 12:43:47 +0000";
layers = (
{
background = {
shapes = (
{
closed = 1;
nodes = (
(339,138,l),
(429,779,l),
(1063,779,l),
(1078,887,l),
(444,887,l),
(522,1439,l),
(1248,1439,l),
(1268,1577,l),
(368,1577,l),
(147,0,l),
(1058,0,l),
(1077,138,l),
(1077,138,l)
);
},
{
closed = 1;
nodes = (
(686,1697,l),
(881,2015,l),
(944,1697,l),
(1074,1697,l),
(966,2221,l),
(859,2221,l),
(533,1697,l),
(533,1697,l)
);
}
);
};
layerId = m01;
shapes = (
{
ref = E;
},
{
pos = (186,426);
ref = circumflexcomb;
}
);
width = 1080;
},
{
background = {
shapes = (
{
closed = 1;
nodes = (
(417,229,l),
(490,729,l),
(1058,729,l),
(1089,955,l),
(524,955,l),
(584,1373,l),
(1216,1373,l),
(1251,1606,l),
(304,1606,l),
(77,0,l),
(1042,0,l),
(1086,229,l),
(1086,229,l)
);
},
{
closed = 1;
nodes = (
(670,1755,l),
(817,2074,l),
(886,1755,l),
(1129,1755,l),
(958,2394,l),
(739,2394,l),
(414,1755,l),
(414,1755,l)
);
}
);
};
layerId = "32C958FF-0ECC-43B0-8A26-125B8B46EA2F";
shapes = (
{
ref = E;
},
{
pos = (18,477);
ref = circumflexcomb;
}
);
width = 1179;
},
{
background = {
shapes = (
{
closed = 1;
nodes = (
(362,165,l),
(447,764,l),
(1062,764,l),
(1082,907,l),
(468,907,l),
(540,1420,l),
(1238,1420,l),
(1263,1586,l),
(349,1586,l),
(126,0,l),
(1053,0,l),
(1079,165,l),
(1079,165,l)
);
},
{
closed = 1;
nodes = (
(682,1664,l),
(863,1982,l),
(927,1664,l),
(1091,1664,l),
(964,2221,l),
(824,2221,l),
(499,1664,l),
(499,1664,l)
);
}
);
};
layerId = "747E1C2D-2712-4BCE-A1EA-426133F593D6";
shapes = (
{
ref = E;
},
{
pos = (126,442);
ref = circumflexcomb;
}
);
width = 1109;
}
);
note = Ecircumflex;
unicode = 202;
},
{
glyphname = Edieresis;
lastChange = "2024-06-14 12:46:52 +0000";
layers = (
{
background = {
shapes = (
{
closed = 1;
nodes = (
(339,138,l),
(429,779,l),
(1063,779,l),
(1078,887,l),
(444,887,l),
(522,1439,l),
(1248,1439,l),
(1268,1577,l),
(368,1577,l),
(147,0,l),
(1058,0,l),
(1077,138,l),
(1077,138,l)
);
},
{
closed = 1;
nodes = (
(953,1888,o),
(916,1932,o),
(860,1932,cs),
(789,1932,o),
(727,1858,o),
(727,1787,cs),
(726,1727,o),
(764,1682,o),
(824,1682,cs),
(887,1682,o),
(953,1752,o),
(953,1830,cs),
(953,1828,l),
(953,1828,l)
);
},
{
closed = 1;
nodes = (
(1359,1827,o),
(1359,1827,o),
(1359,1827,cs),
(1358,1827,o),
(1358,1827,o),
(1358,1826,cs),
(1359,1886,o),
(1321,1930,o),
(1265,1930,cs),
(1194,1930,o),
(1132,1856,o),
(1132,1785,cs),
(1132,1725,o),
(1170,1680,o),
(1230,1680,cs),
(1293,1680,o),
(1359,1750,o),
(1359,1828,cs)
);
}
);
};
layerId = m01;
shapes = (
{
ref = E;
},
{
pos = (91,426);
ref = dieresiscomb;
}
);
width = 1080;
},
{
background = {
shapes = (
{
closed = 1;
nodes = (
(417,229,l),
(490,729,l),
(1058,729,l),
(1089,955,l),
(524,955,l),
(584,1373,l),
(1216,1373,l),
(1251,1606,l),
(304,1606,l),
(77,0,l),
(1042,0,l),
(1086,229,l),
(1086,229,l)
);
},
{
closed = 1;
nodes = (
(631,1951,o),
(631,1955,o),
(632,1959,cs),
(632,1963,o),
(632,1968,o),
(632,1973,cs),
(627,2054,o),
(566,2124,o),
(482,2124,cs),
(380,2124,o),
(290,2020,o),
(295,1913,cs),
(298,1829,o),
(363,1763,o),
(444,1763,cs),
(533,1763,o),
(620,1841,o),
(631,1946,cs)
);
},
{
closed = 1;
nodes = (
(1232,1950,o),
(1232,1955,o),
(1233,1959,cs),
(1233,1963,o),
(1233,1968,o),
(1233,1973,cs),
(1228,2056,o),
(1166,2124,o),
(1084,2124,cs),
(984,2124,o),
(892,2024,o),
(897,1913,cs),
(900,1828,o),
(964,1763,o),
(1046,1763,cs),
(1135,1763,o),
(1221,1842,o),
(1232,1945,cs)
);
}
);
};
layerId = "32C958FF-0ECC-43B0-8A26-125B8B46EA2F";
shapes = (
{
ref = E;
},
{
pos = (-14,477);
ref = dieresiscomb;
}
);
width = 1179;
},
{
background = {
shapes = (
{
closed = 1;
nodes = (
(362,165,l),
(447,764,l),
(1062,764,l),
(1082,907,l),
(468,907,l),
(540,1420,l),
(1238,1420,l),
(1263,1586,l),
(349,1586,l),
(126,0,l),
(1053,0,l),
(1079,165,l),
(1079,165,l)
);
},
{
closed = 1;
nodes = (
(947,1923,o),
(903,1972,o),
(839,1972,cs),
(758,1972,o),
(689,1893,o),
(689,1808,cs),
(689,1739,o),
(738,1689,o),
(802,1689,cs),
(873,1689,o),
(945,1764,o),
(948,1848,cs),
(948,1855,l),
(948,1855,l)
);
},
{
closed = 1;
nodes = (
(1410,1920,o),
(1366,1971,o),
(1302,1971,cs),
(1223,1971,o),
(1153,1889,o),
(1153,1807,cs),
(1154,1739,o),
(1200,1688,o),
(1265,1688,cs),
(1337,1688,o),
(1408,1764,o),
(1411,1846,cs),
(1411,1853,l),
(1411,1853,l)
);
}
);
};
layerId = "747E1C2D-2712-4BCE-A1EA-426133F593D6";
shapes = (
{
ref = E;
},
{
pos = (57,442);
ref = dieresiscomb;
}
);
width = 1109;
}
);
note = Edieresis;
unicode = 203;
},
{
glyphname = Edotaccent;
lastChange = "2024-06-14 12:43:47 +0000";
layers = (
{
background = {
shapes = (
{
closed = 1;
nodes = (
(339,138,l),
(429,779,l),
(1063,779,l),
(1078,887,l),
(444,887,l),
(522,1439,l),
(1248,1439,l),
(1268,1577,l),
(368,1577,l),
(147,0,l),
(1058,0,l),
(1077,138,l),
(1077,138,l)
);
}
);
};
layerId = m01;
shapes = (
{
ref = E;
},
{
pos = (235,426);
ref = dotaccentcomb;
}
);
width = 1080;
},
{
background = {
shapes = (
{
closed = 1;
nodes = (
(417,229,l),
(490,729,l),
(1058,729,l),
(1089,955,l),
(524,955,l),
(584,1373,l),
(1216,1373,l),
(1251,1606,l),
(304,1606,l),
(77,0,l),
(1042,0,l),
(1086,229,l),
(1086,229,l)
);
},
{
closed = 1;
nodes = (
(603,2181,l),
(544,1759,l),
(942,1761,l),
(1003,2181,l),
(1003,2181,l)
);
}
);
};
layerId = "32C958FF-0ECC-43B0-8A26-125B8B46EA2F";
shapes = (
{
ref = E;
},
{
pos = (245,477);
ref = dotaccentcomb;
}
);
width = 1179;
},
{
background = {
shapes = (
{
closed = 1;
nodes = (
(362,165,l),
(447,764,l),
(1062,764,l),
(1082,907,l),
(468,907,l),
(540,1420,l),
(1238,1420,l),
(1263,1586,l),
(349,1586,l),
(126,0,l),
(1053,0,l),
(1079,165,l),
(1079,165,l)
);
},
{
closed = 1;
nodes = (
(692,2093,l),
(646,1767,l),
(946,1767,l),
(990,2093,l),
(990,2093,l)
);
}
);
};
layerId = "747E1C2D-2712-4BCE-A1EA-426133F593D6";
shapes = (
{
ref = E;
},
{
pos = (324,442);
ref = dotaccentcomb;
}
);
width = 1109;
}
);
note = Edotaccent;
unicode = 278;
},
{
glyphname = Egrave;
lastChange = "2024-06-14 12:43:47 +0000";
layers = (
{
background = {
shapes = (
{
closed = 1;
nodes = (
(339,138,l),
(429,779,l),
(1063,779,l),
(1078,887,l),
(444,887,l),
(522,1439,l),
(1248,1439,l),
(1268,1577,l),
(368,1577,l),
(147,0,l),
(1058,0,l),
(1077,138,l),
(1077,138,l)
);
},
{
closed = 1;
nodes = (
(712,2322,l),
(945,1708,l),
(1015,1708,l),
(970,2322,l),
(970,2322,l)
);
}
);
};
layerId = m01;
shapes = (
{
ref = E;
},
{
pos = (509,426);
ref = gravecomb;
}
);
width = 1080;
},
{
background = {
shapes = (
{
closed = 1;
nodes = (
(417,229,l),
(490,729,l),
(1058,729,l),
(1089,955,l),
(524,955,l),
(584,1373,l),
(1216,1373,l),
(1251,1606,l),
(304,1606,l),
(77,0,l),
(1042,0,l),
(1086,229,l),
(1086,229,l)
);
},
{
closed = 1;
nodes = (
(508,2420,l),
(731,1708,l),
(924,1708,l),
(897,2420,l),
(897,2420,l)
);
}
);
};
layerId = "32C958FF-0ECC-43B0-8A26-125B8B46EA2F";
shapes = (
{
ref = E;
},
{
pos = (379,477);
ref = gravecomb;
}
);
width = 1179;
},
{
background = {
shapes = (
{
closed = 1;
nodes = (
(362,165,l),
(447,764,l),
(1062,764,l),
(1082,907,l),
(468,907,l),
(540,1420,l),
(1238,1420,l),
(1263,1586,l),
(349,1586,l),
(126,0,l),
(1053,0,l),
(1079,165,l),
(1079,165,l)
);
},
{
closed = 1;
nodes = (
(652,2351,l),
(883,1708,l),
(989,1708,l),
(949,2351,l),
(949,2351,l)
);
}
);
};
layerId = "747E1C2D-2712-4BCE-A1EA-426133F593D6";
shapes = (
{
ref = E;
},
{
pos = (333,442);
ref = gravecomb;
}
);
width = 1109;
}
);
note = Egrave;
unicode = 200;
},
{
glyphname = Emacron;
lastChange = "2024-06-14 12:43:47 +0000";
layers = (
{
background = {
shapes = (
{
closed = 1;
nodes = (
(339,138,l),
(429,779,l),
(1063,779,l),
(1078,887,l),
(444,887,l),
(522,1439,l),
(1248,1439,l),
(1268,1577,l),
(368,1577,l),
(147,0,l),
(1058,0,l),
(1077,138,l),
(1077,138,l)
);
}
);
};
layerId = m01;
shapes = (
{
ref = E;
},
{
pos = (98,426);
ref = macroncomb;
}
);
width = 1080;
},
{
background = {
shapes = (
{
closed = 1;
nodes = (
(417,229,l),
(490,729,l),
(1058,729,l),
(1089,955,l),
(524,955,l),
(584,1373,l),
(1216,1373,l),
(1251,1606,l),
(304,1606,l),
(77,0,l),
(1042,0,l),
(1086,229,l),
(1086,229,l)
);
},
{
closed = 1;
nodes = (
(363,1991,l),
(332,1765,l),
(1133,1765,l),
(1166,1991,l),
(1166,1991,l)
);
}
);
};
layerId = "32C958FF-0ECC-43B0-8A26-125B8B46EA2F";
shapes = (
{
ref = E;
},
{
pos = (140,477);
ref = macroncomb;
}
);
width = 1179;
},
{
background = {
shapes = (
{
closed = 1;
nodes = (
(362,165,l),
(447,764,l),
(1062,764,l),
(1082,907,l),
(468,907,l),
(540,1420,l),
(1238,1420,l),
(1263,1586,l),
(349,1586,l),
(126,0,l),
(1053,0,l),
(1079,165,l),
(1079,165,l)
);
},
{
closed = 1;
nodes = (
(520,1899,l),
(496,1730,l),
(1168,1730,l),
(1191,1899,l),
(1191,1899,l)
);
}
);
};
layerId = "747E1C2D-2712-4BCE-A1EA-426133F593D6";
shapes = (
{
ref = E;
},
{
pos = (111,442);
ref = macroncomb;
}
);
width = 1109;
}
);
note = Emacron;
unicode = 274;
},
{
glyphname = Eogonek;
lastChange = "2024-06-14 12:43:47 +0000";
layers = (
{
background = {
shapes = (
{
closed = 1;
nodes = (
(339,138,l),
(429,779,l),
(1063,779,l),
(1078,887,l),
(444,887,l),
(522,1439,l),
(1248,1439,l),
(1268,1577,l),
(368,1577,l),
(147,0,l),
(1058,0,l),
(1077,138,l),
(1077,138,l)
);
}
);
};
layerId = m01;
shapes = (
{
ref = E;
},
{
pos = (261,-1);
ref = ogonekcomb;
}
);
width = 1080;
},
{
background = {
shapes = (
{
closed = 1;
nodes = (
(417,229,l),
(490,729,l),
(1058,729,l),
(1089,955,l),
(524,955,l),
(584,1373,l),
(1216,1373,l),
(1251,1606,l),
(304,1606,l),
(77,0,l),
(1042,0,l),
(1086,229,l),
(1086,229,l)
);
},
{
closed = 1;
nodes = (
(860,-429,o),
(795,-451,o),
(735,-451,cs),
(663,-451,o),
(595,-420,o),
(595,-310,cs),
(595,-235,o),
(655,-149,o),
(711,-88,cs),
(745,-51,o),
(784,-15,o),
(828,20,c),
(706,20,l),
(652,-5,o),
(604,-35,o),
(562,-70,cs),
(489,-129,o),
(418,-217,o),
(418,-327,cs),
(418,-505,o),
(547,-604,o),
(703,-604,cs),
(774,-604,o),
(846,-584,o),
(913,-541,c),
(899,-408,l),
(899,-408,l)
);
}
);
};
layerId = "32C958FF-0ECC-43B0-8A26-125B8B46EA2F";
shapes = (
{
ref = E;
},
{
pos = (377,-10);
ref = ogonekcomb;
}
);
width = 1179;
},
{
background = {
shapes = (
{
closed = 1;
nodes = (
(362,165,l),
(447,764,l),
(1062,764,l),
(1082,907,l),
(468,907,l),
(540,1420,l),
(1238,1420,l),
(1263,1586,l),
(349,1586,l),
(126,0,l),
(1053,0,l),
(1079,165,l),
(1079,165,l)
);
},
{
closed = 1;
nodes = (
(901,-406,o),
(884,-410,o),
(867,-413,cs),
(836,-420,o),
(797,-425,o),
(758,-425,cs),
(681,-425,o),
(602,-403,o),
(602,-310,cs),
(602,-232,o),
(663,-151,o),
(732,-85,cs),
(770,-48,o),
(813,-14,o),
(862,19,c),
(756,19,l),
(701,-8,o),
(653,-38,o),
(610,-71,cs),
(538,-127,o),
(465,-209,o),
(465,-306,cs),
(465,-500,o),
(606,-545,o),
(734,-545,cs),
(782,-545,o),
(827,-539,o),
(862,-532,cs),
(882,-529,o),
(900,-524,o),
(917,-519,c),
(917,-401,l),
(917,-401,l)
);
}
);
};
layerId = "747E1C2D-2712-4BCE-A1EA-426133F593D6";
shapes = (
{
ref = E;
},
{
pos = (302,-9);
ref = ogonekcomb;
}
);
width = 1109;
}
);
note = Eogonek;
unicode = 280;
},
{
glyphname = Etilde;
lastChange = "2024-06-14 12:43:47 +0000";
layers = (
{
background = {
shapes = (
{
closed = 1;
nodes = (
(339,138,l),
(429,779,l),
(1063,779,l),
(1078,887,l),
(444,887,l),
(522,1439,l),
(1248,1439,l),
(1268,1577,l),
(368,1577,l),
(147,0,l),
(1058,0,l),
(1077,138,l),
(1077,138,l)
);
},
{
closed = 1;
nodes = (
(1121,1698,o),
(1207,1752,o),
(1207,1933,c),
(1066,1933,l),
(1066,1857,o),
(1040,1841,o),
(993,1841,cs),
(907,1841,o),
(798,1958,o),
(675,1958,cs),
(550,1958,o),
(453,1885,o),
(453,1724,c),
(596,1724,l),
(596,1808,o),
(630,1816,o),
(668,1816,cs),
(742,1816,o),
(877,1698,o),
(1008,1698,cs)
);
}
);
};
layerId = m01;
shapes = (
{
ref = E;
},
{
pos = (191,426);
ref = tildecomb;
}
);
width = 1080;
},
{
background = {
shapes = (
{
closed = 1;
nodes = (
(417,229,l),
(490,729,l),
(1058,729,l),
(1089,955,l),
(524,955,l),
(584,1373,l),
(1216,1373,l),
(1251,1606,l),
(304,1606,l),
(77,0,l),
(1042,0,l),
(1086,229,l),
(1086,229,l)
);
},
{
closed = 1;
nodes = (
(1021,1750,o),
(1078,1781,o),
(1121,1837,cs),
(1164,1892,o),
(1192,1972,o),
(1203,2072,c),
(1002,2072,l),
(989,1988,o),
(985,1967,o),
(934,1967,cs),
(829,1967,o),
(756,2111,o),
(596,2111,cs),
(451,2111,o),
(365,2000,o),
(344,1776,c),
(535,1776,l),
(540,1823,o),
(548,1855,o),
(560,1874,cs),
(571,1892,o),
(587,1901,o),
(607,1901,cs),
(688,1901,o),
(795,1750,o),
(954,1750,cs)
);
}
);
};
layerId = "32C958FF-0ECC-43B0-8A26-125B8B46EA2F";
shapes = (
{
ref = E;
},
{
pos = (82,477);
ref = tildecomb;
}
);
width = 1179;
},
{
background = {
shapes = (
{
closed = 1;
nodes = (
(362,165,l),
(447,764,l),
(1062,764,l),
(1082,907,l),
(468,907,l),
(540,1420,l),
(1238,1420,l),
(1263,1586,l),
(349,1586,l),
(126,0,l),
(1053,0,l),
(1079,165,l),
(1079,165,l)
);
},
{
closed = 1;
nodes = (
(1108,1712,o),
(1201,1787,o),
(1206,1973,c),
(1047,1973,l),
(1044,1891,o),
(1020,1877,o),
(975,1877,cs),
(877,1877,o),
(791,2003,o),
(651,2003,cs),
(521,2003,o),
(425,1920,o),
(420,1738,c),
(578,1738,l),
(580,1823,o),
(609,1840,o),
(650,1840,cs),
(730,1840,o),
(849,1712,o),
(991,1712,cs)
);
}
);
};
layerId = "747E1C2D-2712-4BCE-A1EA-426133F593D6";
shapes = (
{
ref = E;
},
{
pos = (160,442);
ref = tildecomb;
}
);
width = 1109;
}
);
note = uni1EBC;
unicode = 7868;
},
{
glyphname = F;
lastChange = "2024-06-14 12:43:58 +0000";
layers = (
{
anchors = (
{
name = bottom;
pos = (409,0);
},
{
name = top;
pos = (743,1572);
}
);
background = {
shapes = (
{
closed = 1;
nodes = (
(1070,874,l),
(441,874,l),
(522,1441,l),
(1218,1441,l),
(1235,1577,l),
(368,1577,l),
(147,0,l),
(319,0,l),
(426,766,l),
(1057,766,l),
(1057,766,l)
);
}
);
};
layerId = m01;
shapes = (
{
closed = 1;
nodes = (
(319,0,l),
(426,766,l),
(1057,766,l),
(1070,874,l),
(441,874,l),
(522,1441,l),
(1218,1441,l),
(1235,1577,l),
(368,1577,l),
(147,0,l)
);
}
);
userData = {
assembly = "SVTCA[0]	/* SetFreedomAndProjectionVectorToAxis */
PUSHB[ ]	/* 3 values pushed */
2 1 0
CALL[ ]	/* CallFunction */
PUSHB[ ]	/* 1 value pushed */
1
SHP[1]	/* ShiftPointByLastPoint */
PUSHB[ ]	/* 3 values pushed */
3 4 0
CALL[ ]	/* CallFunction */
PUSHB[ ]	/* 2 values pushed */
6 5
MIRP[01001]	/* MoveIndirectRelPt */
PUSHB[ ]	/* 5 values pushed */
7 0 2 3 13
CALL[ ]	/* CallFunction */
PUSHB[ ]	/* 2 values pushed */
7 8
MIRP[01001]	/* MoveIndirectRelPt */
SVTCA[1]	/* SetFreedomAndProjectionVectorToAxis */
PUSHB[ ]	/* 1 value pushed */
10
MDAP[1]	/* MoveDirectAbsPt */
PUSHB[ ]	/* 1 value pushed */
11
MDRP[10110]	/* MoveDirectRelPt */
PUSHB[ ]	/* 1 value pushed */
54
SMD[ ]	/* SetMinimumDistance */
PUSHW[ ]	/* 3 values pushed */
16225 -2274 21
CALL[ ]	/* CallFunction */
SPVFS[ ]	/* SetPVectorFromStack */
PUSHB[ ]	/* 1 value pushed */
2
MDAP[0]	/* MoveDirectAbsPt */
PUSHB[ ]	/* 1 value pushed */
6
MDAP[0]	/* MoveDirectAbsPt */
PUSHB[ ]	/* 1 value pushed */
2
SRP0[ ]	/* SetRefPoint0 */
PUSHB[ ]	/* 2 values pushed */
1 12
MIRP[11001]	/* MoveIndirectRelPt */
PUSHB[ ]	/* 1 value pushed */
6
SRP0[ ]	/* SetRefPoint0 */
PUSHB[ ]	/* 2 values pushed */
3 12
MIRP[11001]	/* MoveIndirectRelPt */
PUSHB[ ]	/* 1 value pushed */
1
SRP0[ ]	/* SetRefPoint0 */
PUSHB[ ]	/* 4 values pushed */
0 1 6 19
CALL[ ]	/* CallFunction */
PUSHB[ ]	/* 4 values pushed */
7 1 6 19
CALL[ ]	/* CallFunction */
SPVTCA[1]	/* SetPVectorToAxis */
PUSHB[ ]	/* 6 values pushed */
0 1 2 3 6 7
MDAP[0]	/* MoveDirectAbsPt */
MDAP[0]	/* MoveDirectAbsPt */
MDAP[0]	/* MoveDirectAbsPt */
MDAP[0]	/* MoveDirectAbsPt */
MDAP[0]	/* MoveDirectAbsPt */
MDAP[0]	/* MoveDirectAbsPt */
PUSHB[ ]	/* 1 value pushed */
64
SMD[ ]	/* SetMinimumDistance */
SVTCA[0]	/* SetFreedomAndProjectionVectorToAxis */
IUP[0]	/* InterpolateUntPts */
IUP[1]	/* InterpolateUntPts */";
};
width = 1062;
},
{
anchors = (
{
name = bottom;
pos = (453,0);
},
{
name = top;
pos = (794,1603);
}
);
background = {
shapes = (
{
closed = 1;
nodes = (
(1153,955,l),
(533,955,l),
(587,1343,l),
(1262,1343,l),
(1299,1606,l),
(312,1606,l),
(75,0,l),
(389,0,l),
(500,728,l),
(1119,728,l),
(1119,728,l)
);
}
);
};
layerId = "32C958FF-0ECC-43B0-8A26-125B8B46EA2F";
shapes = (
{
closed = 1;
nodes = (
(389,0,l),
(500,728,l),
(1119,728,l),
(1153,955,l),
(533,955,l),
(587,1343,l),
(1262,1343,l),
(1299,1606,l),
(312,1606,l),
(75,0,l)
);
}
);
userData = {
assembly = "SVTCA[0]	/* SetFreedomAndProjectionVectorToAxis */
PUSHB[ ]	/* 3 values pushed */
2 1 0
CALL[ ]	/* CallFunction */
PUSHB[ ]	/* 1 value pushed */
1
SHP[1]	/* ShiftPointByLastPoint */
PUSHB[ ]	/* 3 values pushed */
3 4 0
CALL[ ]	/* CallFunction */
PUSHB[ ]	/* 2 values pushed */
6 13
MIRP[01001]	/* MoveIndirectRelPt */
PUSHB[ ]	/* 5 values pushed */
7 0 2 3 13
CALL[ ]	/* CallFunction */
PUSHB[ ]	/* 2 values pushed */
7 10
MIRP[01001]	/* MoveIndirectRelPt */
SVTCA[1]	/* SetFreedomAndProjectionVectorToAxis */
PUSHB[ ]	/* 1 value pushed */
10
MDAP[1]	/* MoveDirectAbsPt */
PUSHB[ ]	/* 1 value pushed */
11
MDRP[10110]	/* MoveDirectRelPt */
PUSHB[ ]	/* 1 value pushed */
54
SMD[ ]	/* SetMinimumDistance */
PUSHW[ ]	/* 3 values pushed */
16208 -2392 21
CALL[ ]	/* CallFunction */
SPVFS[ ]	/* SetPVectorFromStack */
PUSHB[ ]	/* 1 value pushed */
2
MDAP[0]	/* MoveDirectAbsPt */
PUSHB[ ]	/* 1 value pushed */
6
MDAP[0]	/* MoveDirectAbsPt */
PUSHB[ ]	/* 1 value pushed */
2
SRP0[ ]	/* SetRefPoint0 */
PUSHB[ ]	/* 2 values pushed */
1 17
MIRP[11001]	/* MoveIndirectRelPt */
PUSHB[ ]	/* 1 value pushed */
6
SRP0[ ]	/* SetRefPoint0 */
PUSHB[ ]	/* 2 values pushed */
3 17
MIRP[11001]	/* MoveIndirectRelPt */
PUSHB[ ]	/* 1 value pushed */
1
SRP0[ ]	/* SetRefPoint0 */
PUSHB[ ]	/* 4 values pushed */
0 1 6 19
CALL[ ]	/* CallFunction */
PUSHB[ ]	/* 4 values pushed */
7 1 6 19
CALL[ ]	/* CallFunction */
SPVTCA[1]	/* SetPVectorToAxis */
PUSHB[ ]	/* 6 values pushed */
0 1 2 3 6 7
MDAP[0]	/* MoveDirectAbsPt */
MDAP[0]	/* MoveDirectAbsPt */
MDAP[0]	/* MoveDirectAbsPt */
MDAP[0]	/* MoveDirectAbsPt */
MDAP[0]	/* MoveDirectAbsPt */
MDAP[0]	/* MoveDirectAbsPt */
PUSHB[ ]	/* 1 value pushed */
64
SMD[ ]	/* SetMinimumDistance */
SVTCA[0]	/* SetFreedomAndProjectionVectorToAxis */
IUP[0]	/* InterpolateUntPts */
IUP[1]	/* InterpolateUntPts */";
};
width = 1145;
},
{
anchors = (
{
name = bottom;
pos = (422,0);
},
{
name = top;
pos = (758,1582);
}
);
background = {
shapes = (
{
closed = 1;
nodes = (
(1094,898,l),
(468,898,l),
(541,1412,l),
(1231,1412,l),
(1254,1586,l),
(351,1586,l),
(126,0,l),
(340,0,l),
(448,755,l),
(1075,755,l),
(1075,755,l)
);
}
);
};
layerId = "747E1C2D-2712-4BCE-A1EA-426133F593D6";
shapes = (
{
closed = 1;
nodes = (
(340,0,l),
(448,755,l),
(1075,755,l),
(1094,898,l),
(468,898,l),
(541,1412,l),
(1231,1412,l),
(1254,1586,l),
(351,1586,l),
(126,0,l)
);
}
);
userData = {
assembly = "SVTCA[0]	/* SetFreedomAndProjectionVectorToAxis */
PUSHB[ ]	/* 3 values pushed */
2 1 0
CALL[ ]	/* CallFunction */
PUSHB[ ]	/* 1 value pushed */
1
SHP[1]	/* ShiftPointByLastPoint */
PUSHB[ ]	/* 3 values pushed */
3 4 0
CALL[ ]	/* CallFunction */
PUSHB[ ]	/* 2 values pushed */
6 9
MIRP[01001]	/* MoveIndirectRelPt */
PUSHB[ ]	/* 5 values pushed */
7 0 2 3 13
CALL[ ]	/* CallFunction */
PUSHB[ ]	/* 2 values pushed */
7 7
MIRP[01001]	/* MoveIndirectRelPt */
SVTCA[1]	/* SetFreedomAndProjectionVectorToAxis */
PUSHB[ ]	/* 1 value pushed */
10
MDAP[1]	/* MoveDirectAbsPt */
PUSHB[ ]	/* 1 value pushed */
11
MDRP[10110]	/* MoveDirectRelPt */
PUSHB[ ]	/* 1 value pushed */
54
SMD[ ]	/* SetMinimumDistance */
PUSHW[ ]	/* 3 values pushed */
16222 -2301 21
CALL[ ]	/* CallFunction */
SPVFS[ ]	/* SetPVectorFromStack */
PUSHB[ ]	/* 1 value pushed */
2
MDAP[0]	/* MoveDirectAbsPt */
PUSHB[ ]	/* 1 value pushed */
6
MDAP[0]	/* MoveDirectAbsPt */
PUSHB[ ]	/* 1 value pushed */
2
SRP0[ ]	/* SetRefPoint0 */
PUSHB[ ]	/* 2 values pushed */
1 11
MIRP[11001]	/* MoveIndirectRelPt */
PUSHB[ ]	/* 1 value pushed */
6
SRP0[ ]	/* SetRefPoint0 */
PUSHB[ ]	/* 2 values pushed */
3 11
MIRP[11001]	/* MoveIndirectRelPt */
PUSHB[ ]	/* 1 value pushed */
1
SRP0[ ]	/* SetRefPoint0 */
PUSHB[ ]	/* 4 values pushed */
0 1 6 19
CALL[ ]	/* CallFunction */
PUSHB[ ]	/* 4 values pushed */
7 1 6 19
CALL[ ]	/* CallFunction */
SPVTCA[1]	/* SetPVectorToAxis */
PUSHB[ ]	/* 6 values pushed */
0 1 2 3 6 7
MDAP[0]	/* MoveDirectAbsPt */
MDAP[0]	/* MoveDirectAbsPt */
MDAP[0]	/* MoveDirectAbsPt */
MDAP[0]	/* MoveDirectAbsPt */
MDAP[0]	/* MoveDirectAbsPt */
MDAP[0]	/* MoveDirectAbsPt */
PUSHB[ ]	/* 1 value pushed */
64
SMD[ ]	/* SetMinimumDistance */
SVTCA[0]	/* SetFreedomAndProjectionVectorToAxis */
IUP[0]	/* InterpolateUntPts */
IUP[1]	/* InterpolateUntPts */";
};
width = 1086;
}
);
note = F;
unicode = 70;
},
{
glyphname = G;
lastChange = "2024-06-14 12:43:58 +0000";
layers = (
{
anchors = (
{
name = bottom;
pos = (568,0);
},
{
name = top;
pos = (902,1572);
}
);
background = {
shapes = (
{
closed = 1;
nodes = (
(219,348.333,o),
(266,201.333,o),
(354,104,cs),
(442,6.667,o),
(572.333,-40,o),
(739,-40,cs),
(1009.732,-40,o),
(1129.173,85.843,o),
(1184,172,c),
(1184,0,l),
(1275,0,l),
(1388,808,l),
(843,808,l),
(824,686,l),
(1213,686,l),
(1174,384,ls),
(1174,385.333,o),
(1174.167,386.333,o),
(1174.5,387,cs),
(1174.833,387.667,o),
(1175,388.667,o),
(1175,390,cs),
(1165.667,307.333,o),
(1128.667,235.833,o),
(1062,184.5,cs),
(995.333,133.167,o),
(899.333,103,o),
(770,103,cs),
(531.237,103,o),
(398,232.323,o),
(398,554,cs),
(398,705.878,o),
(424.498,933.696,o),
(508.5,1118.5,cs),
(595.39,1309.659,o),
(742.298,1464,o),
(991,1464,cs),
(1024.333,1464,o),
(1064.5,1457.5,o),
(1118.5,1439.5,cs),
(1172.5,1421.5,o),
(1241,1392.333,o),
(1333,1347,c),
(1396,1475,l),
(1305.333,1535,o),
(1226.5,1568.333,o),
(1160.5,1587,cs),
(1094.5,1605.667,o),
(1041.333,1609,o),
(1004,1609,cs),
(687.984,1609,o),
(492.11,1440.272,o),
(374,1221.5,cs),
(257.944,1006.533,o),
(219,741.703,o),
(219,551,cs)
);
}
);
};
layerId = m01;
shapes = (
{
closed = 1;
nodes = (
(1010,-40,o),
(1129,86,o),
(1184,172,c),
(1184,0,l),
(1275,0,l),
(1388,808,l),
(843,808,l),
(824,686,l),
(1213,686,l),
(1174,384,ls),
(1174,385,o),
(1174,386,o),
(1175,387,cs),
(1175,388,o),
(1175,389,o),
(1175,390,cs),
(1166,307,o),
(1129,236,o),
(1062,185,cs),
(995,133,o),
(899,103,o),
(770,103,cs),
(531,103,o),
(398,232,o),
(398,554,cs),
(398,706,o),
(424,934,o),
(509,1119,cs),
(595,1310,o),
(742,1464,o),
(991,1464,cs),
(1024,1464,o),
(1065,1458,o),
(1119,1440,cs),
(1173,1422,o),
(1241,1392,o),
(1333,1347,c),
(1396,1475,l),
(1305,1535,o),
(1227,1568,o),
(1161,1587,cs),
(1095,1606,o),
(1041,1609,o),
(1004,1609,cs),
(688,1609,o),
(492,1440,o),
(374,1222,cs),
(258,1007,o),
(219,742,o),
(219,551,cs),
(219,348,o),
(266,201,o),
(354,104,cs),
(442,7,o),
(572,-40,o),
(739,-40,cs)
);
}
);
userData = {
assembly = "SVTCA[0]	/* SetFreedomAndProjectionVectorToAxis */
PUSHB[ ]	/* 3 values pushed */
48 1 0
CALL[ ]	/* CallFunction */
PUSHB[ ]	/* 3 values pushed */
54 1 0
CALL[ ]	/* CallFunction */
PUSHB[ ]	/* 2 values pushed */
34 11
MIRP[01001]	/* MoveIndirectRelPt */
PUSHB[ ]	/* 3 values pushed */
9 4 0
CALL[ ]	/* CallFunction */
PUSHB[ ]	/* 2 values pushed */
20 11
MIRP[01001]	/* MoveIndirectRelPt */
PUSHB[ ]	/* 5 values pushed */
44 45 54 9 13
CALL[ ]	/* CallFunction */
PUSHB[ ]	/* 2 values pushed */
44 9
MIRP[01001]	/* MoveIndirectRelPt */
PUSHB[ ]	/* 4 values pushed */
15 54 9 8
CALL[ ]	/* CallFunction */
SVTCA[1]	/* SetFreedomAndProjectionVectorToAxis */
PUSHB[ ]	/* 1 value pushed */
59
MDAP[1]	/* MoveDirectAbsPt */
PUSHB[ ]	/* 1 value pushed */
0
MDRP[10110]	/* MoveDirectRelPt */
PUSHB[ ]	/* 2 values pushed */
29 17
MIRP[01001]	/* MoveIndirectRelPt */
PUSHB[ ]	/* 1 value pushed */
29
SRP0[ ]	/* SetRefPoint0 */
PUSHB[ ]	/* 3 values pushed */
0 48 16
CALL[ ]	/* CallFunction */
PUSHB[ ]	/* 5 values pushed */
47 13 0 18 4
CALL[ ]	/* CallFunction */
PUSHB[ ]	/* 3 values pushed */
47 48 10
CALL[ ]	/* CallFunction */
PUSHB[ ]	/* 4 values pushed */
64 47 46 9
CALL[ ]	/* CallFunction */
PUSHB[ ]	/* 1 value pushed */
47
SRP0[ ]	/* SetRefPoint0 */
PUSHB[ ]	/* 3 values pushed */
48 14 16
CALL[ ]	/* CallFunction */
PUSHB[ ]	/* 1 value pushed */
60
MDRP[10110]	/* MoveDirectRelPt */
PUSHB[ ]	/* 1 value pushed */
54
SMD[ ]	/* SetMinimumDistance */
PUSHB[ ]	/* 1 value pushed */
38
SMD[ ]	/* SetMinimumDistance */
SVTCA[1]	/* SetFreedomAndProjectionVectorToAxis */
PUSHB[ ]	/* 2 values pushed */
15 14
MDAP[0]	/* MoveDirectAbsPt */
MDRP[01001]	/* MoveDirectRelPt */
SVTCA[0]	/* SetFreedomAndProjectionVectorToAxis */
PUSHB[ ]	/* 2 values pushed */
14 15
MDAP[0]	/* MoveDirectAbsPt */
MDRP[01001]	/* MoveDirectRelPt */
PUSHB[ ]	/* 1 value pushed */
54
SMD[ ]	/* SetMinimumDistance */
PUSHW[ ]	/* 3 values pushed */
-7109 -14761 21
CALL[ ]	/* CallFunction */
SPVFS[ ]	/* SetPVectorFromStack */
SFVTPV[ ]	/* SetFVectorToPVector */
PUSHB[ ]	/* 1 value pushed */
15
SRP0[ ]	/* SetRefPoint0 */
PUSHB[ ]	/* 1 value pushed */
17
MDRP[00000]	/* MoveDirectRelPt */
PUSHB[ ]	/* 1 value pushed */
14
SRP0[ ]	/* SetRefPoint0 */
PUSHB[ ]	/* 1 value pushed */
12
MDRP[00000]	/* MoveDirectRelPt */
PUSHB[ ]	/* 1 value pushed */
12
SRP0[ ]	/* SetRefPoint0 */
PUSHB[ ]	/* 4 values pushed */
13 12 14 19
CALL[ ]	/* CallFunction */
PUSHB[ ]	/* 1 value pushed */
17
SRP0[ ]	/* SetRefPoint0 */
PUSHB[ ]	/* 4 values pushed */
16 17 15 19
CALL[ ]	/* CallFunction */
PUSHB[ ]	/* 3 values pushed */
13 12 14
DUP[ ]	/* DuplicateTopStack */
ROLL[ ]	/* RollTopThreeStack */
DUP[ ]	/* DuplicateTopStack */
ROLL[ ]	/* RollTopThreeStack */
SWAP[ ]	/* SwapTopStack */
SPVTL[0]	/* SetPVectorToLine */
SFVTPV[ ]	/* SetFVectorToPVector */
SRP1[ ]	/* SetRefPoint1 */
SRP2[ ]	/* SetRefPoint2 */
IP[ ]	/* InterpolatePts */
PUSHB[ ]	/* 3 values pushed */
16 17 15
DUP[ ]	/* DuplicateTopStack */
ROLL[ ]	/* RollTopThreeStack */
DUP[ ]	/* DuplicateTopStack */
ROLL[ ]	/* RollTopThreeStack */
SWAP[ ]	/* SwapTopStack */
SPVTL[0]	/* SetPVectorToLine */
SFVTPV[ ]	/* SetFVectorToPVector */
SRP1[ ]	/* SetRefPoint1 */
SRP2[ ]	/* SetRefPoint2 */
IP[ ]	/* InterpolatePts */
SVTCA[0]	/* SetFreedomAndProjectionVectorToAxis */
PUSHB[ ]	/* 4 values pushed */
12 13 16 17
MDAP[0]	/* MoveDirectAbsPt */
MDAP[0]	/* MoveDirectAbsPt */
MDAP[0]	/* MoveDirectAbsPt */
MDAP[0]	/* MoveDirectAbsPt */
SVTCA[1]	/* SetFreedomAndProjectionVectorToAxis */
PUSHB[ ]	/* 4 values pushed */
12 13 16 17
MDAP[0]	/* MoveDirectAbsPt */
MDAP[0]	/* MoveDirectAbsPt */
MDAP[0]	/* MoveDirectAbsPt */
MDAP[0]	/* MoveDirectAbsPt */
PUSHB[ ]	/* 1 value pushed */
64
SMD[ ]	/* SetMinimumDistance */
SVTCA[1]	/* SetFreedomAndProjectionVectorToAxis */
PUSHB[ ]	/* 2 values pushed */
48 29
SRP1[ ]	/* SetRefPoint1 */
SRP2[ ]	/* SetRefPoint2 */
PUSHB[ ]	/* 6 values pushed */
9 39 42 44 45 54
DEPTH[ ]	/* GetDepthStack */
SLOOP[ ]	/* SetLoopVariable */
IP[ ]	/* InterpolatePts */
PUSHB[ ]	/* 1 value pushed */
47
SRP1[ ]	/* SetRefPoint1 */
PUSHB[ ]	/* 1 value pushed */
43
IP[ ]	/* InterpolatePts */
SVTCA[0]	/* SetFreedomAndProjectionVectorToAxis */
PUSHB[ ]	/* 2 values pushed */
44 34
SRP1[ ]	/* SetRefPoint1 */
SRP2[ ]	/* SetRefPoint2 */
PUSHB[ ]	/* 3 values pushed */
29 0 49
IP[ ]	/* InterpolatePts */
IP[ ]	/* InterpolatePts */
IP[ ]	/* InterpolatePts */
IUP[0]	/* InterpolateUntPts */
IUP[1]	/* InterpolateUntPts */";
};
width = 1380;
},
{
anchors = (
{
name = bottom;
pos = (605,0);
},
{
name = top;
pos = (946,1603);
}
);
background = {
shapes = (
{
closed = 1;
nodes = (
(144,163,o),
(328.667,-38,o),
(698,-38,cs),
(860.545,-38,o),
(1001.246,52.548,o),
(1062,145,c),
(1075,0,l),
(1277,0,l),
(1401,879,l),
(835,879,l),
(804,650,l),
(1108,650,l),
(1075,432,ls),
(1073,416,o),
(1070.667,400.333,o),
(1068,385,cs),
(1065.333,369.667,o),
(1063,354,o),
(1061,338,c),
(1013.484,299.394,o),
(844.917,231,o),
(746,231,cs),
(652.667,231,o),
(582,256.667,o),
(534,314,cs),
(486,371.333,o),
(462,461,o),
(462,589,cs),
(462,809,o),
(505.167,1000.833,o),
(584.5,1137.5,cs),
(663.833,1274.167,o),
(780,1356,o),
(924,1356,cs),
(1036,1356,o),
(1130.667,1333.833,o),
(1200,1310.5,cs),
(1273.199,1285.866,o),
(1294.667,1269.714,o),
(1322,1258,c),
(1429,1487,l),
(1368.846,1528.014,o),
(1191.438,1623.657,o),
(943,1629,cs),
(720.333,1629,o),
(520,1533.167,o),
(376,1352.5,cs),
(232,1171.833,o),
(144,906.333,o),
(144,565,cs)
);
}
);
};
layerId = "32C958FF-0ECC-43B0-8A26-125B8B46EA2F";
shapes = (
{
closed = 1;
nodes = (
(861,-38,o),
(1001,53,o),
(1062,145,c),
(1075,0,l),
(1277,0,l),
(1401,879,l),
(835,879,l),
(804,650,l),
(1108,650,l),
(1075,432,ls),
(1073,416,o),
(1071,400,o),
(1068,385,cs),
(1065,370,o),
(1063,354,o),
(1061,338,c),
(1013,299,o),
(845,231,o),
(746,231,cs),
(653,231,o),
(582,257,o),
(534,314,cs),
(486,371,o),
(462,461,o),
(462,589,cs),
(462,809,o),
(505,1001,o),
(585,1138,cs),
(664,1274,o),
(780,1356,o),
(924,1356,cs),
(1036,1356,o),
(1131,1334,o),
(1200,1311,cs),
(1273,1286,o),
(1295,1270,o),
(1322,1258,c),
(1429,1487,l),
(1369,1528,o),
(1191,1624,o),
(943,1629,cs),
(720,1629,o),
(520,1533,o),
(376,1353,cs),
(232,1172,o),
(144,906,o),
(144,565,cs),
(144,163,o),
(329,-38,o),
(698,-38,cs)
);
}
);
userData = {
assembly = "SVTCA[0]	/* SetFreedomAndProjectionVectorToAxis */
PUSHB[ ]	/* 3 values pushed */
40 1 0
CALL[ ]	/* CallFunction */
PUSHB[ ]	/* 1 value pushed */
39
SHP[1]	/* ShiftPointByLastPoint */
PUSHB[ ]	/* 3 values pushed */
46 1 0
CALL[ ]	/* CallFunction */
PUSHB[ ]	/* 2 values pushed */
26 13
MIRP[01001]	/* MoveIndirectRelPt */
PUSHB[ ]	/* 1 value pushed */
35
MDAP[1]	/* MoveDirectAbsPt */
PUSHB[ ]	/* 2 values pushed */
37 10
MIRP[01001]	/* MoveIndirectRelPt */
PUSHB[ ]	/* 1 value pushed */
38
SHP[0]	/* ShiftPointByLastPoint */
PUSHB[ ]	/* 1 value pushed */
11
MDAP[1]	/* MoveDirectAbsPt */
PUSHB[ ]	/* 1 value pushed */
12
SHP[1]	/* ShiftPointByLastPoint */
PUSHB[ ]	/* 1 value pushed */
16
MDAP[1]	/* MoveDirectAbsPt */
PUSHB[ ]	/* 2 values pushed */
5 13
MIRP[01001]	/* MoveIndirectRelPt */
SVTCA[1]	/* SetFreedomAndProjectionVectorToAxis */
PUSHB[ ]	/* 1 value pushed */
48
MDAP[1]	/* MoveDirectAbsPt */
PUSHB[ ]	/* 1 value pushed */
0
MDRP[10110]	/* MoveDirectRelPt */
PUSHB[ ]	/* 2 values pushed */
21 18
MIRP[01001]	/* MoveIndirectRelPt */
PUSHB[ ]	/* 1 value pushed */
21
SRP0[ ]	/* SetRefPoint0 */
PUSHB[ ]	/* 3 values pushed */
0 40 16
CALL[ ]	/* CallFunction */
PUSHB[ ]	/* 5 values pushed */
39 15 0 17 4
CALL[ ]	/* CallFunction */
PUSHB[ ]	/* 3 values pushed */
39 40 10
CALL[ ]	/* CallFunction */
PUSHB[ ]	/* 4 values pushed */
64 39 38 9
CALL[ ]	/* CallFunction */
PUSHB[ ]	/* 1 value pushed */
39
SRP0[ ]	/* SetRefPoint0 */
PUSHB[ ]	/* 3 values pushed */
40 10 16
CALL[ ]	/* CallFunction */
PUSHB[ ]	/* 1 value pushed */
49
MDRP[10110]	/* MoveDirectRelPt */
PUSHB[ ]	/* 1 value pushed */
54
SMD[ ]	/* SetMinimumDistance */
PUSHW[ ]	/* 3 values pushed */
16223 -2289 21
CALL[ ]	/* CallFunction */
SPVFS[ ]	/* SetPVectorFromStack */
PUSHB[ ]	/* 1 value pushed */
35
MDAP[0]	/* MoveDirectAbsPt */
SFVTPV[ ]	/* SetFVectorToPVector */
PUSHB[ ]	/* 1 value pushed */
39
SRP0[ ]	/* SetRefPoint0 */
PUSHB[ ]	/* 2 values pushed */
31 27
MIRP[11001]	/* MoveIndirectRelPt */
PUSHB[ ]	/* 1 value pushed */
38
SMD[ ]	/* SetMinimumDistance */
SVTCA[1]	/* SetFreedomAndProjectionVectorToAxis */
PUSHB[ ]	/* 2 values pushed */
11 10
MDAP[0]	/* MoveDirectAbsPt */
MDRP[01001]	/* MoveDirectRelPt */
SVTCA[0]	/* SetFreedomAndProjectionVectorToAxis */
PUSHB[ ]	/* 2 values pushed */
10 11
MDAP[0]	/* MoveDirectAbsPt */
MDRP[01001]	/* MoveDirectRelPt */
PUSHB[ ]	/* 1 value pushed */
54
SMD[ ]	/* SetMinimumDistance */
PUSHW[ ]	/* 3 values pushed */
-7000 -14813 21
CALL[ ]	/* CallFunction */
SPVFS[ ]	/* SetPVectorFromStack */
SFVTPV[ ]	/* SetFVectorToPVector */
PUSHB[ ]	/* 1 value pushed */
11
SRP0[ ]	/* SetRefPoint0 */
PUSHB[ ]	/* 1 value pushed */
13
MDRP[00000]	/* MoveDirectRelPt */
PUSHB[ ]	/* 1 value pushed */
10
SRP0[ ]	/* SetRefPoint0 */
PUSHB[ ]	/* 1 value pushed */
8
MDRP[00000]	/* MoveDirectRelPt */
PUSHW[ ]	/* 3 values pushed */
-8045 -14273 21
CALL[ ]	/* CallFunction */
SFVFS[ ]	/* SetFVectorFromStack */
PUSHB[ ]	/* 1 value pushed */
8
SRP0[ ]	/* SetRefPoint0 */
PUSHB[ ]	/* 4 values pushed */
9 8 10 19
CALL[ ]	/* CallFunction */
SFVTCA[1]	/* SetFVectorToAxis */
PUSHB[ ]	/* 1 value pushed */
13
SRP0[ ]	/* SetRefPoint0 */
PUSHB[ ]	/* 4 values pushed */
12 13 11 19
CALL[ ]	/* CallFunction */
PUSHW[ ]	/* 3 values pushed */
16201 -2441 21
CALL[ ]	/* CallFunction */
SFVFS[ ]	/* SetFVectorFromStack */
PUSHB[ ]	/* 1 value pushed */
31
SRP0[ ]	/* SetRefPoint0 */
PUSHB[ ]	/* 4 values pushed */
32 31 35 19
CALL[ ]	/* CallFunction */
PUSHB[ ]	/* 4 values pushed */
33 31 35 19
CALL[ ]	/* CallFunction */
PUSHB[ ]	/* 4 values pushed */
34 31 35 19
CALL[ ]	/* CallFunction */
PUSHB[ ]	/* 3 values pushed */
32 31 35
DUP[ ]	/* DuplicateTopStack */
ROLL[ ]	/* RollTopThreeStack */
DUP[ ]	/* DuplicateTopStack */
ROLL[ ]	/* RollTopThreeStack */
SWAP[ ]	/* SwapTopStack */
SPVTL[0]	/* SetPVectorToLine */
SFVTPV[ ]	/* SetFVectorToPVector */
SRP1[ ]	/* SetRefPoint1 */
SRP2[ ]	/* SetRefPoint2 */
IP[ ]	/* InterpolatePts */
PUSHB[ ]	/* 1 value pushed */
33
IP[ ]	/* InterpolatePts */
PUSHB[ ]	/* 1 value pushed */
34
IP[ ]	/* InterpolatePts */
PUSHB[ ]	/* 3 values pushed */
9 8 10
DUP[ ]	/* DuplicateTopStack */
ROLL[ ]	/* RollTopThreeStack */
DUP[ ]	/* DuplicateTopStack */
ROLL[ ]	/* RollTopThreeStack */
SWAP[ ]	/* SwapTopStack */
SPVTL[0]	/* SetPVectorToLine */
SFVTPV[ ]	/* SetFVectorToPVector */
SRP1[ ]	/* SetRefPoint1 */
SRP2[ ]	/* SetRefPoint2 */
IP[ ]	/* InterpolatePts */
SVTCA[0]	/* SetFreedomAndProjectionVectorToAxis */
PUSHB[ ]	/* 7 values pushed */
31 34 8 9 13 32 33
MDAP[0]	/* MoveDirectAbsPt */
MDAP[0]	/* MoveDirectAbsPt */
MDAP[0]	/* MoveDirectAbsPt */
MDAP[0]	/* MoveDirectAbsPt */
MDAP[0]	/* MoveDirectAbsPt */
MDAP[0]	/* MoveDirectAbsPt */
MDAP[0]	/* MoveDirectAbsPt */
SVTCA[1]	/* SetFreedomAndProjectionVectorToAxis */
NPUSHB[ ]	/* 9 values pushed */
31 34 35 8 9 12 13 32 33
MDAP[0]	/* MoveDirectAbsPt */
MDAP[0]	/* MoveDirectAbsPt */
MDAP[0]	/* MoveDirectAbsPt */
MDAP[0]	/* MoveDirectAbsPt */
MDAP[0]	/* MoveDirectAbsPt */
MDAP[0]	/* MoveDirectAbsPt */
MDAP[0]	/* MoveDirectAbsPt */
MDAP[0]	/* MoveDirectAbsPt */
MDAP[0]	/* MoveDirectAbsPt */
PUSHB[ ]	/* 1 value pushed */
64
SMD[ ]	/* SetMinimumDistance */
SVTCA[1]	/* SetFreedomAndProjectionVectorToAxis */
PUSHB[ ]	/* 2 values pushed */
40 21
SRP1[ ]	/* SetRefPoint1 */
SRP2[ ]	/* SetRefPoint2 */
PUSHB[ ]	/* 4 values pushed */
16 36 37 46
DEPTH[ ]	/* GetDepthStack */
SLOOP[ ]	/* SetLoopVariable */
IP[ ]	/* InterpolatePts */
SVTCA[0]	/* SetFreedomAndProjectionVectorToAxis */
PUSHB[ ]	/* 2 values pushed */
26 40
SRP1[ ]	/* SetRefPoint1 */
SRP2[ ]	/* SetRefPoint2 */
PUSHB[ ]	/* 1 value pushed */
41
IP[ ]	/* InterpolatePts */
PUSHB[ ]	/* 1 value pushed */
35
SRP1[ ]	/* SetRefPoint1 */
PUSHB[ ]	/* 2 values pushed */
21 0
IP[ ]	/* InterpolatePts */
IP[ ]	/* InterpolatePts */
IUP[0]	/* InterpolateUntPts */
IUP[1]	/* InterpolateUntPts */";
};
width = 1450;
},
{
anchors = (
{
name = bottom;
pos = (580,0);
},
{
name = top;
pos = (916,1582);
}
);
background = {
shapes = (
{
closed = 1;
nodes = (
(197,152.333,o),
(384.333,-40,o),
(727,-40,cs),
(965.022,-40,o),
(1092.078,76.123,o),
(1148,164,c),
(1152,0,l),
(1275,0,l),
(1392,829,l),
(841,829,l),
(818,675,l),
(1182,675,l),
(1145,398,ls),
(1144.333,394,o),
(1143.833,390.167,o),
(1143.5,386.5,cs),
(1143.167,382.833,o),
(1142.333,379,o),
(1141,375,cs),
(1127.667,312.333,o),
(1086,253.667,o),
(1022,211,cs),
(958,168.333,o),
(869.667,141,o),
(763,141,cs),
(651,141,o),
(563.5,172,o),
(505.5,240,cs),
(447.5,308,o),
(417,414.333,o),
(417,565,cs),
(417,721.083,o),
(441.738,933.073,o),
(530.5,1124.5,cs),
(613.724,1303.982,o),
(760.804,1432,o),
(971,1432,cs),
(1085.667,1432,o),
(1194.333,1387.667,o),
(1329,1321,c),
(1406,1479,l),
(1258,1575,o),
(1115.333,1613.667,o),
(986,1615,cs),
(794,1615,o),
(641.167,1549.333,o),
(524.5,1444,cs),
(466.167,1391.333,o),
(416.333,1330,o),
(375,1260,cs),
(245.948,1041.444,o),
(197,783.732,o),
(197,555,cs)
);
}
);
};
layerId = "747E1C2D-2712-4BCE-A1EA-426133F593D6";
shapes = (
{
closed = 1;
nodes = (
(965,-40,o),
(1092,76,o),
(1148,164,c),
(1152,0,l),
(1275,0,l),
(1392,829,l),
(841,829,l),
(818,675,l),
(1182,675,l),
(1145,398,ls),
(1144,394,o),
(1144,390,o),
(1144,387,cs),
(1143,383,o),
(1142,379,o),
(1141,375,cs),
(1128,312,o),
(1086,254,o),
(1022,211,cs),
(958,168,o),
(870,141,o),
(763,141,cs),
(651,141,o),
(564,172,o),
(506,240,cs),
(448,308,o),
(417,414,o),
(417,565,cs),
(417,721,o),
(442,933,o),
(531,1125,cs),
(614,1304,o),
(761,1432,o),
(971,1432,cs),
(1086,1432,o),
(1194,1388,o),
(1329,1321,c),
(1406,1479,l),
(1258,1575,o),
(1115,1614,o),
(986,1615,cs),
(794,1615,o),
(641,1549,o),
(525,1444,cs),
(466,1391,o),
(416,1330,o),
(375,1260,cs),
(246,1041,o),
(197,784,o),
(197,555,cs),
(197,152,o),
(384,-40,o),
(727,-40,cs)
);
}
);
userData = {
assembly = "SVTCA[0]	/* SetFreedomAndProjectionVectorToAxis */
PUSHB[ ]	/* 3 values pushed */
40 1 0
CALL[ ]	/* CallFunction */
PUSHB[ ]	/* 1 value pushed */
39
SHP[1]	/* ShiftPointByLastPoint */
PUSHB[ ]	/* 3 values pushed */
46 1 0
CALL[ ]	/* CallFunction */
PUSHB[ ]	/* 2 values pushed */
26 10
MIRP[01001]	/* MoveIndirectRelPt */
PUSHB[ ]	/* 3 values pushed */
7 4 0
CALL[ ]	/* CallFunction */
PUSHB[ ]	/* 2 values pushed */
14 10
MIRP[01001]	/* MoveIndirectRelPt */
PUSHB[ ]	/* 5 values pushed */
35 38 46 7 13
CALL[ ]	/* CallFunction */
PUSHB[ ]	/* 2 values pushed */
35 8
MIRP[01001]	/* MoveIndirectRelPt */
PUSHB[ ]	/* 4 values pushed */
11 46 7 8
CALL[ ]	/* CallFunction */
SVTCA[1]	/* SetFreedomAndProjectionVectorToAxis */
PUSHB[ ]	/* 1 value pushed */
49
MDAP[1]	/* MoveDirectAbsPt */
PUSHB[ ]	/* 1 value pushed */
0
MDRP[10110]	/* MoveDirectRelPt */
PUSHB[ ]	/* 2 values pushed */
21 17
MIRP[01001]	/* MoveIndirectRelPt */
PUSHB[ ]	/* 1 value pushed */
21
SRP0[ ]	/* SetRefPoint0 */
PUSHB[ ]	/* 3 values pushed */
0 40 16
CALL[ ]	/* CallFunction */
PUSHB[ ]	/* 5 values pushed */
39 12 0 15 4
CALL[ ]	/* CallFunction */
PUSHB[ ]	/* 3 values pushed */
39 40 10
CALL[ ]	/* CallFunction */
PUSHB[ ]	/* 4 values pushed */
64 39 38 9
CALL[ ]	/* CallFunction */
PUSHB[ ]	/* 1 value pushed */
39
SRP0[ ]	/* SetRefPoint0 */
PUSHB[ ]	/* 1 value pushed */
50
MDRP[10110]	/* MoveDirectRelPt */
PUSHB[ ]	/* 1 value pushed */
54
SMD[ ]	/* SetMinimumDistance */
PUSHW[ ]	/* 3 values pushed */
16223 -2290 21
CALL[ ]	/* CallFunction */
SPVFS[ ]	/* SetPVectorFromStack */
PUSHB[ ]	/* 1 value pushed */
35
MDAP[0]	/* MoveDirectAbsPt */
SFVTPV[ ]	/* SetFVectorToPVector */
PUSHB[ ]	/* 1 value pushed */
39
SRP0[ ]	/* SetRefPoint0 */
PUSHB[ ]	/* 2 values pushed */
32 33
MIRP[11001]	/* MoveIndirectRelPt */
PUSHB[ ]	/* 4 values pushed */
33 32 35 19
CALL[ ]	/* CallFunction */
PUSHB[ ]	/* 4 values pushed */
34 32 35 19
CALL[ ]	/* CallFunction */
PUSHB[ ]	/* 3 values pushed */
33 32 35
DUP[ ]	/* DuplicateTopStack */
ROLL[ ]	/* RollTopThreeStack */
DUP[ ]	/* DuplicateTopStack */
ROLL[ ]	/* RollTopThreeStack */
SWAP[ ]	/* SwapTopStack */
SPVTL[0]	/* SetPVectorToLine */
SFVTPV[ ]	/* SetFVectorToPVector */
SRP1[ ]	/* SetRefPoint1 */
SRP2[ ]	/* SetRefPoint2 */
IP[ ]	/* InterpolatePts */
PUSHB[ ]	/* 1 value pushed */
34
IP[ ]	/* InterpolatePts */
SVTCA[0]	/* SetFreedomAndProjectionVectorToAxis */
PUSHB[ ]	/* 3 values pushed */
34 32 33
MDAP[0]	/* MoveDirectAbsPt */
MDAP[0]	/* MoveDirectAbsPt */
MDAP[0]	/* MoveDirectAbsPt */
SVTCA[1]	/* SetFreedomAndProjectionVectorToAxis */
PUSHB[ ]	/* 4 values pushed */
34 35 32 33
MDAP[0]	/* MoveDirectAbsPt */
MDAP[0]	/* MoveDirectAbsPt */
MDAP[0]	/* MoveDirectAbsPt */
MDAP[0]	/* MoveDirectAbsPt */
PUSHB[ ]	/* 1 value pushed */
64
SMD[ ]	/* SetMinimumDistance */
SVTCA[1]	/* SetFreedomAndProjectionVectorToAxis */
PUSHB[ ]	/* 2 values pushed */
40 21
SRP1[ ]	/* SetRefPoint1 */
SRP2[ ]	/* SetRefPoint2 */
PUSHB[ ]	/* 4 values pushed */
14 36 37 46
DEPTH[ ]	/* GetDepthStack */
SLOOP[ ]	/* SetLoopVariable */
IP[ ]	/* InterpolatePts */
SVTCA[0]	/* SetFreedomAndProjectionVectorToAxis */
PUSHB[ ]	/* 2 values pushed */
35 26
SRP1[ ]	/* SetRefPoint1 */
SRP2[ ]	/* SetRefPoint2 */
PUSHB[ ]	/* 3 values pushed */
21 0 41
IP[ ]	/* InterpolatePts */
IP[ ]	/* InterpolatePts */
IP[ ]	/* InterpolatePts */
PUSHB[ ]	/* 2 values pushed */
7 14
SRP1[ ]	/* SetRefPoint1 */
SRP2[ ]	/* SetRefPoint2 */
PUSHB[ ]	/* 1 value pushed */
10
IP[ ]	/* InterpolatePts */
IUP[0]	/* InterpolateUntPts */
IUP[1]	/* InterpolateUntPts */";
};
width = 1401;
}
);
note = G;
unicode = 71;
},
{
glyphname = Gbreve;
lastChange = "2024-06-14 12:43:47 +0000";
layers = (
{
background = {
shapes = (
{
closed = 1;
nodes = (
(219,348.333,o),
(266,201.333,o),
(354,104,cs),
(442,6.667,o),
(572.333,-40,o),
(739,-40,cs),
(1009.732,-40,o),
(1129.173,85.843,o),
(1184,172,c),
(1184,0,l),
(1275,0,l),
(1388,808,l),
(843,808,l),
(824,686,l),
(1213,686,l),
(1174,384,ls),
(1174,385.333,o),
(1174.167,386.333,o),
(1174.5,387,cs),
(1174.833,387.667,o),
(1175,388.667,o),
(1175,390,cs),
(1165.667,307.333,o),
(1128.667,235.833,o),
(1062,184.5,cs),
(995.333,133.167,o),
(899.333,103,o),
(770,103,cs),
(531.237,103,o),
(398,232.323,o),
(398,554,cs),
(398,705.878,o),
(424.498,933.696,o),
(508.5,1118.5,cs),
(595.39,1309.659,o),
(742.298,1464,o),
(991,1464,cs),
(1024.333,1464,o),
(1064.5,1457.5,o),
(1118.5,1439.5,cs),
(1172.5,1421.5,o),
(1241,1392.333,o),
(1333,1347,c),
(1396,1475,l),
(1305.333,1535,o),
(1226.5,1568.333,o),
(1160.5,1587,cs),
(1094.5,1605.667,o),
(1041.333,1609,o),
(1004,1609,cs),
(687.984,1609,o),
(492.11,1440.272,o),
(374,1221.5,cs),
(257.944,1006.533,o),
(219,741.703,o),
(219,551,cs)
);
}
);
};
layerId = m01;
shapes = (
{
ref = G;
},
{
pos = (368,426);
ref = brevecomb;
}
);
width = 1380;
},
{
background = {
shapes = (
{
closed = 1;
nodes = (
(144,163,o),
(328.667,-38,o),
(698,-38,cs),
(860.545,-38,o),
(1001.246,52.548,o),
(1062,145,c),
(1075,0,l),
(1277,0,l),
(1401,879,l),
(835,879,l),
(804,650,l),
(1108,650,l),
(1075,432,ls),
(1073,416,o),
(1070.667,400.333,o),
(1068,385,cs),
(1065.333,369.667,o),
(1063,354,o),
(1061,338,c),
(1013.484,299.394,o),
(844.917,231,o),
(746,231,cs),
(652.667,231,o),
(582,256.667,o),
(534,314,cs),
(486,371.333,o),
(462,461,o),
(462,589,cs),
(462,809,o),
(505.167,1000.833,o),
(584.5,1137.5,cs),
(663.833,1274.167,o),
(780,1356,o),
(924,1356,cs),
(1036,1356,o),
(1130.667,1333.833,o),
(1200,1310.5,cs),
(1273.199,1285.866,o),
(1294.667,1269.714,o),
(1322,1258,c),
(1429,1487,l),
(1368.846,1528.014,o),
(1191.438,1623.657,o),
(943,1629,cs),
(720.333,1629,o),
(520,1533.167,o),
(376,1352.5,cs),
(232,1171.833,o),
(144,906.333,o),
(144,565,cs)
);
},
{
closed = 1;
nodes = (
(1084,2044,l),
(1064,1913,o),
(1018,1858,o),
(918,1858,cs),
(839,1858,o),
(814,1888,o),
(809,1955,c),
(806,1968,o),
(806,1982,o),
(807,1999,cs),
(808,2014,o),
(810,2027,o),
(813,2044,c),
(609,2044,l),
(602,2009,o),
(600,1980,o),
(601,1949,cs),
(608,1792,o),
(702,1719,o),
(894,1719,cs),
(1118,1719,o),
(1243,1816,o),
(1282,2040,c),
(1286,2044,l),
(1286,2044,l)
);
}
);
};
layerId = "32C958FF-0ECC-43B0-8A26-125B8B46EA2F";
shapes = (
{
ref = G;
},
{
pos = (66,477);
ref = brevecomb;
}
);
width = 1450;
},
{
background = {
shapes = (
{
closed = 1;
nodes = (
(197,152.333,o),
(384.333,-40,o),
(727,-40,cs),
(965.022,-40,o),
(1092.078,76.123,o),
(1148,164,c),
(1152,0,l),
(1275,0,l),
(1392,829,l),
(841,829,l),
(818,675,l),
(1182,675,l),
(1145,398,ls),
(1144.333,394,o),
(1143.833,390.167,o),
(1143.5,386.5,cs),
(1143.167,382.833,o),
(1142.333,379,o),
(1141,375,cs),
(1127.667,312.333,o),
(1086,253.667,o),
(1022,211,cs),
(958,168.333,o),
(869.667,141,o),
(763,141,cs),
(651,141,o),
(563.5,172,o),
(505.5,240,cs),
(447.5,308,o),
(417,414.333,o),
(417,565,cs),
(417,721.083,o),
(441.738,933.073,o),
(530.5,1124.5,cs),
(613.724,1303.982,o),
(760.804,1432,o),
(971,1432,cs),
(1085.667,1432,o),
(1194.333,1387.667,o),
(1329,1321,c),
(1406,1479,l),
(1258,1575,o),
(1115.333,1613.667,o),
(986,1615,cs),
(794,1615,o),
(641.167,1549.333,o),
(524.5,1444,cs),
(466.167,1391.333,o),
(416.333,1330,o),
(375,1260,cs),
(245.948,1041.444,o),
(197,783.732,o),
(197,555,cs)
);
},
{
closed = 1;
nodes = (
(1095,1873,o),
(1040,1823,o),
(955,1823,cs),
(910,1823,o),
(879,1838,o),
(863,1868,c),
(848,1885,o),
(839,1907,o),
(840,1936,cs),
(840,1945,o),
(841,1955,o),
(843,1966,c),
(709,1966,l),
(706,1943,o),
(704,1922,o),
(705,1903,cs),
(706,1775,o),
(775,1705,o),
(935,1705,cs),
(1107,1705,o),
(1201,1786,o),
(1234,1931,cs),
(1236,1937,o),
(1238,1943,o),
(1239,1949,cs),
(1240,1954,o),
(1241,1960,o),
(1242,1966,c),
(1110,1966,l),
(1110,1966,l)
);
}
);
};
layerId = "747E1C2D-2712-4BCE-A1EA-426133F593D6";
shapes = (
{
ref = G;
},
{
pos = (240,442);
ref = brevecomb;
}
);
width = 1401;
}
);
note = Gbreve;
unicode = 286;
},
{
glyphname = Gcircumflex;
lastChange = "2024-06-14 12:43:47 +0000";
layers = (
{
background = {
shapes = (
{
closed = 1;
nodes = (
(219,348.333,o),
(266,201.333,o),
(354,104,cs),
(442,6.667,o),
(572.333,-40,o),
(739,-40,cs),
(1009.732,-40,o),
(1129.173,85.843,o),
(1184,172,c),
(1184,0,l),
(1275,0,l),
(1388,808,l),
(843,808,l),
(824,686,l),
(1213,686,l),
(1174,384,ls),
(1174,385.333,o),
(1174.167,386.333,o),
(1174.5,387,cs),
(1174.833,387.667,o),
(1175,388.667,o),
(1175,390,cs),
(1165.667,307.333,o),
(1128.667,235.833,o),
(1062,184.5,cs),
(995.333,133.167,o),
(899.333,103,o),
(770,103,cs),
(531.237,103,o),
(398,232.323,o),
(398,554,cs),
(398,705.878,o),
(424.498,933.696,o),
(508.5,1118.5,cs),
(595.39,1309.659,o),
(742.298,1464,o),
(991,1464,cs),
(1024.333,1464,o),
(1064.5,1457.5,o),
(1118.5,1439.5,cs),
(1172.5,1421.5,o),
(1241,1392.333,o),
(1333,1347,c),
(1396,1475,l),
(1305.333,1535,o),
(1226.5,1568.333,o),
(1160.5,1587,cs),
(1094.5,1605.667,o),
(1041.333,1609,o),
(1004,1609,cs),
(687.984,1609,o),
(492.11,1440.272,o),
(374,1221.5,cs),
(257.944,1006.533,o),
(219,741.703,o),
(219,551,cs)
);
}
);
};
layerId = m01;
shapes = (
{
ref = G;
},
{
pos = (336,426);
ref = circumflexcomb;
}
);
width = 1380;
},
{
background = {
shapes = (
{
closed = 1;
nodes = (
(144,163,o),
(328.667,-38,o),
(698,-38,cs),
(860.545,-38,o),
(1001.246,52.548,o),
(1062,145,c),
(1075,0,l),
(1277,0,l),
(1401,879,l),
(835,879,l),
(804,650,l),
(1108,650,l),
(1075,432,ls),
(1073,416,o),
(1070.667,400.333,o),
(1068,385,cs),
(1065.333,369.667,o),
(1063,354,o),
(1061,338,c),
(1013.484,299.394,o),
(844.917,231,o),
(746,231,cs),
(652.667,231,o),
(582,256.667,o),
(534,314,cs),
(486,371.333,o),
(462,461,o),
(462,589,cs),
(462,809,o),
(505.167,1000.833,o),
(584.5,1137.5,cs),
(663.833,1274.167,o),
(780,1356,o),
(924,1356,cs),
(1036,1356,o),
(1130.667,1333.833,o),
(1200,1310.5,cs),
(1273.199,1285.866,o),
(1294.667,1269.714,o),
(1322,1258,c),
(1429,1487,l),
(1368.846,1528.014,o),
(1191.438,1623.657,o),
(943,1629,cs),
(720.333,1629,o),
(520,1533.167,o),
(376,1352.5,cs),
(232,1171.833,o),
(144,906.333,o),
(144,565,cs)
);
},
{
closed = 1;
nodes = (
(826,1766,l),
(973,2085,l),
(1042,1766,l),
(1285,1766,l),
(1114,2405,l),
(895,2405,l),
(570,1766,l),
(570,1766,l)
);
}
);
};
layerId = "32C958FF-0ECC-43B0-8A26-125B8B46EA2F";
shapes = (
{
ref = G;
},
{
pos = (153,477);
ref = circumflexcomb;
}
);
width = 1450;
},
{
background = {
shapes = (
{
closed = 1;
nodes = (
(197,152.333,o),
(384.333,-40,o),
(727,-40,cs),
(965.022,-40,o),
(1092.078,76.123,o),
(1148,164,c),
(1152,0,l),
(1275,0,l),
(1392,829,l),
(841,829,l),
(818,675,l),
(1182,675,l),
(1145,398,ls),
(1144.333,394,o),
(1143.833,390.167,o),
(1143.5,386.5,cs),
(1143.167,382.833,o),
(1142.333,379,o),
(1141,375,cs),
(1127.667,312.333,o),
(1086,253.667,o),
(1022,211,cs),
(958,168.333,o),
(869.667,141,o),
(763,141,cs),
(651,141,o),
(563.5,172,o),
(505.5,240,cs),
(447.5,308,o),
(417,414.333,o),
(417,565,cs),
(417,721.083,o),
(441.738,933.073,o),
(530.5,1124.5,cs),
(613.724,1303.982,o),
(760.804,1432,o),
(971,1432,cs),
(1085.667,1432,o),
(1194.333,1387.667,o),
(1329,1321,c),
(1406,1479,l),
(1258,1575,o),
(1115.333,1613.667,o),
(986,1615,cs),
(794,1615,o),
(641.167,1549.333,o),
(524.5,1444,cs),
(466.167,1391.333,o),
(416.333,1330,o),
(375,1260,cs),
(245.948,1041.444,o),
(197,783.732,o),
(197,555,cs)
);
},
{
closed = 1;
nodes = (
(890,1694,l),
(1071,2012,l),
(1135,1694,l),
(1299,1694,l),
(1172,2251,l),
(1032,2251,l),
(707,1694,l),
(707,1694,l)
);
}
);
};
layerId = "747E1C2D-2712-4BCE-A1EA-426133F593D6";
shapes = (
{
ref = G;
},
{
pos = (272,442);
ref = circumflexcomb;
}
);
width = 1401;
}
);
note = Gcircumflex;
unicode = 284;
},
{
glyphname = Gcommaaccent;
lastChange = "2024-06-14 12:43:47 +0000";
layers = (
{
background = {
shapes = (
{
closed = 1;
nodes = (
(219,348.333,o),
(266,201.333,o),
(354,104,cs),
(442,6.667,o),
(572.333,-40,o),
(739,-40,cs),
(1009.732,-40,o),
(1129.173,85.843,o),
(1184,172,c),
(1184,0,l),
(1275,0,l),
(1388,808,l),
(843,808,l),
(824,686,l),
(1213,686,l),
(1174,384,ls),
(1174,385.333,o),
(1174.167,386.333,o),
(1174.5,387,cs),
(1174.833,387.667,o),
(1175,388.667,o),
(1175,390,cs),
(1165.667,307.333,o),
(1128.667,235.833,o),
(1062,184.5,cs),
(995.333,133.167,o),
(899.333,103,o),
(770,103,cs),
(531.237,103,o),
(398,232.323,o),
(398,554,cs),
(398,705.878,o),
(424.498,933.696,o),
(508.5,1118.5,cs),
(595.39,1309.659,o),
(742.298,1464,o),
(991,1464,cs),
(1024.333,1464,o),
(1064.5,1457.5,o),
(1118.5,1439.5,cs),
(1172.5,1421.5,o),
(1241,1392.333,o),
(1333,1347,c),
(1396,1475,l),
(1305.333,1535,o),
(1226.5,1568.333,o),
(1160.5,1587,cs),
(1094.5,1605.667,o),
(1041.333,1609,o),
(1004,1609,cs),
(687.984,1609,o),
(492.11,1440.272,o),
(374,1221.5,cs),
(257.944,1006.533,o),
(219,741.703,o),
(219,551,cs)
);
}
);
};
layerId = m01;
shapes = (
{
alignment = -1;
ref = G;
}
);
width = 1384;
},
{
background = {
shapes = (
{
closed = 1;
nodes = (
(144,163,o),
(328.667,-38,o),
(698,-38,cs),
(860.545,-38,o),
(1001.246,52.548,o),
(1062,145,c),
(1075,0,l),
(1277,0,l),
(1401,879,l),
(835,879,l),
(804,650,l),
(1108,650,l),
(1075,432,ls),
(1073,416,o),
(1070.667,400.333,o),
(1068,385,cs),
(1065.333,369.667,o),
(1063,354,o),
(1061,338,c),
(1013.484,299.394,o),
(844.917,231,o),
(746,231,cs),
(652.667,231,o),
(582,256.667,o),
(534,314,cs),
(486,371.333,o),
(462,461,o),
(462,589,cs),
(462,809,o),
(505.167,1000.833,o),
(584.5,1137.5,cs),
(663.833,1274.167,o),
(780,1356,o),
(924,1356,cs),
(1036,1356,o),
(1130.667,1333.833,o),
(1200,1310.5,cs),
(1273.199,1285.866,o),
(1294.667,1269.714,o),
(1322,1258,c),
(1429,1487,l),
(1368.846,1528.014,o),
(1191.438,1623.657,o),
(943,1629,cs),
(720.333,1629,o),
(520,1533.167,o),
(376,1352.5,cs),
(232,1171.833,o),
(144,906.333,o),
(144,565,cs)
);
}
);
};
layerId = "32C958FF-0ECC-43B0-8A26-125B8B46EA2F";
shapes = (
{
alignment = -1;
ref = G;
},
{
alignment = -1;
pos = (332,0);
ref = commaaccent;
}
);
width = 1450;
},
{
background = {
shapes = (
{
closed = 1;
nodes = (
(197,152.333,o),
(384.333,-40,o),
(727,-40,cs),
(965.022,-40,o),
(1092.078,76.123,o),
(1148,164,c),
(1152,0,l),
(1275,0,l),
(1392,829,l),
(841,829,l),
(818,675,l),
(1182,675,l),
(1145,398,ls),
(1144.333,394,o),
(1143.833,390.167,o),
(1143.5,386.5,cs),
(1143.167,382.833,o),
(1142.333,379,o),
(1141,375,cs),
(1127.667,312.333,o),
(1086,253.667,o),
(1022,211,cs),
(958,168.333,o),
(869.667,141,o),
(763,141,cs),
(651,141,o),
(563.5,172,o),
(505.5,240,cs),
(447.5,308,o),
(417,414.333,o),
(417,565,cs),
(417,721.083,o),
(441.738,933.073,o),
(530.5,1124.5,cs),
(613.724,1303.982,o),
(760.804,1432,o),
(971,1432,cs),
(1085.667,1432,o),
(1194.333,1387.667,o),
(1329,1321,c),
(1406,1479,l),
(1258,1575,o),
(1115.333,1613.667,o),
(986,1615,cs),
(794,1615,o),
(641.167,1549.333,o),
(524.5,1444,cs),
(466.167,1391.333,o),
(416.333,1330,o),
(375,1260,cs),
(245.948,1041.444,o),
(197,783.732,o),
(197,555,cs)
);
}
);
};
layerId = "747E1C2D-2712-4BCE-A1EA-426133F593D6";
shapes = (
{
alignment = -1;
ref = G;
},
{
alignment = -1;
pos = (448,0);
ref = commaaccent;
}
);
width = 1401;
}
);
note = Gcommaaccent;
unicode = 290;
},
{
glyphname = Gdotaccent;
lastChange = "2024-06-14 12:43:47 +0000";
layers = (
{
background = {
shapes = (
{
closed = 1;
nodes = (
(219,348.333,o),
(266,201.333,o),
(354,104,cs),
(442,6.667,o),
(572.333,-40,o),
(739,-40,cs),
(1009.732,-40,o),
(1129.173,85.843,o),
(1184,172,c),
(1184,0,l),
(1275,0,l),
(1388,808,l),
(843,808,l),
(824,686,l),
(1213,686,l),
(1174,384,ls),
(1174,385.333,o),
(1174.167,386.333,o),
(1174.5,387,cs),
(1174.833,387.667,o),
(1175,388.667,o),
(1175,390,cs),
(1165.667,307.333,o),
(1128.667,235.833,o),
(1062,184.5,cs),
(995.333,133.167,o),
(899.333,103,o),
(770,103,cs),
(531.237,103,o),
(398,232.323,o),
(398,554,cs),
(398,705.878,o),
(424.498,933.696,o),
(508.5,1118.5,cs),
(595.39,1309.659,o),
(742.298,1464,o),
(991,1464,cs),
(1024.333,1464,o),
(1064.5,1457.5,o),
(1118.5,1439.5,cs),
(1172.5,1421.5,o),
(1241,1392.333,o),
(1333,1347,c),
(1396,1475,l),
(1305.333,1535,o),
(1226.5,1568.333,o),
(1160.5,1587,cs),
(1094.5,1605.667,o),
(1041.333,1609,o),
(1004,1609,cs),
(687.984,1609,o),
(492.11,1440.272,o),
(374,1221.5,cs),
(257.944,1006.533,o),
(219,741.703,o),
(219,551,cs)
);
}
);
};
layerId = m01;
shapes = (
{
ref = G;
},
{
pos = (385,426);
ref = dotaccentcomb;
}
);
width = 1380;
},
{
background = {
shapes = (
{
closed = 1;
nodes = (
(144,163,o),
(328.667,-38,o),
(698,-38,cs),
(860.545,-38,o),
(1001.246,52.548,o),
(1062,145,c),
(1075,0,l),
(1277,0,l),
(1401,879,l),
(835,879,l),
(804,650,l),
(1108,650,l),
(1075,432,ls),
(1073,416,o),
(1070.667,400.333,o),
(1068,385,cs),
(1065.333,369.667,o),
(1063,354,o),
(1061,338,c),
(1013.484,299.394,o),
(844.917,231,o),
(746,231,cs),
(652.667,231,o),
(582,256.667,o),
(534,314,cs),
(486,371.333,o),
(462,461,o),
(462,589,cs),
(462,809,o),
(505.167,1000.833,o),
(584.5,1137.5,cs),
(663.833,1274.167,o),
(780,1356,o),
(924,1356,cs),
(1036,1356,o),
(1130.667,1333.833,o),
(1200,1310.5,cs),
(1273.199,1285.866,o),
(1294.667,1269.714,o),
(1322,1258,c),
(1429,1487,l),
(1368.846,1528.014,o),
(1191.438,1623.657,o),
(943,1629,cs),
(720.333,1629,o),
(520,1533.167,o),
(376,1352.5,cs),
(232,1171.833,o),
(144,906.333,o),
(144,565,cs)
);
},
{
closed = 1;
nodes = (
(725,2181,l),
(666,1759,l),
(1064,1761,l),
(1125,2181,l),
(1125,2181,l)
);
}
);
};
layerId = "32C958FF-0ECC-43B0-8A26-125B8B46EA2F";
shapes = (
{
ref = G;
},
{
pos = (380,477);
ref = dotaccentcomb;
}
);
width = 1450;
},
{
background = {
shapes = (
{
closed = 1;
nodes = (
(197,152.333,o),
(384.333,-40,o),
(727,-40,cs),
(965.022,-40,o),
(1092.078,76.123,o),
(1148,164,c),
(1152,0,l),
(1275,0,l),
(1392,829,l),
(841,829,l),
(818,675,l),
(1182,675,l),
(1145,398,ls),
(1144.333,394,o),
(1143.833,390.167,o),
(1143.5,386.5,cs),
(1143.167,382.833,o),
(1142.333,379,o),
(1141,375,cs),
(1127.667,312.333,o),
(1086,253.667,o),
(1022,211,cs),
(958,168.333,o),
(869.667,141,o),
(763,141,cs),
(651,141,o),
(563.5,172,o),
(505.5,240,cs),
(447.5,308,o),
(417,414.333,o),
(417,565,cs),
(417,721.083,o),
(441.738,933.073,o),
(530.5,1124.5,cs),
(613.724,1303.982,o),
(760.804,1432,o),
(971,1432,cs),
(1085.667,1432,o),
(1194.333,1387.667,o),
(1329,1321,c),
(1406,1479,l),
(1258,1575,o),
(1115.333,1613.667,o),
(986,1615,cs),
(794,1615,o),
(641.167,1549.333,o),
(524.5,1444,cs),
(466.167,1391.333,o),
(416.333,1330,o),
(375,1260,cs),
(245.948,1041.444,o),
(197,783.732,o),
(197,555,cs)
);
},
{
closed = 1;
nodes = (
(900,2093,l),
(854,1767,l),
(1154,1767,l),
(1198,2093,l),
(1198,2093,l)
);
}
);
};
layerId = "747E1C2D-2712-4BCE-A1EA-426133F593D6";
shapes = (
{
ref = G;
},
{
pos = (470,442);
ref = dotaccentcomb;
}
);
width = 1401;
}
);
note = Gdotaccent;
unicode = 288;
},
